<?xml version="1.0" encoding="utf-8"?><!DOCTYPE svg PUBLIC "-//W3C//DTD SVG 1.1//EN" "http://www.w3.org/Graphics/SVG/1.1/DTD/svg11.dtd"> <svg version="1.1" xmlns="http://www.w3.org/2000/svg" xmlns:xlink="http://www.w3.org/1999/xlink" x="0px" y="0px" viewBox="0 0 20.5 43" width="20.5" height="42.5" enable-background="new 0 0 20.5 42.5" xml:space="preserve"><g><circle fill="none" stroke="#808080" stroke-miterlimit="10" cx="129.712" cy="65.524" r="15.25"/></g><path fill="none" stroke="#808080" stroke-miterlimit="10" d="M186.605,43.74c0-8.42,6.828-15.25,15.25-15.25"/><g><line fill="#FFFFFF" stroke="#808080" stroke-miterlimit="10" x1="195.32" y1="37.207" x2="208.386" y2="50.274"/><line fill="#FFFFFF" stroke="#808080" stroke-miterlimit="10" x1="195.32" y1="50.274" x2="208.39" y2="37.207"/></g><g><path fill="#FFFFFF" d="M10.25,0.25c-5.514,0-10,4.486-10,10s4.486,10,10,10s10-4.486,10-10S15.764,0.25,10.25,0.25z M10.25,19.615
		c-5.164,0-9.365-4.201-9.365-9.365s4.201-9.365,9.365-9.365s9.365,4.201,9.365,9.365S15.414,19.615,10.25,19.615z"/><polygon fill="#FFFFFF" points="14.175,5.877 10.249,9.802 6.325,5.877 5.876,6.326 9.8,10.251 5.876,14.174 6.325,14.623 
		10.249,10.699 14.172,14.623 14.621,14.174 10.698,10.251 14.624,6.326 	"/></g><g><g><circle fill="none" stroke="#808080" stroke-miterlimit="10" cx="24.712" cy="73.524" r="15.25"/></g><g><line fill="#FFFFFF" stroke="#808080" stroke-miterlimit="10" x1="18.177" y1="66.99" x2="31.243" y2="80.057"/><line fill="#FFFFFF" stroke="#808080" stroke-miterlimit="10" x1="18.177" y1="80.057" x2="31.247" y2="66.99"/></g></g><g><path fill="#999999" d="M10.25,22.25c-5.514,0-10,4.486-10,10s4.486,10,10,10s10-4.486,10-10S15.764,22.25,10.25,22.25z
		 M10.25,41.615c-5.164,0-9.365-4.201-9.365-9.365s4.201-9.365,9.365-9.365s9.365,4.201,9.365,9.365S15.414,41.615,10.25,41.615z"/><polygon fill="#999999" points="14.175,27.877 10.249,31.802 6.325,27.877 5.876,28.326 9.8,32.251 5.876,36.174 6.325,36.623 
		10.249,32.699 14.172,36.623 14.621,36.174 10.698,32.251 14.624,28.326 	"/></g></svg>