<?xml version="1.0" encoding="utf-8"?><!DOCTYPE svg PUBLIC "-//W3C//DTD SVG 1.1//EN" "http://www.w3.org/Graphics/SVG/1.1/DTD/svg11.dtd"> <svg version="1.1" id="Слой_1" xmlns="http://www.w3.org/2000/svg" xmlns:xlink="http://www.w3.org/1999/xlink" x="0px" y="0px" width="283.465px" height="42.928px" viewBox="0 0 283.465 42.928" enable-background="new 0 0 283.465 42.928" xml:space="preserve"><g><polygon fill-rule="evenodd" clip-rule="evenodd" fill="#E1B016" points="226.822,26.881 226.822,11.241 260.236,11.241 
		242.971,26.881 226.822,26.881 	"/><polygon fill-rule="evenodd" clip-rule="evenodd" fill="#FFD311" points="226.822,42.523 226.822,11.241 242.971,11.241 
		242.971,42.523 226.822,42.523 	"/><polygon fill-rule="evenodd" clip-rule="evenodd" fill="#E1B016" points="260.236,11.241 260.236,26.881 277.499,42.523 
		277.499,26.881 260.236,11.241 	"/><polygon fill-rule="evenodd" clip-rule="evenodd" fill="#FFD311" points="242.971,42.523 260.236,26.881 277.499,42.523 
		242.971,42.523 	"/><polygon fill-rule="evenodd" clip-rule="evenodd" fill="#FEEF21" points="226.822,11.241 251.367,3.182 260.236,11.241 
		226.822,11.241 	"/><polygon fill-rule="evenodd" clip-rule="evenodd" fill="#FEEF21" points="242.971,42.523 242.971,26.881 260.236,11.241 
		260.236,26.881 242.971,42.523 	"/><polygon fill-rule="evenodd" clip-rule="evenodd" fill="#E1B016" points="226.822,42.523 242.971,42.523 242.971,26.881 
		226.822,26.881 226.822,42.523 	"/><path fill-rule="evenodd" clip-rule="evenodd" d="M208.985,27.351c-0.008-1.064,0.147-1.976,0.479-2.712
		c0.329-0.747,0.859-1.311,1.599-1.695c0.735-0.385,1.722-0.58,2.957-0.58c1.229,0,2.195,0.195,2.892,0.58
		c0.707,0.385,1.202,0.948,1.489,1.695c0.294,0.736,0.425,1.647,0.419,2.712v1.883h-9.835V27.351L208.985,27.351z M208.985,34.455
		v-1.928h13.645v-4.801c0.01-1.2-0.125-2.312-0.392-3.355c-0.266-1.043-0.728-1.961-1.374-2.755c-0.64-0.792-1.52-1.418-2.64-1.867
		c-1.115-0.445-2.521-0.672-4.205-0.682c-1.703,0.01-3.131,0.227-4.283,0.667c-1.154,0.437-2.078,1.051-2.769,1.833
		c-0.69,0.778-1.194,1.689-1.489,2.723c-0.309,1.027-0.456,2.141-0.45,3.341v6.87c-0.006,1.296,0.152,2.464,0.469,3.5
		c0.315,1.034,0.826,1.922,1.533,2.649c0.702,0.739,1.639,1.296,2.806,1.688c1.163,0.392,2.588,0.588,4.275,0.588
		c0.965,0,1.928-0.055,2.896-0.165c0.962-0.109,1.886-0.26,2.772-0.456c0.89-0.196,1.694-0.429,2.428-0.696l-0.52-3.156
		c-1.258,0.337-2.486,0.598-3.708,0.794c-1.227,0.186-2.4,0.291-3.542,0.291c-1.111,0-2.021-0.095-2.737-0.283
		c-0.714-0.197-1.268-0.495-1.668-0.9c-0.391-0.41-0.678-0.935-0.824-1.579C209.053,36.135,208.977,35.358,208.985,34.455
		L208.985,34.455z M202.434,42.455V24.902c0.005-1.182-0.151-2.209-0.479-3.079c-0.323-0.873-0.857-1.547-1.586-2.023
		c-0.725-0.478-1.707-0.722-2.923-0.731c-0.722,0-1.489,0.072-2.304,0.196c-0.818,0.132-1.639,0.307-2.479,0.535
		c-0.833,0.226-1.656,0.485-2.449,0.774c-0.801,0.299-1.536,0.613-2.227,0.941c-0.323-0.782-0.84-1.379-1.555-1.805
		c-0.713-0.423-1.652-0.632-2.82-0.642c-0.693,0-1.438,0.072-2.235,0.214c-0.803,0.131-1.619,0.319-2.45,0.547
		c-0.829,0.235-1.63,0.495-2.404,0.784c-0.787,0.29-1.495,0.594-2.136,0.902l-0.377-1.976h-3.199v22.915h3.953V25.14
		c0.619-0.323,1.287-0.621,1.992-0.895c0.706-0.282,1.421-0.525,2.126-0.738c0.705-0.212,1.374-0.377,1.986-0.493
		c0.608-0.118,1.133-0.18,1.566-0.18c0.73-0.008,1.281,0.155,1.659,0.494c0.366,0.337,0.553,0.879,0.553,1.621v17.506h3.952V25.14
		c0.622-0.323,1.271-0.621,1.969-0.895c0.69-0.282,1.388-0.525,2.079-0.738c0.698-0.212,1.358-0.377,1.979-0.493
		c0.618-0.118,1.167-0.18,1.644-0.18c0.73-0.008,1.29,0.155,1.657,0.494c0.367,0.337,0.555,0.879,0.555,1.621v17.506H202.434
		L202.434,42.455z M164.268,27.542v6.914c0,1.672-0.445,2.926-1.341,3.774c-0.895,0.839-2.235,1.261-4.026,1.261
		c-1.786,0-3.126-0.422-4.022-1.261c-0.892-0.848-1.339-2.102-1.339-3.774v-6.914c0-1.673,0.447-2.929,1.339-3.773
		c0.896-0.839,2.237-1.264,4.022-1.264c1.791,0,3.132,0.425,4.026,1.264C163.823,24.612,164.268,25.869,164.268,27.542
		L164.268,27.542z M168.22,34.315v-6.633c0-1.21-0.165-2.332-0.516-3.374c-0.345-1.035-0.894-1.954-1.633-2.739
		c-0.746-0.782-1.709-1.385-2.895-1.833c-1.181-0.44-2.603-0.658-4.276-0.667c-1.661,0.01-3.088,0.227-4.272,0.667
		c-1.185,0.448-2.149,1.051-2.885,1.833c-0.747,0.785-1.295,1.704-1.639,2.739c-0.347,1.042-0.517,2.164-0.517,3.374v6.633
		c0,1.208,0.17,2.329,0.517,3.374c0.344,1.033,0.892,1.952,1.639,2.729c0.736,0.783,1.701,1.397,2.885,1.835
		c1.185,0.446,2.612,0.667,4.272,0.675c1.674-0.008,3.095-0.229,4.276-0.675c1.186-0.438,2.149-1.052,2.895-1.835
		c0.739-0.777,1.288-1.696,1.633-2.729C168.056,36.644,168.22,35.523,168.22,34.315L168.22,34.315z M147.066,42.455V11.117h-4.046
		v13.504h-13.88V11.117h-4.048v31.338h4.048v-14.21h13.88v14.21H147.066L147.066,42.455z"/><path fill-rule="evenodd" clip-rule="evenodd" d="M122.218,42.455V26.411c0.005-1.485-0.159-2.779-0.503-3.867
		c-0.336-1.097-0.894-1.954-1.663-2.558c-0.776-0.603-1.811-0.91-3.106-0.917c-0.887,0-1.859,0.095-2.912,0.267
		c-1.048,0.182-2.109,0.432-3.183,0.769c-1.066,0.331-2.086,0.721-3.035,1.179l-0.705-1.743h-5.038v22.915h6.779V27.306
		c0.493-0.277,1.049-0.538,1.654-0.786c0.611-0.25,1.207-0.455,1.79-0.61c0.578-0.166,1.082-0.245,1.498-0.251
		c0.579,0,1.004,0.148,1.26,0.429c0.262,0.293,0.394,0.692,0.385,1.219v15.149H122.218L122.218,42.455z M93.099,28.29h-5.926v-0.984
		c-0.009-0.543,0.084-1.029,0.282-1.467c0.195-0.44,0.516-0.794,0.972-1.052s1.073-0.392,1.851-0.401
		c0.778,0.009,1.37,0.143,1.781,0.401c0.406,0.258,0.688,0.612,0.832,1.052c0.148,0.438,0.22,0.924,0.208,1.467V28.29L93.099,28.29z
		 M99.5,33.375v-4.799c0.008-1.257-0.116-2.456-0.376-3.594c-0.258-1.137-0.728-2.141-1.396-3.035
		c-0.676-0.885-1.616-1.583-2.832-2.093c-1.215-0.511-2.771-0.779-4.666-0.786c-1.896,0.007-3.484,0.259-4.754,0.738
		c-1.271,0.487-2.283,1.152-3.02,1.999c-0.744,0.849-1.277,1.818-1.601,2.92c-0.312,1.105-0.468,2.274-0.464,3.52v5.365
		c-0.004,1.892,0.326,3.54,1.012,4.926c0.684,1.388,1.775,2.471,3.289,3.23c1.504,0.761,3.488,1.153,5.959,1.162
		c1.074-0.008,2.142-0.078,3.192-0.212c1.058-0.134,2.048-0.316,2.982-0.534c0.925-0.22,1.744-0.463,2.438-0.712l-0.99-5.083
		c-0.681,0.202-1.424,0.384-2.234,0.524c-0.807,0.15-1.613,0.267-2.431,0.345c-0.815,0.078-1.583,0.118-2.299,0.118
		c-1.026,0.007-1.842-0.087-2.452-0.281c-0.604-0.197-1.044-0.533-1.301-1.021c-0.269-0.486-0.393-1.168-0.384-2.039v-0.658H99.5
		L99.5,33.375z M71.042,35.257c-0.338,0.289-0.735,0.564-1.214,0.839c-0.479,0.273-0.982,0.492-1.523,0.674
		c-0.534,0.179-1.066,0.269-1.591,0.275c-0.888-0.006-1.514-0.236-1.898-0.689c-0.377-0.455-0.558-1.094-0.547-1.901v-6.917
		c0-0.51,0.075-0.956,0.232-1.341c0.164-0.383,0.424-0.688,0.785-0.909c0.359-0.218,0.831-0.335,1.428-0.335
		c0.479,0,0.973,0.03,1.49,0.084c0.519,0.047,1.018,0.12,1.505,0.206c0.496,0.086,0.934,0.179,1.333,0.273V35.257L71.042,35.257z
		 M57.491,34.455c0.007,2.801,0.634,4.92,1.875,6.339c1.237,1.42,3.034,2.134,5.374,2.134c0.838-0.008,1.7-0.132,2.58-0.369
		c0.876-0.234,1.708-0.526,2.492-0.878c0.777-0.354,1.442-0.705,1.984-1.058l0.707,1.832h5.317V9.235l-6.776,0.941v9.552
		c-0.524-0.127-1.123-0.243-1.779-0.338c-0.669-0.104-1.351-0.181-2.049-0.235c-0.703-0.055-1.371-0.087-2.007-0.087
		c-1.78,0.007-3.246,0.338-4.383,0.996c-1.135,0.661-1.983,1.618-2.525,2.872c-0.542,1.264-0.808,2.792-0.808,4.602V34.455
		L57.491,34.455z M54.914,42.455V9.235l-6.775,0.941v32.279H54.914L54.914,42.455z M35.21,37.233
		c-1.215-0.006-2.118-0.297-2.706-0.877c-0.588-0.592-0.879-1.421-0.873-2.512v-5.693c-0.006-1.089,0.285-1.922,0.873-2.511
		c0.588-0.58,1.49-0.87,2.706-0.878c1.223,0.009,2.125,0.298,2.704,0.878c0.589,0.589,0.88,1.421,0.874,2.511v5.693
		c0.006,1.091-0.285,1.92-0.874,2.512C37.335,36.937,36.433,37.227,35.21,37.233L35.21,37.233z M35.21,42.928
		c2.023-0.016,3.709-0.274,5.051-0.786c1.34-0.516,2.401-1.208,3.174-2.085c0.78-0.877,1.328-1.865,1.656-2.964
		c0.323-1.107,0.479-2.251,0.469-3.436v-5.319c0.01-1.192-0.146-2.329-0.469-3.436c-0.329-1.094-0.876-2.083-1.656-2.963
		c-0.773-0.877-1.834-1.568-3.174-2.084c-1.342-0.511-3.028-0.779-5.051-0.786c-2.023,0.007-3.71,0.275-5.05,0.786
		c-1.34,0.516-2.401,1.208-3.175,2.084c-0.779,0.88-1.328,1.869-1.656,2.963c-0.322,1.107-0.479,2.244-0.47,3.436v5.319
		c-0.008,1.185,0.148,2.329,0.47,3.436c0.328,1.099,0.877,2.087,1.656,2.964c0.774,0.877,1.835,1.569,3.175,2.085
		C31.5,42.653,33.187,42.912,35.21,42.928L35.21,42.928z M22.304,41.421V26.69H15.67v9.601c-0.606,0.079-1.13,0.132-1.586,0.181
		c-0.456,0.039-0.883,0.064-1.294,0.08c-0.414,0.014-0.845,0.022-1.311,0.022c-1.167-0.008-2.07-0.212-2.71-0.612
		c-0.644-0.401-1.1-0.94-1.35-1.615c-0.251-0.666-0.369-1.42-0.363-2.243V21.328c-0.006-0.824,0.112-1.554,0.363-2.195
		c0.25-0.645,0.706-1.155,1.35-1.524c0.641-0.369,1.544-0.556,2.71-0.564c0.574,0,1.241,0.015,2.003,0.055
		c0.768,0.04,1.567,0.094,2.414,0.165c0.84,0.063,1.67,0.14,2.494,0.234c0.824,0.094,1.577,0.189,2.266,0.3l0.851-6.166
		c-0.905-0.175-1.901-0.337-2.99-0.488c-1.084-0.147-2.231-0.265-3.421-0.361c-1.193-0.093-2.4-0.14-3.618-0.14
		c-2.54,0.008-4.666,0.407-6.368,1.199c-1.693,0.792-2.973,1.905-3.826,3.342C0.43,16.615,0,18.299,0,20.246v13.082
		c0,1.914,0.43,3.584,1.286,5.021c0.854,1.436,2.133,2.556,3.826,3.356c1.702,0.798,3.828,1.208,6.368,1.223
		c1.822,0,3.649-0.125,5.483-0.385C18.799,42.29,20.578,41.914,22.304,41.421L22.304,41.421z"/><g><g><path d="M277.499,11.931c-3.289,0-5.965-2.676-5.965-5.965c0-3.29,2.676-5.965,5.965-5.965c3.29,0,5.966,2.676,5.966,5.965
				C283.465,9.254,280.789,11.931,277.499,11.931z M277.499,0.632c-2.94,0-5.333,2.393-5.333,5.333c0,2.94,2.393,5.333,5.333,5.333
				c2.94,0,5.333-2.393,5.333-5.333C282.833,3.025,280.439,0.632,277.499,0.632z"/></g><g><path d="M275.187,8.716V2.834h2.607c0.525,0,0.923,0.052,1.195,0.159c0.273,0.106,0.491,0.292,0.654,0.56
				c0.163,0.268,0.245,0.563,0.245,0.886c0,0.417-0.136,0.77-0.405,1.056c-0.271,0.286-0.688,0.468-1.252,0.546
				c0.207,0.099,0.363,0.195,0.469,0.292c0.227,0.209,0.443,0.469,0.646,0.783l1.023,1.601h-0.979l-0.778-1.224
				c-0.227-0.353-0.414-0.623-0.561-0.81c-0.147-0.188-0.278-0.319-0.395-0.394c-0.117-0.075-0.235-0.127-0.356-0.157
				c-0.087-0.018-0.232-0.028-0.433-0.028h-0.903v2.613H275.187z M275.965,5.43h1.673c0.356,0,0.634-0.038,0.834-0.11
				c0.201-0.074,0.353-0.191,0.458-0.354c0.104-0.162,0.156-0.338,0.156-0.528c0-0.278-0.102-0.506-0.303-0.687
				c-0.202-0.178-0.521-0.268-0.957-0.268h-1.861V5.43z"/></g></g></g></svg>