<?xml version="1.0" encoding="utf-8"?><!DOCTYPE svg PUBLIC "-//W3C//DTD SVG 1.1//EN" "http://www.w3.org/Graphics/SVG/1.1/DTD/svg11.dtd"> <svg version="1.1" id="Слой_1" xmlns="http://www.w3.org/2000/svg" xmlns:xlink="http://www.w3.org/1999/xlink" x="0px" y="0px" viewBox="0 0 172.6 85.8" enable-background="new 0 0 172.6 85.8" xml:space="preserve" width="172.6" height="85.8"><g><path fill="#FFFFFF" d="M98.8,58.7c0.1,10.5,2.9,13.8,8.7,16.7c5.8-2.9,8.6-6.2,8.7-16.7c-1.5-0.1-6.1-0.7-8.7-2.7
		C105,57.9,100.3,58.5,98.8,58.7z M113.3,65.4c0,3.2-2.6,5.8-5.8,5.8c-3.2,0-5.8-2.6-5.8-5.8c0-3.2,2.6-5.8,5.8-5.8
		C110.7,59.5,113.3,62.2,113.3,65.4z"/><path fill="#FFFFFF" d="M102.7,65.4c0,2.6,2.1,4.8,4.8,4.8c2.6,0,4.8-2.1,4.8-4.8c0-2.6-2.1-4.8-4.8-4.8S102.7,62.7,102.7,65.4z
		 M110.3,66.4l-0.6,0.9l-2.6-1.6v-3.2h1.1v2.6L110.3,66.4z"/><path fill="#FFFFFF" d="M107.5,45.8C96.7,45.8,88,54.6,88,65.3c0,10.8,8.7,19.5,19.5,19.5S127,76.1,127,65.3
		C127,54.6,118.3,45.8,107.5,45.8z M117.2,58.2c0,11.5-3.2,15.2-9.5,18.2l-0.2,0.1l-0.2-0.1c-6.3-3.1-9.5-6.7-9.5-18.2v-0.5l0.5,0
		c0.1,0,6.3-0.4,8.9-2.8l0.4-0.3l0.4,0.3c2.6,2.3,8.8,2.7,8.9,2.8l0.5,0V58.2z"/></g><g><g><path fill="#FFFFFF" d="M21.5,4.1c9.6,0,17.5,7.8,17.5,17.5C39,31.2,31.1,39,21.5,39C11.9,39,4,31.2,4,21.5
			C4,11.9,11.9,4.1,21.5,4.1 M21.5,2.1C10.7,2.1,2,10.8,2,21.5S10.7,41,21.5,41C32.3,41,41,32.3,41,21.5S32.3,2.1,21.5,2.1L21.5,2.1
			z"/></g></g><g><g><path fill="#FFFFFF" d="M64.5,4.5C74.1,4.5,82,12.4,82,22c0,9.6-7.8,17.5-17.5,17.5S47,31.7,47,22S54.8,4.5,64.5,4.5 M64.5,2.5
			C53.7,2.5,45,11.2,45,22s8.7,19.5,19.5,19.5C75.3,41.5,84,32.8,84,22S75.3,2.5,64.5,2.5L64.5,2.5z"/></g><g><path fill="#FFFFFF" d="M60,14.5c0.1,0.1,0.3,0.2,0.4,0.2c0.1,0,0.3-0.1,0.4-0.2c0.2-0.2,0.2-0.6,0-0.8l-3-3
			c-0.2-0.2-0.6-0.2-0.8,0c-0.2,0.2-0.2,0.6,0,0.8L60,14.5z"/><path fill="#FFFFFF" d="M69,14.7c0.1,0,0.3-0.1,0.4-0.2l3-3c0.2-0.2,0.2-0.6,0-0.8c-0.2-0.2-0.6-0.2-0.8,0l-3,3
			c-0.2,0.2-0.2,0.6,0,0.8C68.7,14.7,68.9,14.7,69,14.7"/><path fill="#FFFFFF" d="M64.8,13.8c0.3,0,0.6-0.3,0.6-0.6v-4c0-0.3-0.3-0.6-0.6-0.6c-0.3,0-0.6,0.3-0.6,0.6v4
			C64.2,13.5,64.5,13.8,64.8,13.8"/><path fill="#FFFFFF" d="M74,28.8h-1.7v-6.3c0-4.1-3.4-7.4-7.5-7.4c-4.1,0-7.5,3.3-7.5,7.4v6.3h-1.7c-0.3,0-0.6,0.3-0.6,0.6
			c0,0.3,0.3,0.6,0.6,0.6H74c0.3,0,0.6-0.3,0.6-0.6C74.6,29.1,74.4,28.8,74,28.8 M71.1,28.9H58.4v-6.3c0-3.4,2.9-6.2,6.4-6.2
			c3.4,0,6.4,2.8,6.4,6.2L71.1,28.9L71.1,28.9z"/><path fill="#FFFFFF" d="M71.7,31.1H57.9c-0.3,0-0.6,0.3-0.6,0.6c0,0.3,0.3,0.6,0.6,0.6h13.9c0.3,0,0.6-0.3,0.6-0.6
			C72.3,31.4,72,31.1,71.7,31.1"/></g></g><g><path fill="#FFFFFF" d="M64.8,59.7c-3.4,0-6.4,2.8-6.4,6.2v6.3h12.7V66C71.1,62.6,68.2,59.7,64.8,59.7z"/><path fill="#FFFFFF" d="M64.5,45.8C53.7,45.8,45,54.6,45,65.3c0,10.8,8.7,19.5,19.5,19.5S84,76.1,84,65.3
		C84,54.6,75.2,45.8,64.5,45.8z M68.6,57l3-3c0.2-0.2,0.6-0.2,0.8,0c0.2,0.2,0.2,0.6,0,0.8l-3,3C69.3,57.9,69.1,58,69,58
		c-0.1,0-0.3-0.1-0.4-0.2C68.4,57.6,68.4,57.2,68.6,57z M64.2,52.4c0-0.3,0.3-0.6,0.6-0.6c0.3,0,0.6,0.3,0.6,0.6v4
		c0,0.3-0.3,0.6-0.6,0.6c-0.3,0-0.6-0.3-0.6-0.6V52.4z M57,54c0.2-0.2,0.6-0.2,0.8,0l3,3c0.2,0.2,0.2,0.6,0,0.8
		c-0.1,0.1-0.3,0.2-0.4,0.2c-0.1,0-0.3-0.1-0.4-0.2l-3-3C56.8,54.6,56.8,54.3,57,54z M71.7,75.6H57.9c-0.3,0-0.6-0.3-0.6-0.6
		c0-0.3,0.3-0.6,0.6-0.6h13.9c0.3,0,0.6,0.3,0.6,0.6C72.3,75.3,72,75.6,71.7,75.6z M74,73.2H55.5c-0.3,0-0.6-0.3-0.6-0.6
		c0-0.3,0.3-0.6,0.6-0.6h1.7v-6.3c0-4.1,3.4-7.4,7.5-7.4c4.1,0,7.5,3.3,7.5,7.4v6.3H74c0.3,0,0.6,0.3,0.6,0.6
		C74.6,73,74.4,73.2,74,73.2z"/></g><g><g><path fill="#FFFFFF" d="M107.5,4c9.6,0,17.5,7.8,17.5,17.5c0,9.6-7.8,17.5-17.5,17.5S90,31.1,90,21.5C90,11.9,97.9,4,107.5,4
			 M107.5,2C96.7,2,88,10.7,88,21.5S96.7,41,107.5,41S127,32.3,127,21.5S118.3,2,107.5,2L107.5,2z"/></g><g><g><path fill="#FFFFFF" d="M107.5,27.4c-3.2,0-5.8-2.6-5.8-5.8c0-3.2,2.6-5.8,5.8-5.8s5.8,2.6,5.8,5.8S110.7,27.4,107.5,27.4z
				 M107.5,16.8c-2.6,0-4.8,2.1-4.8,4.8s2.1,4.8,4.8,4.8c2.6,0,4.8-2.1,4.8-4.8C112.3,18.9,110.1,16.8,107.5,16.8z"/></g><g><path fill="#FFFFFF" d="M107.5,32.7l-0.2-0.1c-6.3-3.1-9.5-6.7-9.5-18.2v-0.5l0.5,0c0.1,0,6.3-0.4,8.9-2.8l0.4-0.3l0.4,0.3
				c2.6,2.3,8.8,2.7,8.9,2.8l0.5,0v0.5c0,11.5-3.2,15.2-9.5,18.2L107.5,32.7z M98.8,14.9c0.1,10.5,2.9,13.8,8.7,16.7
				c5.8-2.9,8.6-6.2,8.7-16.7c-1.5-0.1-6.1-0.7-8.7-2.7C105,14.1,100.3,14.7,98.8,14.9z"/></g><g><polygon fill="#FFFFFF" points="109.8,23.5 107.1,21.9 107.1,18.6 108.2,18.6 108.2,21.3 110.3,22.6 			"/></g></g></g><g><g><path fill="#FFFFFF" d="M150.5,4c9.6,0,17.5,7.8,17.5,17.5c0,9.6-7.9,17.5-17.5,17.5c-9.6,0-17.5-7.9-17.5-17.5
			C133,11.9,140.9,4,150.5,4 M150.5,2C139.7,2,131,10.7,131,21.5S139.7,41,150.5,41c10.8,0,19.5-8.7,19.5-19.5S161.3,2,150.5,2
			L150.5,2z"/></g><g><g><g><path fill="#FFFFFF" d="M154.4,22.8l-3.3-3.3l3.1-3.1c-0.2-0.7-0.2-1.3-0.1-1.9c0.2-0.6,0.5-1.2,1-1.7c1.1-1.1,2.8-1.5,4.3-1.1
					l1,0.3l-2.3,2.2l0.3,1.3l1.3,0.3l2.2-2.2l0.3,0.9c0.5,1.5,0.1,3.1-1.1,4.3c-0.5,0.5-1.1,0.9-1.8,1c-0.6,0.1-1.3,0.1-1.9-0.1
					L154.4,22.8z M152.8,19.5l1.6,1.6l2.8-2.8l0.4,0.1c0.5,0.2,1.1,0.3,1.6,0.2c0.4-0.1,0.9-0.3,1.2-0.7c0.5-0.5,0.9-1.3,0.9-2
					l-1.2,1.1l-2.6-0.7l-0.7-2.6l1.1-1.1c-0.7,0.1-1.4,0.4-1.9,0.9c-0.4,0.4-0.6,0.8-0.7,1.2c-0.1,0.5-0.1,1,0.1,1.6l0.1,0.4
					L152.8,19.5z"/></g><g><path fill="#FFFFFF" d="M143,33.5L143,33.5c-0.6,0-1.2-0.2-1.6-0.7c-0.4-0.4-0.7-1-0.7-1.6s0.2-1.2,0.7-1.6l4.4-4.7l3.3,3.3
					l-4.4,4.7C144.2,33.2,143.6,33.5,143,33.5z M145.8,26.5l-3.6,3.8c-0.2,0.2-0.3,0.5-0.3,0.8c0,0.3,0.1,0.6,0.3,0.8
					c0.2,0.2,0.5,0.3,0.8,0.3l0,0c0.3,0,0.6-0.1,0.8-0.3l3.6-3.8L145.8,26.5z"/></g></g><g><g><polygon fill="#FFFFFF" points="149.3,21.9 143.3,15.8 142.8,14.5 140.7,12.5 138.6,14.5 140.7,16.6 142.1,17 148.2,23 				"/></g><g><path fill="#FFFFFF" d="M157.1,33.2L157.1,33.2c-0.6,0-1.2-0.2-1.6-0.7l-8.8-8.8l3.3-3.3l8.8,8.8c0.4,0.4,0.7,1,0.7,1.6
					s-0.2,1.2-0.7,1.6C158.3,32.9,157.7,33.2,157.1,33.2z M148.3,23.7l8,8c0.2,0.2,0.5,0.3,0.8,0.3l0,0c0.3,0,0.6-0.1,0.8-0.3
					c0.2-0.2,0.3-0.5,0.3-0.8c0-0.3-0.1-0.6-0.3-0.8l-8-8L148.3,23.7z"/></g></g></g></g><g><path fill="#FFFFFF" d="M141.9,74.9c0,0.3,0.1,0.6,0.3,0.8c0.2,0.2,0.5,0.3,0.8,0.3s0.6-0.1,0.8-0.3l3.6-3.8l-1.6-1.6l-3.6,3.8
		C142,74.3,141.9,74.6,141.9,74.9z"/><path fill="#FFFFFF" d="M157.4,60.2l-0.7-2.6l1.1-1.1c-0.7,0.1-1.4,0.4-1.9,0.9c-0.4,0.4-0.6,0.8-0.7,1.2c-0.1,0.5-0.1,1,0.1,1.6
		l0.1,0.4l-2.8,2.8l1.6,1.6l2.8-2.8l0.4,0.1c0.5,0.2,1.1,0.3,1.6,0.2c0.4-0.1,0.9-0.3,1.2-0.7c0.5-0.5,0.9-1.3,0.9-2l-1.2,1.1
		L157.4,60.2z"/><path fill="#FFFFFF" d="M149.9,65.8l-1.6,1.6l8,8c0.2,0.2,0.5,0.3,0.8,0.3c0.3,0,0.6-0.1,0.8-0.3c0.2-0.2,0.3-0.5,0.3-0.8
		c0-0.3-0.1-0.6-0.3-0.8L149.9,65.8z"/><path fill="#FFFFFF" d="M150.5,45.8c-10.8,0-19.5,8.7-19.5,19.5s8.7,19.5,19.5,19.5S170,76.1,170,65.3
		C170,54.6,161.3,45.8,150.5,45.8z M144.7,76.6c-0.5,0.5-1,0.7-1.7,0.7s-1.2-0.2-1.6-0.7c-0.4-0.4-0.7-1-0.7-1.6
		c0-0.6,0.2-1.2,0.7-1.6l4.4-4.7l3.3,3.3L144.7,76.6z M158.8,76.3c-0.4,0.4-1,0.7-1.6,0.7h0c-0.6,0-1.2-0.2-1.6-0.7l-8.8-8.8
		l1.1-1.1l-5.7-5.5l-1.3-0.4l-2.1-2.1l2.1-2.1l2.1,2.1l0.5,1.3l5.6,5.6l1.1-1.1l8.8,8.8c0.4,0.4,0.7,1,0.7,1.6
		C159.4,75.2,159.2,75.8,158.8,76.3z M161.1,62.6c-0.5,0.5-1.1,0.9-1.8,1c-0.6,0.1-1.3,0.1-1.9-0.1l-3.1,3.1l-3.3-3.3l3.1-3.1
		c-0.2-0.7-0.2-1.3-0.1-1.9c0.2-0.6,0.5-1.2,1-1.7c1.1-1.1,2.8-1.5,4.3-1.1l1,0.3l-2.3,2.2l0.3,1.3l1.3,0.3l2.2-2.2l0.3,0.9
		C162.6,59.9,162.2,61.5,161.1,62.6z"/></g><g><path fill="#FFFFFF" d="M23.6,22.6l-1.8-1.8l1.7-1.7c-0.1-0.4-0.1-0.7,0-1.1c0.1-0.3,0.3-0.7,0.5-0.9c0.6-0.6,1.5-0.8,2.3-0.6
		l0.5,0.2l-1.2,1.2l0.2,0.7l0.7,0.2l1.2-1.2l0.2,0.5c0.2,0.8,0,1.7-0.6,2.3c-0.3,0.3-0.6,0.5-1,0.5c-0.3,0.1-0.7,0.1-1,0L23.6,22.6z
		 M23,20.8l0.6,0.6L25,20l0.3,0.2c0.3,0.1,0.6,0.1,0.8,0.1c0.2-0.1,0.5-0.2,0.7-0.4c0.3-0.3,0.5-0.7,0.5-1.1l-0.8,0.8l-1.4-0.4
		l-0.4-1.4l0.8-0.7c-0.4,0-0.8,0.2-1.1,0.5c-0.2,0.2-0.3,0.4-0.4,0.6c-0.1,0.3,0,0.6,0.1,0.9l0.2,0.3L23,20.8z"/><path fill="#FFFFFF" d="M17.4,28.4L17.4,28.4c-0.3,0-0.7-0.1-0.9-0.4c-0.2-0.2-0.4-0.6-0.4-0.9c0-0.3,0.1-0.7,0.4-0.9l2.4-2.5
		l1.8,1.8L18.3,28C18.1,28.2,17.8,28.4,17.4,28.4 M19.1,24.7l-2,2.1c-0.1,0.1-0.2,0.3-0.2,0.4c0,0.2,0.1,0.3,0.1,0.3
		s0.1,0.1,0.3,0.1c0.2,0,0.3-0.1,0.4-0.2l2-2.1L19.1,24.7z"/><polygon fill="#FFFFFF" points="20.9,22.1 17.6,18.8 17.3,18.1 16.2,17 15.1,18.1 16.2,19.2 16.9,19.5 20.2,22.7 	"/><path fill="#FFFFFF" d="M25.1,28.2L25.1,28.2c-0.3,0-0.7-0.1-0.9-0.4L19.4,23l1.8-1.8L26,26c0.2,0.2,0.4,0.6,0.4,0.9
		c0,0.3-0.1,0.7-0.4,0.9C25.7,28.1,25.4,28.2,25.1,28.2 M20.4,22.9l4.3,4.3c0.1,0.1,0.3,0.2,0.4,0.2c0.2,0,0.3-0.1,0.3-0.1
		s0.1-0.1,0.1-0.3c0-0.2-0.1-0.3-0.2-0.4l-4.3-4.3L20.4,22.9z"/><path fill="#FFFFFF" d="M31.2,14.1h-5.7v-1.4c0-1-0.8-1.8-1.8-1.8h-4.4c-1,0-1.8,0.8-1.8,1.8v1.4h-5.7c-1.3,0-2.3,1-2.3,2.3V29
		c0,1.3,1,2.3,2.3,2.3h19.4c1.3,0,2.3-1,2.3-2.3V16.4C33.5,15.1,32.5,14.1,31.2,14.1 M19.3,11.9h4.4c0.5,0,0.8,0.4,0.8,0.8v1.4h-6
		v-1.4C18.5,12.2,18.9,11.9,19.3,11.9 M32.2,28.9c0,0.7-0.6,1.2-1.2,1.2H12.1c-0.7,0-1.2-0.6-1.2-1.3l0-12.3c0-0.7,0.6-1.3,1.3-1.3
		h5.8h7h6.1c0.7,0,1.2,0.6,1.2,1.2L32.2,28.9L32.2,28.9z"/></g><g><path fill="#FFFFFF" d="M25.1,63.5l-0.4-1.4l0.8-0.7c-0.4,0-0.8,0.2-1.1,0.5c-0.2,0.2-0.3,0.4-0.4,0.6c-0.1,0.3,0,0.6,0.1,0.9
		l0.2,0.3L23,65l0.6,0.6l1.3-1.3l0.3,0.2c0.3,0.1,0.6,0.1,0.8,0.1c0.2-0.1,0.5-0.2,0.7-0.4c0.3-0.3,0.5-0.7,0.5-1.1l-0.8,0.8
		L25.1,63.5z"/><path fill="#FFFFFF" d="M16.9,71.5c0,0.2,0.1,0.3,0.1,0.3s0.1,0.1,0.3,0.1c0.2,0,0.3-0.1,0.4-0.2l2-2.1l-0.7-0.7l-2,2.1
		C17,71.1,16.9,71.3,16.9,71.5z"/><path fill="#FFFFFF" d="M21.5,45.8C10.7,45.8,2,54.5,2,65.3c0,10.8,8.7,19.5,19.5,19.5c10.8,0,19.5-8.7,19.5-19.5
		C41,54.5,32.3,45.8,21.5,45.8z M34,73.2c0,1.3-1.5,1.8-2.8,1.8H11.8c-1.3,0-1.8-0.5-1.8-1.8V60.6c0-1.3,0.5-2.6,1.8-2.6H18v-1.1
		c0-1,0.3-1.9,1.3-1.9h4.4c1,0,2.3,0.9,2.3,1.9V58h5.2c1.3,0,2.8,1.4,2.8,2.6V73.2z"/><path fill="#FFFFFF" d="M21.1,66.5l-0.7,0.7l4.3,4.3c0.1,0.1,0.3,0.2,0.4,0.2c0.2,0,0.3-0.1,0.3-0.1s0.1-0.1,0.1-0.3
		c0-0.2-0.1-0.3-0.2-0.4L21.1,66.5z"/><path fill="#FFFFFF" d="M25,57c0-0.5-0.9-1-1.3-1h-4.4c-0.4,0-0.3,0.5-0.3,1v1h6V57z"/><path fill="#FFFFFF" d="M30.9,59h-6.1h-7h-5.8c-0.7,0-1.3,0.8-1.3,1.5l0,12.3c0,0.7,0.5,1.2,1.2,1.2H31c0.7,0,1.2-0.4,1.2-1.1
		l0-12.6C32.2,59.7,31.6,59,30.9,59z M18.3,72.2c-0.2,0.2-0.6,0.4-0.9,0.4s-0.7-0.1-0.9-0.4c-0.2-0.2-0.4-0.6-0.4-0.9
		c0-0.3,0.1-0.7,0.4-0.9l2.4-2.5l1.8,1.8L18.3,72.2z M26,72.1c-0.2,0.2-0.6,0.4-0.9,0.4h0c-0.3,0-0.7-0.1-0.9-0.4l-4.8-4.8l0.6-0.6
		l-3.1-3l-0.7-0.2l-1.1-1.1l1.1-1.1l1.1,1.1l0.2,0.7l3,3l0.6-0.6l4.8,4.8c0.2,0.2,0.4,0.6,0.4,0.9C26.3,71.5,26.2,71.8,26,72.1z
		 M27.3,64.7c-0.3,0.3-0.6,0.5-1,0.5c-0.3,0.1-0.7,0.1-1,0l-1.7,1.7l-1.8-1.8l1.7-1.7c-0.1-0.4-0.1-0.7,0-1.1
		c0.1-0.3,0.3-0.7,0.5-0.9c0.6-0.6,1.5-0.8,2.3-0.6l0.5,0.2l-1.2,1.2l0.2,0.7l0.7,0.2l1.2-1.2l0.2,0.5
		C28.1,63.2,27.9,64.1,27.3,64.7z"/></g></svg>