<?xml version="1.0" standalone="no"?>
<!DOCTYPE svg PUBLIC "-//W3C//DTD SVG 1.1//EN" "http://www.w3.org/Graphics/SVG/1.1/DTD/svg11.dtd" >
<svg xmlns="http://www.w3.org/2000/svg">
<metadata></metadata>
<defs>
<font id="goodcyr-blackregular" horiz-adv-x="1124" >
<font-face units-per-em="2048" ascent="1536" descent="-512" />
<missing-glyph horiz-adv-x="368" />
<glyph horiz-adv-x="2048" />
<glyph horiz-adv-x="2048" />
<glyph unicode="&#xd;" horiz-adv-x="2048" />
<glyph unicode=" "  horiz-adv-x="368" />
<glyph unicode="&#x09;" horiz-adv-x="368" />
<glyph unicode="&#xa0;" horiz-adv-x="368" />
<glyph unicode="!" horiz-adv-x="540" d="M100 944v541h334v-529l-28 -471h-275zM109 0v342h321v-342h-321z" />
<glyph unicode="&#x22;" horiz-adv-x="825" d="M96 1163v322h271v-322l-74 -215h-133zM440 1163v322h271v-322l-74 -215h-133z" />
<glyph unicode="#" d="M78 385v225h155l17 267h-172v225h178l29 383h233l-29 -383h177l30 383h232l-29 -383h150v-225h-154l-16 -267h170v-225h-177l-28 -385h-234l29 385h-178l-29 -385h-231l28 385h-151zM467 610h178l17 267h-179z" />
<glyph unicode="$" d="M59 350l244 90q36 -107 137 -157l29 325q-66 29 -114.5 54.5t-105 67.5t-92 88t-59.5 112.5t-24 144.5q0 172 113.5 291.5t308.5 136.5l32 191h199l4 -215q237 -80 316 -334l-228 -82q-37 100 -112 137l-29 -313q53 -25 92 -45.5t86.5 -51.5t80 -65t62 -77t44 -97.5 t14.5 -116.5q0 -185 -106.5 -303t-293.5 -143l-30 -201h-201l-4 207q-281 59 -363 356zM379 1116q0 -42 26.5 -75t79.5 -64l2 246q-108 -21 -108 -107zM657 260q117 21 117 119q0 44 -29 76t-86 65z" />
<glyph unicode="%" horiz-adv-x="1308" d="M45 1110v72q0 151 75 237t216 86q139 0 215 -86t76 -237v-72q0 -153 -75.5 -236t-215.5 -83q-142 0 -216.5 83t-74.5 236zM115 0l841 1481h238l-844 -1481h-235zM270 1112q0 -70 14.5 -94.5t51.5 -24.5q36 0 50.5 24.5t14.5 94.5v66q0 65 -14.5 88.5t-50.5 23.5t-51 -24 t-15 -88v-66zM686 291v71q0 152 74.5 238t218.5 86q139 0 215 -86.5t76 -237.5v-71q0 -153 -75.5 -236.5t-215.5 -83.5q-145 0 -219 83t-74 237zM913 293q0 -68 15 -93.5t51 -25.5t49.5 25.5t13.5 93.5v65q0 66 -13.5 89.5t-49.5 23.5t-51 -23.5t-15 -89.5v-65z" />
<glyph unicode="&#x26;" horiz-adv-x="1134" d="M27 401q0 137 55 233t162 140v4q-150 95 -150 307q0 179 120.5 299.5t328.5 120.5q351 0 450 -348l-268 -80q-26 89 -61.5 121.5t-100.5 32.5q-131 0 -131 -168q0 -99 45 -137.5t139 -38.5h97l6 76l299 57v-133h86v-264h-86v-361q0 -53 45 -53h41v-211h-168 q-112 0 -195 104q-63 -63 -138 -92.5t-187 -29.5q-173 0 -281 108t-108 313zM377 436q0 -91 38.5 -130.5t119.5 -39.5q85 0 153 74v283h-106q-110 0 -157.5 -42t-47.5 -145z" />
<glyph unicode="'" horiz-adv-x="434" d="M82 1163v322h270v-322l-73 -215h-134z" />
<glyph unicode="(" horiz-adv-x="610" d="M100 324v714q0 327 110.5 482t362.5 155h60v-233h-60q-194 0 -194 -404v-714q0 -404 194 -404h60v-233h-60q-252 0 -362.5 153.5t-110.5 483.5z" />
<glyph unicode=")" horiz-adv-x="610" d="M-20 -80h59q192 0 192 404v714q0 404 -192 404h-59v233h59q249 0 360 -155t111 -482v-714q0 -329 -110 -483t-361 -154h-59v233z" />
<glyph unicode="*" horiz-adv-x="665" d="M29 1321l57 186l172 -84h4l-24 199h182l-27 -199h4l172 84l58 -186l-191 -35v-4l133 -141l-147 -115l-92 170h-4l-93 -168l-147 115l133 139v4z" />
<glyph unicode="+" horiz-adv-x="931" d="M70 516v242h276v329h238v-329h280v-242h-280v-334h-238v334h-276z" />
<glyph unicode="," horiz-adv-x="456" d="M68 0v309h321v-221q0 -368 -311 -381l-8 148q65 6 90.5 39t27.5 106h-120z" />
<glyph unicode="-" horiz-adv-x="600" d="M66 457v286h469v-286h-469z" />
<glyph unicode="." horiz-adv-x="456" d="M68 0v342h321v-342h-321z" />
<glyph unicode="/" horiz-adv-x="684" d="M-55 -174l540 1690h240l-539 -1690h-241z" />
<glyph unicode="0" d="M70 512v459q0 248 128 391t365 143q235 0 363.5 -143t128.5 -389v-461q0 -246 -128.5 -389t-363.5 -143q-237 0 -365 143t-128 389zM412 512q0 -132 34 -182.5t117 -50.5q80 0 115 51.5t35 181.5v461q0 124 -35 172.5t-115 48.5q-83 0 -117 -48t-34 -173v-461z" />
<glyph unicode="1" d="M188 973v248h138q128 0 173 51.5t70 220.5h293v-1292h195v-201h-764v201h203v772h-308z" />
<glyph unicode="2" d="M78 1085q25 91 68 165.5t104.5 132.5t146.5 90t187 32q96 0 174 -22.5t131.5 -61.5t90 -92.5t53 -114t16.5 -127.5q0 -101 -27.5 -185t-72.5 -142t-100 -107t-114 -90t-110.5 -80.5t-92.5 -89.5t-57 -106h567v-287h-948l-4 150q3 96 38.5 186t89 159.5t117.5 134 t127.5 120t116 107.5t85 107t32.5 107q0 68 -33.5 100.5t-109.5 32.5q-73 0 -127 -54t-78 -157z" />
<glyph unicode="3" d="M70 338l258 94q58 -168 211 -168q81 0 118 48.5t37 146.5q0 90 -41 127t-131 37h-123v264h117q83 0 122.5 39t39.5 125q0 84 -32.5 121.5t-104.5 37.5q-80 0 -126 -38.5t-75 -133.5l-260 92q46 173 173 274t322 101q116 0 206 -33.5t144.5 -91t82.5 -128.5t28 -152 q0 -251 -184 -328v-4q209 -65 209 -332q0 -225 -133 -340.5t-365 -115.5q-200 0 -322 87.5t-171 270.5z" />
<glyph unicode="4" d="M39 262v238l596 985h346v-944h141l-20 -279h-121v-262h-319v262h-623zM391 541h275l14 536h-4z" />
<glyph unicode="5" d="M66 338l264 94q51 -166 190 -166q94 0 128 52t34 178q0 97 -42 137.5t-136 40.5q-101 0 -178 -51l-217 100l55 762h835l-24 -311h-533l-14 -250q103 41 213 41q204 0 306 -122t102 -343q0 -520 -508 -520q-185 0 -308.5 89.5t-166.5 268.5z" />
<glyph unicode="6" d="M82 492v454q0 159 62 286.5t179 201t269 73.5q166 0 284 -89t166 -263l-241 -100q-28 84 -72.5 118.5t-114.5 34.5q-190 0 -190 -215v-108h4q92 63 236 63q204 0 301.5 -113.5t97.5 -324.5q0 -266 -128 -398t-366 -132q-236 0 -361.5 137.5t-125.5 374.5zM424 446 q0 -79 39.5 -121t116.5 -42q74 0 106.5 47.5t32.5 167.5q0 92 -31.5 130t-105.5 38q-158 0 -158 -86v-134z" />
<glyph unicode="7" d="M47 1176v309h1026v-279l-502 -1206h-385l508 1176h-647z" />
<glyph unicode="8" d="M57 446q0 249 187 340v5q-150 83 -150 309q0 185 113 295t354 110t354 -110t113 -295q0 -226 -149 -309v-5q186 -91 186 -340q0 -466 -504 -466t-504 466zM403 463q0 -111 38 -153t120 -42q81 0 119.5 41.5t38.5 153.5q0 100 -35.5 137t-122.5 37t-122.5 -37t-35.5 -137z M418 1063q0 -102 31.5 -137t111.5 -35q82 0 114 35.5t32 136.5q0 91 -33.5 126.5t-112.5 35.5t-111 -35.5t-32 -126.5z" />
<glyph unicode="9" d="M61 999q0 247 128 377.5t370 130.5q120 0 214 -37.5t152.5 -104t88.5 -152t30 -185.5v-530q0 -240 -135 -379t-372 -139q-356 0 -461 335l225 125q35 -92 85 -131t132 -39q97 0 140.5 49.5t43.5 155.5v141h-4q-81 -63 -221 -63q-196 0 -306 110.5t-110 335.5zM408 1014 q0 -105 32 -145t107 -40q64 0 109.5 24t45.5 79v115q0 89 -34.5 123t-114.5 34q-78 0 -111.5 -43t-33.5 -147z" />
<glyph unicode=":" horiz-adv-x="456" d="M68 0v342h321v-342h-321zM68 670v342h321v-342h-321z" />
<glyph unicode=";" horiz-adv-x="456" d="M68 0v309h321v-221q0 -368 -311 -381l-8 148q65 6 90.5 39t27.5 106h-120zM68 670v342h321v-342h-321z" />
<glyph unicode="&#x3c;" horiz-adv-x="931" d="M86 635v29l725 485v-320l-293 -180l293 -180v-317z" />
<glyph unicode="=" horiz-adv-x="931" d="M115 311v244h702v-244h-702zM115 678v242h702v-242h-702z" />
<glyph unicode="&#x3e;" horiz-adv-x="931" d="M121 152v317l293 180l-293 180v320l727 -485v-29z" />
<glyph unicode="?" horiz-adv-x="1050" d="M27 1130q60 173 189.5 274t322.5 101q119 0 210.5 -32t145.5 -87t81.5 -123t27.5 -145q0 -164 -87.5 -296t-265.5 -214l-14 -129h-252l-20 283q301 102 301 323q0 136 -150 136q-82 0 -137 -41t-86 -133zM346 0v342h322v-342h-322z" />
<glyph unicode="@" horiz-adv-x="1599" d="M68 389v410q0 146 50.5 275.5t144 228t240 156t326.5 57.5q141 0 257.5 -34t198 -94t138 -143t83 -179t26.5 -204v-235q0 -244 -104.5 -368t-274.5 -124q-157 0 -229 84q-100 -92 -250 -92q-136 0 -207.5 90t-71.5 244q0 278 134 435t382 157h265l-15 -205h-39l-24 -338 q0 -5 -1 -26t-1 -25q0 -46 17 -65t54 -19q42 0 69 18t45.5 75t18.5 157v237q0 208 -113.5 315t-357.5 107q-126 0 -226.5 -38t-164 -104.5t-96.5 -153.5t-33 -189v-408q0 -239 141.5 -367t385.5 -128q164 0 265.5 39t196.5 126l179 -124q-133 -136 -289 -201.5t-357 -65.5 q-366 0 -564.5 190t-198.5 529zM688 475q0 -64 15 -87t47 -23q53 0 77 47l25 399h-10q-154 0 -154 -336z" />
<glyph unicode="A" horiz-adv-x="1265" d="M4 0l416 1485h426l416 -1485h-379l-64 281h-379l-61 -281h-375zM502 553h256l-127 567h-4z" />
<glyph unicode="B" horiz-adv-x="1204" d="M115 0v1485h491q127 0 222.5 -30.5t152 -85.5t84 -124.5t27.5 -154.5q0 -121 -41 -199t-136 -119v-4q236 -70 236 -336q0 -102 -24.5 -178.5t-79.5 -135t-150 -88.5t-229 -30h-553zM479 301h168q75 0 105 34t30 124q0 94 -29 125.5t-106 31.5h-168v-315zM479 885h142 q74 0 102.5 34t28.5 117q0 82 -28 111t-106 29h-139v-291z" />
<glyph unicode="C" horiz-adv-x="1073" d="M72 459v534q0 237 136.5 374.5t364.5 137.5q179 0 306.5 -102t160.5 -258l-270 -98q-35 151 -162 151q-84 0 -121.5 -51t-37.5 -154v-532q0 -94 36.5 -140.5t120.5 -46.5q67 0 105 37t57 121l274 -92q-76 -360 -471 -360q-228 0 -363.5 130t-135.5 349z" />
<glyph unicode="D" horiz-adv-x="1271" d="M115 0v1485h540q256 0 400.5 -145t144.5 -392v-407q0 -250 -144.5 -395.5t-400.5 -145.5h-540zM489 303h166q93 0 132.5 53.5t39.5 194.5v379q0 136 -39.5 188.5t-132.5 52.5h-166v-868z" />
<glyph unicode="E" horiz-adv-x="1062" d="M115 0v1485h878v-320h-504v-266h367v-278h-367v-306h521v-315h-895z" />
<glyph unicode="F" horiz-adv-x="1058" d="M115 0v1485h891v-320h-517v-297h443v-295h-443v-573h-374z" />
<glyph unicode="G" horiz-adv-x="1220" d="M72 516v428q0 262 140 411.5t415 149.5q197 0 331 -96t175 -266l-271 -96q-34 83 -83 117t-120 34q-113 0 -164 -60.5t-51 -195.5v-420q0 -233 207 -233q54 0 91 18t69 60v180h-143v239h465v-786h-299v78h-5q-116 -98 -282 -98q-218 0 -346.5 135t-128.5 401z" />
<glyph unicode="H" horiz-adv-x="1282" d="M115 0v1485h374v-567h306v567h372v-1485h-372v592h-306v-592h-374z" />
<glyph unicode="I" horiz-adv-x="632" d="M129 0v1485h373v-1485h-373z" />
<glyph unicode="J" horiz-adv-x="647" d="M-80 12q128 0 184 58t56 204v1211h372v-1204q0 -267 -147 -411.5t-434 -150.5z" />
<glyph unicode="K" horiz-adv-x="1249" d="M115 0v1485h368v-629h4l322 629h418l-420 -654l448 -831h-407l-279 571h-4l-82 -129v-442h-368z" />
<glyph unicode="L" horiz-adv-x="985" d="M115 0v1485h360v-1159h473v-326h-833z" />
<glyph unicode="M" horiz-adv-x="1640" d="M115 0v1485h354l348 -805h4l350 805h355v-1485h-340v772h-4l-281 -567h-164l-280 567h-4v-772h-338z" />
<glyph unicode="N" horiz-adv-x="1282" d="M115 0v1485h274l447 -737h4v737h327v-1485h-258l-463 772h-4v-772h-327z" />
<glyph unicode="O" horiz-adv-x="1226" d="M72 514v457q0 247 140 390.5t400 143.5t401.5 -143.5t141.5 -390.5v-457q0 -247 -141.5 -390.5t-401.5 -143.5t-400 143.5t-140 390.5zM444 514q0 -132 38 -185t130 -53q93 0 131.5 53t38.5 185v457q0 126 -38.5 176.5t-131.5 50.5q-90 0 -129 -51t-39 -176v-457z" />
<glyph unicode="P" horiz-adv-x="1183" d="M115 0v1485h542q227 0 353.5 -135t126.5 -371q0 -235 -119 -367.5t-334 -132.5h-195v-479h-374zM489 762h154q66 0 93.5 48.5t27.5 164.5t-27 160.5t-94 44.5h-154v-418z" />
<glyph unicode="Q" horiz-adv-x="1226" d="M72 514v457q0 247 140 390.5t400 143.5t401.5 -143.5t141.5 -390.5v-457q0 -178 -73 -302.5t-214 -184.5l236 -211l-318 -135l-231 301q-231 17 -357 159t-126 373zM444 514q0 -132 38 -185t130 -53q93 0 131.5 53t38.5 185v457q0 126 -38.5 176.5t-131.5 50.5 q-90 0 -129 -51t-39 -176v-457z" />
<glyph unicode="R" horiz-adv-x="1200" d="M115 0v1485h510q255 0 376 -119t121 -330q0 -142 -53 -243t-156 -150l281 -643h-397l-211 555h-97v-555h-374zM489 831h132q76 0 103.5 41.5t27.5 137.5q0 102 -29.5 138t-108.5 36h-125v-353z" />
<glyph unicode="S" horiz-adv-x="1054" d="M27 348l276 94q29 -85 92.5 -129.5t132.5 -44.5q76 0 109 26t33 81q0 50 -34.5 93t-89.5 76t-121 67.5t-132.5 77t-121.5 94t-89.5 129t-34.5 171.5q0 181 126 301.5t333 120.5q364 0 500 -340l-252 -112q-57 159 -203 159q-71 0 -103 -25.5t-32 -80.5q0 -40 33 -76 t86.5 -66.5t117.5 -63.5t128 -77t117.5 -96.5t86.5 -132t33 -174.5q0 -207 -131 -323.5t-355 -116.5q-179 0 -322.5 101t-182.5 267z" />
<glyph unicode="T" horiz-adv-x="1044" d="M23 1163v322h999v-322h-313v-1163h-373v1163h-313z" />
<glyph unicode="U" horiz-adv-x="1271" d="M94 494v991h373v-993q0 -92 44.5 -138.5t125.5 -46.5q86 0 127 44.5t41 140.5v993h373v-973q0 -249 -141.5 -390.5t-399.5 -141.5t-400.5 135.5t-142.5 378.5z" />
<glyph unicode="V" horiz-adv-x="1284" d="M-2 1485h410l233 -1028h4l229 1028h412l-450 -1485h-390z" />
<glyph unicode="W" horiz-adv-x="1933" d="M20 1485h371l189 -1034h4l213 1034h344l211 -1043h4l190 1043h369l-356 -1485h-398l-188 891h-4l-195 -891h-399z" />
<glyph unicode="X" horiz-adv-x="1234" d="M12 0l363 760l-355 725h404l192 -500h5l190 500h401l-352 -740l363 -745h-402l-207 514h-4l-196 -514h-402z" />
<glyph unicode="Y" horiz-adv-x="1234" d="M-2 1485h412l206 -674h5l204 674h412l-432 -1055v-430h-373v430z" />
<glyph unicode="Z" horiz-adv-x="1103" d="M72 0v217l540 950h-520v318h938v-219l-532 -949h528v-317h-954z" />
<glyph unicode="[" horiz-adv-x="598" d="M123 -313v1988h549v-233h-250v-1522h250v-233h-549z" />
<glyph unicode="\" horiz-adv-x="704" d="M-63 1516h241l541 -1690h-242z" />
<glyph unicode="]" horiz-adv-x="608" d="M-76 -76h252v1514h-252v237h561v-1988h-561v237z" />
<glyph unicode="^" horiz-adv-x="927" d="M70 1079l274 447h242l274 -447h-256l-139 242l-139 -242h-256z" />
<glyph unicode="_" horiz-adv-x="894" d="M0 -84h895v-223h-895v223z" />
<glyph unicode="`" horiz-adv-x="575" d="M-29 1485h355l104 -301h-242z" />
<glyph unicode="a" horiz-adv-x="972" d="M47 283q0 70 22 128.5t70.5 109t138.5 79.5t214 29h45v82q0 64 -24.5 87t-78.5 23q-95 0 -149 -121l-203 105q118 266 405 266q195 0 288 -100t93 -260v-459q0 -53 56 -53h26v-187q-81 -24 -147 -24q-139 0 -205 80q-103 -86 -254 -86q-138 0 -217.5 83.5t-79.5 217.5z M365 311q0 -62 18.5 -85t54.5 -23q59 0 99 43v170h-45q-69 0 -98 -26.5t-29 -78.5z" />
<glyph unicode="b" horiz-adv-x="1046" d="M94 0v1526h334v-537h4q88 82 240 82t234.5 -109t82.5 -311v-250q0 -200 -87.5 -307.5t-256.5 -107.5q-147 0 -244 90h-4l-10 -76h-293zM430 297q41 -53 113 -53q58 0 85 34t27 123v242q0 86 -24.5 120t-79.5 34q-80 0 -121 -58v-442z" />
<glyph unicode="c" horiz-adv-x="892" d="M57 373v305q0 78 27 148t78 125t132.5 87.5t182.5 32.5q141 0 243 -72.5t144 -207.5l-233 -86q-18 59 -46.5 82.5t-72.5 23.5q-59 0 -89 -32t-30 -117v-273q0 -88 28.5 -123t90.5 -35q47 0 75.5 25.5t47.5 85.5l235 -84q-101 -276 -393 -276q-103 0 -185 33t-132.5 88.5 t-76.5 124.5t-26 145z" />
<glyph unicode="d" horiz-adv-x="1048" d="M57 397v250q0 200 88.5 309t257.5 109q128 0 211 -66h4v527h334v-1526h-297l-10 78h-4q-98 -98 -262 -98q-152 0 -237 109.5t-85 307.5zM393 395q0 -83 25 -118t78 -35q80 0 122 59v442q-42 54 -114 54q-57 0 -84 -35.5t-27 -124.5v-242z" />
<glyph unicode="e" horiz-adv-x="956" d="M57 377v301q0 78 27 148t79 125t136 87.5t190 32.5q98 0 178 -32.5t131 -88.5t78 -129t27 -157v-205h-510v-68q0 -85 32.5 -123.5t102.5 -38.5q54 0 86.5 27t57.5 90l235 -86q-48 -143 -148 -210.5t-270 -67.5q-203 0 -317.5 111.5t-114.5 283.5zM393 643h217v57 q0 68 -26.5 97.5t-81.5 29.5q-59 0 -84 -29.5t-25 -97.5v-57z" />
<glyph unicode="f" horiz-adv-x="647" d="M23 807v242h94v57q0 82 26 149.5t82 122t152.5 86t228.5 33.5l15 -233q-104 -4 -144.5 -44t-40.5 -120v-51h189v-242h-172v-807h-336v807h-94z" />
<glyph unicode="g" horiz-adv-x="972" d="M47 236q0 117 127 188q-102 88 -102 276q0 373 401 373q124 0 217 -35q69 43 107 115l147 -63q-13 -133 -88 -205q35 -81 35 -187q0 -360 -416 -360q-79 0 -141 12q-25 -16 -25 -33q0 -20 16.5 -27t63.5 -7h191q364 0 364 -287q0 -176 -119.5 -267t-343.5 -91 q-114 0 -196.5 21t-127.5 58.5t-65 81.5t-20 97q0 101 63 170q-88 69 -88 170zM344 -59q0 -45 33 -63.5t123 -18.5q92 0 123.5 21t31.5 63t-18.5 54.5t-79.5 12.5h-197q-16 -22 -16 -69zM383 696q0 -89 18.5 -113t75.5 -24q39 0 57.5 8.5t28.5 38t10 90.5q0 91 -19 116.5 t-77 25.5q-57 0 -75.5 -26t-18.5 -116z" />
<glyph unicode="h" horiz-adv-x="1060" d="M94 0v1526h334v-539h4q90 84 240 84q154 0 235.5 -108.5t81.5 -311.5v-651h-334v643q0 85 -25.5 119.5t-78.5 34.5q-80 0 -121 -58v-739h-336z" />
<glyph unicode="i" horiz-adv-x="542" d="M104 0v1051h334v-1051h-334zM119 1200v285h303v-285h-303z" />
<glyph unicode="j" horiz-adv-x="561" d="M-8 -86q69 8 99 47.5t30 134.5v955h334v-953q0 -212 -108 -320t-335 -118zM135 1200v285h303v-285h-303z" />
<glyph unicode="k" horiz-adv-x="1085" d="M94 0v1526h336v-926h4l281 451h348l-315 -455l331 -596h-364l-189 377l-96 -109v-268h-336z" />
<glyph unicode="l" horiz-adv-x="552" d="M111 0v1526h333v-1526h-333z" />
<glyph unicode="m" horiz-adv-x="1544" d="M90 0v1051h297v-93h4q94 113 250 113q157 0 233 -131q115 131 281 131q157 0 237.5 -101.5t80.5 -318.5v-651h-334v649q0 78 -22.5 113t-72.5 35q-96 0 -96 -148v-649h-334v649q0 81 -22 114.5t-66 33.5q-64 0 -102 -68v-729h-334z" />
<glyph unicode="n" horiz-adv-x="1056" d="M90 0v1051h297l6 -84h4q98 104 262 104q156 0 241 -109t85 -311v-651h-334v643q0 85 -25.5 119.5t-78.5 34.5q-78 0 -123 -60v-737h-334z" />
<glyph unicode="o" horiz-adv-x="1017" d="M57 373v303q0 79 28.5 149t83 125.5t142 88t197.5 32.5q113 0 201 -31t142 -86t82 -125.5t28 -152.5v-303q0 -80 -28.5 -150t-83.5 -124.5t-143 -86.5t-198 -32t-197.5 31.5t-142 86t-83 125t-28.5 150.5zM393 389q0 -85 29 -122.5t86 -37.5q62 0 90.5 37t28.5 123v273 q0 85 -28.5 122t-90.5 37q-61 0 -88 -37t-27 -122v-273z" />
<glyph unicode="p" horiz-adv-x="1042" d="M90 -348v1399h297l6 -82h4q102 102 269 102q153 0 236 -109t83 -311v-250q0 -200 -88 -307.5t-258 -107.5q-132 0 -211 65h-4v-399h-334zM424 301q39 -57 115 -57q58 0 85 34t27 123v242q0 85 -24.5 119.5t-79.5 34.5q-82 0 -123 -58v-438z" />
<glyph unicode="q" horiz-adv-x="1042" d="M57 373v301q0 193 96 295t250 102q162 0 256 -108h5l16 88h272v-1399h-334v409h-4q-90 -81 -239 -81q-147 0 -232.5 105.5t-85.5 287.5zM391 395q0 -79 26 -115t83 -36q76 0 118 75v431q-47 47 -110 47q-117 0 -117 -154v-248z" />
<glyph unicode="r" horiz-adv-x="765" d="M90 0v1051h289l12 -144h4q42 89 97.5 125.5t132.5 36.5q67 0 108 -27l-28 -307q-43 29 -97 29q-79 0 -123 -47.5t-61 -151.5v-565h-334z" />
<glyph unicode="s" horiz-adv-x="854" d="M39 240l213 94q29 -62 76 -92.5t94 -30.5q82 0 82 72q0 29 -25 51.5t-64.5 40.5t-87.5 37.5t-96.5 47t-88 63t-64.5 93t-25 129.5q0 144 104 235t285 91q146 0 243.5 -73t133.5 -199l-217 -72q-52 111 -145 111q-46 0 -66 -16.5t-20 -49.5q0 -27 24.5 -48.5t64 -39.5 t87.5 -37.5t96 -47t87.5 -63.5t64 -93t24.5 -128q0 -143 -109 -239t-278 -96q-289 0 -393 260z" />
<glyph unicode="t" horiz-adv-x="694" d="M14 829v220l127 12l86 278h230v-288h194v-244h-194v-471q0 -52 27.5 -80.5t80.5 -28.5q24 0 70 11l22 -207q-100 -49 -219 -49q-169 0 -241 90.5t-72 279.5v436z" />
<glyph unicode="u" horiz-adv-x="1056" d="M72 397v654h334v-656q0 -82 25.5 -116.5t78.5 -34.5q81 0 123 59v748h334v-1051h-297l-11 80h-4q-97 -100 -264 -100q-152 0 -235.5 109.5t-83.5 307.5z" />
<glyph unicode="v" horiz-adv-x="1054" d="M-2 1051h377l149 -734h4l154 734h375l-342 -1051h-377z" />
<glyph unicode="w" horiz-adv-x="1509" d="M6 1051h344l111 -713h4l129 713h319l129 -713h5l110 713h346l-260 -1051h-371l-116 608h-4l-115 -608h-373z" />
<glyph unicode="x" horiz-adv-x="1056" d="M2 0l297 545l-287 506h367l158 -340h4l143 340h363l-289 -529l299 -522h-367l-170 358h-4l-151 -358h-363z" />
<glyph unicode="y" horiz-adv-x="1044" d="M0 1051h371l180 -619h4l145 619h344l-354 -1012q-68 -198 -186 -284t-314 -91l-18 236q85 6 132 38.5t77 102.5l12 33z" />
<glyph unicode="z" horiz-adv-x="884" d="M57 0v180l381 608v5h-366v258h759v-177l-387 -614v-4h379v-256h-766z" />
<glyph unicode="{" horiz-adv-x="628" d="M39 578v204q143 15 143 125q0 35 -27.5 164t-27.5 217q0 193 127.5 290t366.5 97h61v-202h-61q-106 0 -150.5 -62.5t-44.5 -185.5q0 -68 24.5 -190t24.5 -156q0 -150 -170 -197v-4q170 -46 170 -195q0 -34 -24.5 -156t-24.5 -190q0 -123 44.5 -185.5t150.5 -62.5h61v-202 h-61q-241 0 -367.5 96.5t-126.5 290.5q0 86 27.5 216t27.5 165q0 50 -39 84.5t-104 38.5z" />
<glyph unicode="|" horiz-adv-x="630" d="M162 -313v1988h309v-1988h-309z" />
<glyph unicode="}" horiz-adv-x="628" d="M-53 -106h59q106 0 150.5 60.5t44.5 182.5q0 68 -23.5 190t-23.5 156q0 149 168 195v4q-168 46 -168 197q0 34 23.5 156t23.5 190q0 122 -44.5 182.5t-150.5 60.5h-59v207h59q241 0 368.5 -96.5t127.5 -290.5q0 -88 -29 -217t-29 -164q0 -109 144 -125v-204 q-65 -4 -104.5 -38.5t-39.5 -84.5q0 -35 29 -164.5t29 -216.5q0 -193 -127.5 -290t-366.5 -97h-61v207z" />
<glyph unicode="~" horiz-adv-x="1019" d="M70 1180q12 183 85 265.5t207 82.5q52 0 96.5 -12.5t73 -30t51.5 -34.5t43 -29.5t38 -12.5q24 0 33.5 19.5t13.5 78.5h239q-12 -184 -86 -267t-207 -83q-64 0 -116.5 18.5t-80 41t-55.5 41t-49 18.5q-22 0 -32.5 -19.5t-14.5 -76.5h-239z" />
<glyph unicode="&#xa9;" horiz-adv-x="1566" d="M86 596v283q0 130 46 244.5t131.5 202.5t220 139t300.5 51q165 0 299.5 -51t220.5 -138.5t132.5 -202.5t46.5 -245v-283q0 -130 -46.5 -244.5t-132.5 -202t-220.5 -138t-299.5 -50.5q-133 0 -246.5 33t-196 91.5t-140.5 138.5t-86.5 174t-28.5 198zM289 594 q0 -94 31.5 -174.5t91.5 -141.5t155.5 -96t216.5 -35q120 0 215 35t155.5 96t92 141.5t31.5 174.5v287q0 198 -128.5 323t-369.5 125q-120 0 -214.5 -34.5t-154.5 -95.5t-91 -141.5t-31 -176.5v-287zM373 598v272q0 173 113 276t302 103q161 0 262 -79t128 -216l-224 -67 q-17 72 -47.5 101.5t-85.5 29.5q-66 0 -98.5 -38.5t-32.5 -107.5v-272q0 -145 131 -145q52 0 83 32t48 105l230 -66q-61 -297 -391 -297q-190 0 -304 101.5t-114 267.5z" />
<glyph unicode="&#xab;" horiz-adv-x="983" d="M61 539l242 356h262l-246 -356l246 -357h-262zM418 539l241 356h263l-246 -356l246 -357h-263z" />
<glyph unicode="&#xad;" horiz-adv-x="600" d="M66 457v286h469v-286h-469z" />
<glyph unicode="&#xae;" horiz-adv-x="579" d="M27 1255v105q0 109 69 182.5t195 73.5q125 0 193.5 -73.5t68.5 -182.5v-105q0 -110 -69 -189t-193 -79q-125 0 -194.5 78.5t-69.5 189.5zM106 1255q0 -188 183 -188q188 0 188 188v107q0 180 -188 180q-183 0 -183 -180v-107zM166 1137v348h133q131 0 131 -107 q0 -71 -51 -94l55 -147h-108l-41 127h-15v-127h-104zM270 1333h27q18 0 23.5 8.5t5.5 30.5q0 20 -6.5 26.5t-24.5 6.5h-25v-72z" />
<glyph unicode="&#xbb;" horiz-adv-x="983" d="M63 182l244 357l-244 356h263l239 -356l-239 -357h-263zM420 182l244 357l-244 356h262l240 -356l-240 -357h-262z" />
<glyph unicode="&#x401;" horiz-adv-x="1062" d="M115 0v1485h878v-320h-504v-266h367v-278h-367v-306h521v-315h-895zM262 1544v250h236v-250h-236zM625 1544v250h237v-250h-237z" />
<glyph unicode="&#x404;" horiz-adv-x="1103" d="M47 459v559q0 113 35 203q39 92 100 153q63 63 156 99q82 32 199 32q181 0 309 -94q129 -95 184 -268l-258 -92q-20 80 -76 123q-52 40 -118 40q-85 0 -121 -45q-35 -47 -35 -143v-127h328v-291h-328v-170q0 -176 151 -176q67 0 117 47q52 46 74 125l268 -94 q-52 -187 -184 -272q-131 -88 -318 -88q-109 0 -196 34q-90 35 -154 99t-98 151q-35 90 -35 195z" />
<glyph unicode="&#x405;" horiz-adv-x="1054" d="M27 348l276 94q29 -85 92.5 -129.5t132.5 -44.5q76 0 109 26t33 81q0 50 -34.5 93t-89.5 76t-121 67.5t-132.5 77t-121.5 94t-89.5 129t-34.5 171.5q0 181 126 301.5t333 120.5q364 0 500 -340l-252 -112q-57 159 -203 159q-71 0 -103 -25.5t-32 -80.5q0 -40 33 -76 t86.5 -66.5t117.5 -63.5t128 -77t117.5 -96.5t86.5 -132t33 -174.5q0 -207 -131 -323.5t-355 -116.5q-179 0 -322.5 101t-182.5 267z" />
<glyph unicode="&#x406;" horiz-adv-x="632" d="M129 0v1485h373v-1485h-373z" />
<glyph unicode="&#x407;" horiz-adv-x="632" d="M18 1544v250h236v-250h-236zM129 0v1485h373v-1485h-373zM381 1544v250h237v-250h-237z" />
<glyph unicode="&#x408;" horiz-adv-x="647" d="M-80 12q128 0 184 58t56 204v1211h372v-1204q0 -267 -147 -411.5t-434 -150.5z" />
<glyph unicode="&#x410;" horiz-adv-x="1265" d="M4 0l416 1485h426l416 -1485h-379l-64 281h-379l-61 -281h-375zM502 553h256l-127 567h-4z" />
<glyph unicode="&#x411;" horiz-adv-x="1171" d="M115 0v1485h929v-314h-557v-262h164q131 0 219 -30q89 -30 144 -88q55 -61 78 -140q22 -86 22 -190q0 -103 -22 -189q-24 -86 -80 -145q-55 -58 -148 -94q-88 -33 -227 -33h-522zM487 301h127q77 0 107 35q29 37 29 125q0 97 -29 129q-28 28 -107 28h-127v-317z" />
<glyph unicode="&#x412;" horiz-adv-x="1206" d="M115 0v1485h491q128 0 223 -31q92 -30 152 -84q56 -53 84 -127q27 -71 27 -153q0 -121 -39 -195q-41 -80 -138 -123v-4q126 -38 181 -125q55 -88 55 -211q0 -95 -25 -178q-24 -80 -79 -135q-58 -58 -150 -88q-95 -31 -229 -31h-553zM479 301h168q75 0 105 35 q30 34 30 123q0 96 -28 127q-30 30 -107 30h-168v-315zM479 885h142q77 0 104 35q27 34 27 116q0 84 -27 111q-29 29 -107 29h-139v-291z" />
<glyph unicode="&#x413;" horiz-adv-x="950" d="M115 0v1485h811v-320h-447v-1165h-364z" />
<glyph unicode="&#x414;" horiz-adv-x="1359" d="M-20 279h149q21 61 39 129q17 62 33 145q11 57 26 170q13 136 17 205l37 557h911v-1206h172v-582h-373v303h-643v-303h-368v582zM479 279h342v897h-221l-14 -271q-9 -191 -37 -352q-25 -140 -70 -274z" />
<glyph unicode="&#x415;" horiz-adv-x="1062" d="M115 0v1485h878v-320h-504v-266h367v-278h-367v-306h521v-315h-895z" />
<glyph unicode="&#x416;" horiz-adv-x="1830" d="M25 4v238h34q38 0 62 18q24 21 39 66l100 292q15 51 57 87q44 37 93 57v4q-83 47 -117 137l-88 230q-17 43 -41 71q-25 25 -64 25h-39v252q32 11 68 16q54 4 82 4q101 0 172 -59q69 -57 113 -170l125 -320q21 -53 86 -53h24v586h367v-586h26q65 0 86 53l125 320 q44 113 113 170q71 59 172 59q28 0 82 -4q34 -5 67 -16v-252h-38q-40 0 -62 -25q-25 -25 -43 -71l-88 -230q-16 -43 -49 -80q-33 -38 -70 -57v-4q54 -20 97 -57q40 -34 55 -87l100 -292q15 -47 41 -66q21 -18 60 -18h34v-238q-25 -7 -63 -10q-43 -6 -84 -6q-133 0 -213 57 q-86 58 -125 180l-111 330q-11 36 -34 53q-23 13 -58 13h-20v-621h-367v621h-18q-35 0 -58 -13q-23 -17 -34 -53l-111 -330q-39 -122 -125 -180q-80 -57 -213 -57q-42 0 -82 6q-40 3 -65 10z" />
<glyph unicode="&#x417;" horiz-adv-x="1087" d="M35 342l270 90q27 -93 78 -135q50 -41 125 -41q154 0 154 139v88q0 69 -44 99q-48 28 -133 28h-143v287h137q168 0 168 121v80q0 53 -35 88q-36 33 -112 33q-74 0 -117 -37q-46 -37 -76 -135l-268 96q46 164 176 264q128 98 330 98q111 0 200 -28q90 -31 146 -82 q58 -52 88 -119q29 -76 29 -146v-83q0 -86 -41 -160q-40 -76 -136 -117v-4q102 -30 152 -104q49 -76 49 -185v-102q0 -89 -33 -156q-36 -76 -98 -127q-69 -56 -156 -82q-91 -30 -206 -30q-206 0 -328 88q-124 87 -176 274z" />
<glyph unicode="&#x418;" horiz-adv-x="1302" d="M115 0v1485h352v-877h4l363 877h352v-1485h-352v877h-5l-362 -877h-352z" />
<glyph unicode="&#x419;" horiz-adv-x="1302" d="M115 0v1485h352v-877h4l363 877h352v-1485h-352v877h-5l-362 -877h-352zM322 1794h235q6 -59 27 -80q21 -24 69 -24q49 0 70 24q22 22 25 80h231q-14 -68 -37 -121q-23 -50 -63 -84q-37 -31 -95 -47q-55 -14 -135 -14q-155 0 -225 61q-75 63 -102 205z" />
<glyph unicode="&#x41a;" horiz-adv-x="1298" d="M115 0v1485h366v-586h35q33 0 62 16q27 15 36 39l138 308q50 113 125 176t202 63q38 0 88 -4q46 -8 64 -12v-256h-43q-78 0 -119 -96l-98 -224q-17 -43 -58 -84q-43 -39 -82 -57v-4q126 -47 166 -150l107 -288q15 -47 47 -66q27 -18 74 -18h39v-238q-33 -7 -74 -10 q-50 -6 -96 -6q-138 0 -220 61q-84 63 -131 189l-120 317q-15 40 -41 53t-68 13h-33v-621h-366z" />
<glyph unicode="&#x41b;" horiz-adv-x="1306" d="M2 6v238h35q45 0 78 20q29 18 51 78q20 65 31 164q10 90 20 276l35 703h938v-1485h-373v1176h-223l-21 -416q-12 -247 -45 -389q-35 -153 -88 -236q-57 -88 -129 -117q-77 -30 -168 -30q-41 0 -75 6q-39 3 -66 12z" />
<glyph unicode="&#x41c;" horiz-adv-x="1640" d="M115 0v1485h354l348 -805h4l350 805h355v-1485h-340v772h-4l-281 -567h-164l-280 567h-4v-772h-338z" />
<glyph unicode="&#x41d;" horiz-adv-x="1282" d="M115 0v1485h374v-567h306v567h372v-1485h-372v592h-306v-592h-374z" />
<glyph unicode="&#x41e;" horiz-adv-x="1226" d="M72 514v457q0 120 34 221q34 97 105 168q63 65 170 108q101 37 231 37q133 0 234 -37q103 -41 170 -108q70 -70 104 -168q35 -103 35 -221v-457q0 -119 -35 -219q-34 -100 -104 -170t-170 -107q-96 -38 -234 -38q-135 0 -231 38q-104 38 -170 107q-72 72 -105 170 q-34 98 -34 219zM444 514q0 -133 39 -184q42 -54 129 -54q89 0 131 54q39 51 39 184v457q0 127 -39 178q-40 49 -131 49q-87 0 -127 -49q-41 -53 -41 -178v-457z" />
<glyph unicode="&#x41f;" horiz-adv-x="1267" d="M115 0v1485h1038v-1485h-373v1176h-291v-1176h-374z" />
<glyph unicode="&#x420;" horiz-adv-x="1183" d="M115 0v1485h542q229 0 355 -135q125 -134 125 -371q0 -235 -117 -367q-121 -133 -336 -133h-195v-479h-374zM489 762h154q67 0 94 49t27 164t-27 162q-27 43 -94 43h-154v-418z" />
<glyph unicode="&#x421;" horiz-adv-x="1073" d="M72 459v534q0 122 37 215q35 94 102 162q65 65 158 100t204 35q96 0 170 -26q77 -27 140 -78q59 -50 100 -115q43 -68 57 -141l-270 -98q-35 151 -162 151q-87 0 -123 -51q-36 -50 -36 -154v-532q0 -92 36 -137q35 -50 121 -50q65 0 105 37q38 36 57 121l274 -92 q-76 -360 -471 -360q-116 0 -206 34q-95 36 -156 97q-67 64 -100 149q-37 87 -37 199z" />
<glyph unicode="&#x422;" horiz-adv-x="1044" d="M23 1163v322h999v-322h-313v-1163h-373v1163h-313z" />
<glyph unicode="&#x423;" horiz-adv-x="1234" d="M-2 1485h426l227 -643h4l185 643h397l-410 -1145q-64 -183 -204 -264q-139 -80 -357 -80l-20 291q86 3 147 26q56 21 74 80l14 43z" />
<glyph unicode="&#x424;" horiz-adv-x="1529" d="M55 662v167q0 224 125 355q127 133 383 133h15v168h372v-168h17q129 0 225 -35q95 -35 158 -98t94 -154t31 -201v-167q0 -224 -125 -355q-127 -133 -383 -133h-17v-174h-372v174h-15q-256 0 -383 133q-125 131 -125 355zM408 655q0 -106 32 -149q29 -45 113 -45h41v559 h-41q-85 0 -115 -41q-30 -43 -30 -141v-183zM934 461h43q82 0 115 45q30 44 30 149v181q0 98 -30 141q-34 43 -115 43h-43v-559z" />
<glyph unicode="&#x425;" horiz-adv-x="1234" d="M12 0l363 760l-355 725h404l192 -500h5l190 500h401l-352 -740l363 -745h-402l-207 514h-4l-196 -514h-402z" />
<glyph unicode="&#x426;" horiz-adv-x="1306" d="M115 0v1485h374v-1170h279v1170h371v-1147h174v-645h-342v307h-856z" />
<glyph unicode="&#x427;" horiz-adv-x="1189" d="M49 1042v443h373v-436q0 -109 39 -148t129 -39q39 0 57 2q9 1 27.5 3t27.5 3v615h373v-1485h-373v584q-78 -13 -108 -15q-59 -6 -107 -6q-230 0 -333 115q-105 114 -105 364z" />
<glyph unicode="&#x428;" horiz-adv-x="1851" d="M115 0v1485h374v-1170h250v1170h373v-1170h252v1170h373v-1485h-1622z" />
<glyph unicode="&#x429;" horiz-adv-x="1904" d="M115 0v1485h374v-1170h250v1170h373v-1170h252v1170h373v-1147h174v-645h-379v307h-1417z" />
<glyph unicode="&#x42a;" horiz-adv-x="1376" d="M23 1178v307h682v-576h163q130 0 219 -30t144 -88q55 -61 78 -140q22 -86 22 -190q0 -103 -22 -189q-24 -86 -80 -145q-55 -58 -148 -94q-88 -33 -227 -33h-522v1178h-309zM705 301h126q80 0 107 35q29 37 29 125q0 97 -29 129q-28 31 -109 31h-124v-320z" />
<glyph unicode="&#x42b;" horiz-adv-x="1740" d="M115 0v1485h372v-576h164q131 0 219 -30q89 -30 144 -88q55 -61 78 -140q22 -86 22 -190q0 -103 -22 -189q-24 -86 -80 -145q-55 -58 -148 -94q-88 -33 -227 -33h-522zM487 301h127q80 0 107 35q29 37 29 125q0 97 -29 129q-28 31 -109 31h-125v-320zM1253 0v1485h373 v-1485h-373z" />
<glyph unicode="&#x42c;" horiz-adv-x="1159" d="M115 0v1485h372v-576h164q131 0 219 -30q89 -30 144 -88q55 -61 78 -140q22 -86 22 -190q0 -103 -22 -189q-24 -86 -80 -145q-55 -58 -148 -94q-88 -33 -227 -33h-522zM487 301h127q80 0 107 35q29 37 29 125q0 97 -29 129q-28 31 -109 31h-125v-320z" />
<glyph unicode="&#x42d;" horiz-adv-x="1103" d="M47 340l268 94q22 -79 74 -125q50 -47 117 -47q151 0 151 176v170h-327v291h327v127q0 97 -34 143q-36 45 -121 45q-67 0 -119 -40q-56 -43 -76 -123l-258 92q55 173 184 268q128 94 310 94q116 0 198 -32q93 -36 156 -99q61 -61 100 -153q35 -90 35 -203v-559 q0 -105 -35 -195q-34 -87 -98 -151t-154 -99q-87 -34 -196 -34q-187 0 -318 88q-132 85 -184 272z" />
<glyph unicode="&#x42e;" horiz-adv-x="1755" d="M115 0v1485h366v-586h154v72q0 118 35 221q35 100 100 168q60 65 164 108q98 37 225 37q129 0 227 -37q103 -44 164 -108q69 -75 101 -168q32 -95 32 -221v-457q0 -127 -32 -219q-32 -95 -101 -170q-65 -68 -164 -107q-93 -38 -227 -38q-132 0 -225 38q-101 38 -164 107 q-66 69 -100 170q-35 100 -35 219v107h-154v-621h-366zM1008 514q0 -127 34 -176q34 -51 117 -51t117 51q35 50 35 176v457q0 120 -35 170q-35 47 -117 47t-117 -47q-34 -49 -34 -170v-457z" />
<glyph unicode="&#x42f;" horiz-adv-x="1226" d="M23 4v238h34q41 0 68 18q25 16 41 64l65 204q15 40 43 76q30 39 76 58v4q-241 73 -241 370q0 108 26 187q27 83 88 141q54 54 158 90q102 31 242 31h487v-1485h-371v559h-55q-65 0 -86 -70l-80 -266q-41 -128 -129 -180q-91 -55 -227 -55q-36 0 -76 6q-38 3 -63 10z M487 999q0 -107 35 -145q34 -37 119 -37h98v367h-106q-85 0 -115 -37q-31 -42 -31 -148z" />
<glyph unicode="&#x430;" horiz-adv-x="972" d="M47 283q0 58 23 129q22 64 71 110q52 49 135 78q92 29 216 29h45v82q0 68 -25 90q-26 20 -78 20q-41 0 -80 -26q-41 -27 -69 -95l-203 105q53 121 154 194q101 72 251 72q101 0 177 -29q71 -27 118 -77q44 -47 66 -115q20 -61 20 -139v-459q0 -53 56 -53h26v-187 q-46 -12 -71 -16q-33 -8 -76 -8q-75 0 -127 22q-49 21 -78 58q-103 -86 -254 -86q-142 0 -219 86q-78 84 -78 215zM365 311q0 -66 20 -86q22 -22 53 -22q59 0 99 43v170h-45q-72 0 -99 -27q-28 -28 -28 -78z" />
<glyph unicode="&#x431;" horiz-adv-x="1017" d="M57 373v567q0 236 107 367q108 132 311 166l408 65l45 -268q-46 -28 -84 -39q-64 -18 -107 -23l-207 -22q-66 -9 -110 -27q-41 -17 -68 -47q-24 -27 -33 -65q-9 -42 -12 -84h4q99 102 269 102q96 0 172 -31q70 -30 118 -84q47 -53 68 -123q23 -77 23 -151v-303 q0 -77 -27 -148q-28 -73 -86 -125q-55 -52 -141 -88q-79 -32 -199 -32t-197 32q-89 36 -141 88q-55 49 -84 125t-29 148zM393 389q0 -87 31 -123q27 -37 84 -37q63 0 90 37q29 37 29 123v262q0 89 -29 133q-27 37 -90 37q-59 0 -86 -37q-29 -44 -29 -133v-262z" />
<glyph unicode="&#x432;" horiz-adv-x="980" d="M90 0v1051h416q104 0 178 -21t121 -59q46 -37 67 -86q21 -53 21 -107q0 -86 -33 -139q-35 -59 -115 -88v-4q103 -24 150 -86t47 -154q0 -69 -18 -125q-20 -56 -66 -96q-49 -42 -121 -63q-84 -23 -188 -23h-459zM397 227h150q48 0 71 23q21 21 21 78q0 63 -21 84 q-21 18 -73 18h-148v-203zM397 635h121q54 0 72 24q18 21 18 68q0 54 -16 70q-19 16 -68 16h-127v-178z" />
<glyph unicode="&#x433;" horiz-adv-x="786" d="M90 0v1051h660v-275h-326v-776h-334z" />
<glyph unicode="&#x434;" horiz-adv-x="1120" d="M-12 258h121q27 85 43 160q16 74 26 164l47 469h760v-793h137v-547h-315v289h-504v-289h-315v547zM408 244h245v547h-161l-19 -222q-9 -88 -24 -166q-10 -47 -41 -159z" />
<glyph unicode="&#x435;" horiz-adv-x="956" d="M57 377v301q0 78 27 149q26 68 80 125q51 51 135 86q79 33 190 33q108 0 181 -33q80 -36 129 -88q50 -53 78 -129q26 -74 26 -157v-205h-510v-68q0 -87 33 -123q33 -39 102 -39q52 0 86 27q35 27 58 90l235 -86q-47 -142 -145 -209q-100 -69 -273 -69q-105 0 -184 30 q-80 29 -135 84q-57 54 -84 125q-29 76 -29 156zM393 643h217v57q0 73 -26 99q-28 28 -82 28q-59 0 -84 -28q-25 -31 -25 -99v-57z" />
<glyph unicode="&#x436;" horiz-adv-x="1546" d="M35 8v201h28q41 0 62 24q17 19 33 70l41 133q14 46 32 72q23 33 60 47q-51 42 -72 117l-22 78q-11 38 -35 65q-26 23 -66 23h-37v215q29 7 56 10q36 4 57 4q136 0 203 -55q68 -62 88 -140l24 -86q18 -61 43 -102q20 -33 60 -33h16v400h334v-400h16q41 0 64 33 q26 42 41 102l22 86q21 82 91 140q64 55 200 55q20 0 60 -4q28 -3 53 -10v-215h-37q-41 0 -64 -23q-24 -24 -36 -65l-23 -78q-21 -75 -72 -117q38 -15 60 -47q20 -29 33 -72l41 -133q17 -53 34 -70q21 -24 62 -24h26v-201q-25 -8 -57 -12q-27 -6 -70 -6q-65 0 -118 16 q-46 14 -84 47q-37 29 -58 70q-24 41 -39 90l-49 154q-21 59 -61 59h-35v-426h-334v426h-33q-48 0 -63 -59l-47 -154q-11 -36 -39 -90q-22 -43 -57 -70q-42 -34 -86 -47q-53 -16 -119 -16q-43 0 -70 6q-31 4 -57 12z" />
<glyph unicode="&#x437;" horiz-adv-x="937" d="M49 240l230 67q19 -51 63 -71q45 -25 98 -25q72 0 101 29q28 28 28 77q0 57 -34 78q-37 21 -113 21h-125v227h117q74 0 104 21q29 23 29 77q0 42 -25 64t-86 22q-50 0 -90 -24t-61 -76l-228 61q17 59 56 113q33 46 90 90q58 41 121 60q67 20 155 20q103 0 176 -24 q74 -27 123 -70q51 -48 70 -98q22 -58 22 -115q0 -68 -28 -129q-27 -58 -92 -88v-4q149 -46 149 -230q0 -171 -113 -250q-112 -81 -319 -81q-156 0 -264 63q-111 64 -154 195z" />
<glyph unicode="&#x438;" horiz-adv-x="1099" d="M90 0v1051h316v-621h4l286 621h314v-1051h-316v602h-4l-284 -602h-316z" />
<glyph unicode="&#x439;" horiz-adv-x="1099" d="M90 0v1051h316v-621h4l286 621h314v-1051h-316v602h-4l-284 -602h-316zM231 1485h236q3 -83 25 -119q21 -35 69 -35q47 0 68 35q20 33 26 119h236q-15 -90 -37 -152q-24 -62 -63 -98t-95 -51q-66 -17 -135 -17q-70 0 -133 17q-55 15 -94 51q-40 37 -64 98q-23 57 -39 152 z" />
<glyph unicode="&#x43a;" horiz-adv-x="1062" d="M90 0v1051h334v-400h43q38 0 59 35q23 37 45 100l29 86q13 35 37 78q22 36 55 62q41 29 82 41q46 14 117 14q19 0 59 -4q29 -3 54 -10v-215h-37q-41 0 -64 -23q-22 -26 -37 -65l-28 -78q-10 -33 -29 -66q-14 -29 -43 -51q38 -14 61 -47q21 -30 33 -70l45 -135 q15 -50 37 -72t59 -22h27v-201q-26 -8 -57 -12q-27 -6 -70 -6q-66 0 -119 16q-46 14 -84 47q-36 26 -59 70q-28 54 -39 90l-51 154q-21 59 -64 59h-61v-426h-334z" />
<glyph unicode="&#x43b;" horiz-adv-x="1103" d="M20 8v201h43q62 0 89 43q28 42 34 154l39 645h789v-1051h-336v795h-150l-34 -467q-15 -182 -99 -260q-87 -78 -237 -78q-34 0 -72 6q-39 3 -66 12z" />
<glyph unicode="&#x43c;" horiz-adv-x="1333" d="M90 0v1051h320l254 -494h4l258 494h317v-1051h-303v504h-4l-199 -359h-141l-199 363h-4v-508h-303z" />
<glyph unicode="&#x43d;" horiz-adv-x="1083" d="M90 0v1051h334v-392h233v392h336v-1051h-336v408h-233v-408h-334z" />
<glyph unicode="&#x43e;" horiz-adv-x="1017" d="M57 373v303q0 73 29 149q28 74 84 127q54 51 141 86q79 33 197 33q115 0 203 -31q86 -36 139 -86q57 -54 84 -125q27 -73 27 -153v-303q0 -79 -27 -150q-28 -73 -86 -125q-59 -56 -141 -86q-79 -32 -199 -32t-197 32q-85 30 -141 86q-55 49 -84 125t-29 150zM393 389 q0 -87 31 -123q27 -37 84 -37q63 0 90 37q29 37 29 123v273q0 82 -29 122q-27 37 -90 37q-59 0 -86 -37q-29 -40 -29 -122v-273z" />
<glyph unicode="&#x43f;" horiz-adv-x="1067" d="M90 0v1051h885v-1051h-334v791h-217v-791h-334z" />
<glyph unicode="&#x440;" horiz-adv-x="1042" d="M90 -403v1454h297l6 -82h4q102 102 269 102q152 0 235 -108q84 -113 84 -316v-235q0 -204 -86 -316q-88 -110 -260 -110q-57 0 -113 16q-55 15 -98 49h-4v-454h-334zM424 305q41 -53 115 -53q58 0 84 33q28 36 28 129v219q0 91 -24 125q-26 33 -80 33q-38 0 -72 -17 q-30 -13 -51 -41v-428z" />
<glyph unicode="&#x441;" horiz-adv-x="892" d="M57 373v305q0 78 27 149q26 68 80 125q52 52 131 86q73 33 182 33q138 0 242 -72q102 -70 145 -208l-233 -86q-18 60 -47 83q-33 23 -72 23q-49 0 -86 -29q-33 -29 -33 -120v-273q0 -87 31 -123q27 -35 88 -35q49 0 76 27q29 26 47 84l235 -84q-49 -133 -145 -205 q-100 -71 -248 -71q-113 0 -184 32q-81 35 -131 88q-54 57 -78 127q-27 71 -27 144z" />
<glyph unicode="&#x442;" horiz-adv-x="937" d="M35 780v271h866v-271h-264v-780h-334v780h-268z" />
<glyph unicode="&#x443;" horiz-adv-x="1044" d="M0 1051h371l180 -621h4l143 621h346l-385 -1098q-35 -103 -79 -170q-43 -66 -107 -113q-54 -43 -135 -65q-72 -20 -174 -23l-19 252q86 3 142 35q54 31 78 108l28 93z" />
<glyph unicode="&#x444;" horiz-adv-x="1503" d="M57 397v250q0 207 88 314q85 108 242 108q119 0 195 -61h4v454h334v-452h4q74 59 192 59q156 0 244 -108q86 -109 86 -314v-250q0 -194 -86 -303q-88 -108 -256 -108q-107 0 -180 61h-4v-450h-334v452h-4q-75 -63 -183 -63q-169 0 -254 108q-88 107 -88 303zM393 387 q0 -87 27 -121q26 -33 76 -33q66 0 96 52v473q-37 49 -94 49q-55 0 -78 -33q-27 -34 -27 -123v-264zM911 285q30 -52 97 -52q51 0 77 33q27 34 27 121v264q0 87 -27 121q-27 35 -79 35q-30 0 -54 -12q-26 -16 -41 -37v-473z" />
<glyph unicode="&#x445;" horiz-adv-x="1056" d="M2 0l297 545l-287 506h367l158 -340h4l143 340h363l-289 -529l299 -522h-367l-170 358h-4l-151 -358h-363z" />
<glyph unicode="&#x446;" horiz-adv-x="1099" d="M90 0v1051h334v-791h207v791h334v-793h137v-547h-316v289h-696z" />
<glyph unicode="&#x447;" horiz-adv-x="1040" d="M78 715v336h334v-322q0 -63 26 -86q28 -25 88 -25q39 0 90 7v426h334v-1051h-334v381q-87 -19 -186 -19q-96 0 -164 27q-66 23 -108 72q-45 48 -62 110q-18 65 -18 144z" />
<glyph unicode="&#x448;" horiz-adv-x="1570" d="M90 0v1051h334v-791h194v791h334v-791h193v791h334v-1051h-1389z" />
<glyph unicode="&#x449;" horiz-adv-x="1613" d="M90 0v1051h334v-791h194v791h334v-791h193v791h334v-793h137v-547h-316v289h-1210z" />
<glyph unicode="&#x44a;" horiz-adv-x="1165" d="M35 799v252h573v-379h135q103 0 187 -23q74 -23 121 -67q43 -43 65 -107q19 -68 19 -139q0 -72 -19 -137q-21 -64 -67 -107q-46 -46 -123 -67q-80 -25 -193 -25h-459v799h-239zM608 227h121q53 0 76 23q20 20 20 78q0 64 -20 84t-78 20h-119v-205z" />
<glyph unicode="&#x44b;" horiz-adv-x="1478" d="M90 0v1051h334v-379h135q102 0 186 -23q74 -23 121 -67q45 -45 66 -107q18 -65 18 -139q0 -75 -18 -137q-20 -62 -68 -107q-46 -46 -123 -67q-80 -25 -192 -25h-459zM424 227h121q53 0 76 23q20 20 20 78q0 64 -20 84t-78 20h-119v-205zM1055 0v1051h334v-1051h-334z" />
<glyph unicode="&#x44c;" horiz-adv-x="980" d="M90 0v1051h334v-379h135q102 0 186 -23q74 -23 121 -67q45 -45 66 -107q18 -65 18 -139q0 -75 -18 -137q-20 -62 -68 -107q-46 -46 -123 -67q-80 -25 -192 -25h-459zM424 227h121q53 0 76 23q20 20 20 78q0 64 -20 84t-78 20h-119v-205z" />
<glyph unicode="&#x44d;" horiz-adv-x="927" d="M53 260l221 78q37 -125 144 -125q62 0 92 27q31 28 31 96v80h-252v225h252v57q0 61 -27 95t-92 34q-96 0 -139 -120l-224 81q48 142 148 211q104 72 244 72q108 0 184 -33q82 -37 131 -86q51 -54 78 -125q26 -68 26 -149v-305q0 -73 -24 -144q-29 -75 -78 -127 q-48 -50 -131 -88q-74 -32 -186 -32q-155 0 -250 71q-99 71 -148 207z" />
<glyph unicode="&#x44e;" horiz-adv-x="1470" d="M94 0v1051h334v-392h113v17q0 81 26 149q28 73 82 127q51 51 135 86q79 33 193 33q109 0 194 -31q86 -36 136 -86t79 -125q27 -73 27 -153v-303q0 -77 -27 -148t-81 -125q-52 -52 -138 -88q-77 -32 -190 -32q-116 0 -193 32q-86 36 -135 88q-54 51 -82 125 q-26 68 -26 148v35h-113v-408h-334zM877 389q0 -87 26 -123q24 -37 74 -37q51 0 78 37q24 38 24 123v273q0 84 -24 122q-27 37 -78 37q-52 0 -76 -37q-24 -38 -24 -122v-273z" />
<glyph unicode="&#x44f;" horiz-adv-x="1044" d="M31 8v201h32q73 0 113 82l43 96q8 18 23 41q10 17 30 31v4q-97 30 -139 102q-41 71 -41 170q0 59 23 123q20 56 67 100q46 43 123 70q77 25 178 25h469v-1053h-323v391h-39q-45 0 -66 -61l-49 -135q-41 -113 -110 -158q-71 -47 -199 -47q-40 0 -74 6q-34 3 -61 12z M438 707q0 -51 21 -78q19 -29 73 -29h99v203h-96q-53 0 -74 -21q-23 -23 -23 -75z" />
<glyph unicode="&#x451;" horiz-adv-x="956" d="M57 377v301q0 78 27 148t79 125t136 87.5t190 32.5q98 0 178 -32.5t131 -88.5t78 -129t27 -157v-205h-510v-68q0 -85 32.5 -123.5t102.5 -38.5q54 0 86.5 27t57.5 90l235 -86q-48 -143 -148 -210.5t-270 -67.5q-203 0 -317.5 111.5t-114.5 283.5zM213 1198v285h231v-285 h-231zM393 643h217v57q0 68 -26.5 97.5t-81.5 29.5q-59 0 -84 -29.5t-25 -97.5v-57zM537 1198v285h229v-285h-229z" />
<glyph unicode="&#x454;" horiz-adv-x="927" d="M53 373v305q0 78 27 149t78 125q49 49 131 86q76 33 184 33q140 0 244 -72q99 -68 147 -211l-223 -81q-43 120 -139 120q-65 0 -92 -34t-27 -95v-57h252v-225h-252v-80q0 -68 31 -96q30 -27 92 -27q106 0 143 125l221 -78q-49 -137 -147 -207q-95 -71 -250 -71 q-112 0 -186 32q-83 38 -131 88q-49 52 -78 127q-25 73 -25 144z" />
<glyph unicode="&#x455;" horiz-adv-x="854" d="M39 240l213 94q29 -62 76 -92.5t94 -30.5q82 0 82 72q0 29 -25 51.5t-64.5 40.5t-87.5 37.5t-96.5 47t-88 63t-64.5 93t-25 129.5q0 144 104 235t285 91q146 0 243.5 -73t133.5 -199l-217 -72q-52 111 -145 111q-46 0 -66 -16.5t-20 -49.5q0 -27 24.5 -48.5t64 -39.5 t87.5 -37.5t96 -47t87.5 -63.5t64 -93t24.5 -128q0 -143 -109 -239t-278 -96q-289 0 -393 260z" />
<glyph unicode="&#x456;" horiz-adv-x="542" d="M104 0v1051h334v-1051h-334zM119 1200v285h303v-285h-303z" />
<glyph unicode="&#x457;" horiz-adv-x="542" d="M-6 1198v285h231v-285h-231zM104 0v1051h334v-1051h-334zM317 1198v285h230v-285h-230z" />
<glyph unicode="&#x458;" horiz-adv-x="561" d="M-8 -86q69 8 99 47.5t30 134.5v955h334v-953q0 -212 -108 -320t-335 -118zM135 1200v285h303v-285h-303z" />
<glyph unicode="&#x2000;" horiz-adv-x="897" />
<glyph unicode="&#x2001;" horiz-adv-x="1794" />
<glyph unicode="&#x2002;" horiz-adv-x="897" />
<glyph unicode="&#x2003;" horiz-adv-x="1794" />
<glyph unicode="&#x2004;" horiz-adv-x="598" />
<glyph unicode="&#x2005;" horiz-adv-x="448" />
<glyph unicode="&#x2006;" horiz-adv-x="299" />
<glyph unicode="&#x2007;" horiz-adv-x="299" />
<glyph unicode="&#x2008;" horiz-adv-x="224" />
<glyph unicode="&#x2009;" horiz-adv-x="358" />
<glyph unicode="&#x200a;" horiz-adv-x="99" />
<glyph unicode="&#x2010;" horiz-adv-x="600" d="M66 457v286h469v-286h-469z" />
<glyph unicode="&#x2011;" horiz-adv-x="600" d="M66 457v286h469v-286h-469z" />
<glyph unicode="&#x2012;" horiz-adv-x="600" d="M66 457v286h469v-286h-469z" />
<glyph unicode="&#x2013;" horiz-adv-x="933" d="M63 492v264h809v-264h-809z" />
<glyph unicode="&#x2014;" horiz-adv-x="1325" d="M63 489v267h1201v-267h-1201z" />
<glyph unicode="&#x2018;" horiz-adv-x="499" d="M104 1069v242q0 205 125 391l117 -43q-48 -104 -51 -236l106 -16v-338h-297z" />
<glyph unicode="&#x2019;" horiz-adv-x="499" d="M104 1231v338h297v-242q0 -213 -125 -391l-122 43q54 118 57 235z" />
<glyph unicode="&#x201a;" horiz-adv-x="499" d="M104 16v338h297v-241q0 -214 -125 -392l-122 43q54 118 57 236z" />
<glyph unicode="&#x201c;" horiz-adv-x="882" d="M104 1069v242q0 205 125 391l117 -43q-48 -104 -51 -236l106 -16v-338h-297zM494 1069v242q0 206 124 391l117 -43q-48 -104 -51 -236l107 -16v-338h-297z" />
<glyph unicode="&#x201d;" horiz-adv-x="882" d="M104 1233v338h297v-242q0 -213 -125 -391l-122 43q54 118 57 236zM494 1231v338h297v-242q0 -213 -125 -391l-123 43q54 118 57 235z" />
<glyph unicode="&#x201e;" horiz-adv-x="845" d="M68 16v338h297v-241q0 -214 -125 -392l-123 43q54 118 57 236zM465 16v338h297v-241q0 -214 -125 -392l-123 43q54 118 57 236z" />
<glyph unicode="&#x2026;" horiz-adv-x="1370" d="M68 0v342h321v-342h-321zM524 0v342h322v-342h-322zM981 0v342h324v-342h-324z" />
<glyph unicode="&#x202f;" horiz-adv-x="358" />
<glyph unicode="&#x2039;" horiz-adv-x="626" d="M61 539l242 356h262l-246 -356l246 -357h-262z" />
<glyph unicode="&#x203a;" horiz-adv-x="626" d="M63 182l244 357l-244 356h263l239 -356l-239 -357h-263z" />
<glyph unicode="&#x205f;" horiz-adv-x="448" />
<glyph unicode="&#x20ac;" d="M23 565v172h96v43h-96v172h96v41q0 237 137.5 374.5t366.5 137.5q176 0 303.5 -102t160.5 -258l-270 -98q-35 139 -162 139q-159 0 -159 -193v-41h419l-30 -172h-389v-43h378l-28 -172h-350v-104q0 -90 37.5 -136t121.5 -46q63 0 102.5 37t59.5 116l275 -92 q-79 -360 -471 -360q-228 0 -365 130t-137 349v106h-96z" />
<glyph unicode="&#x2122;" horiz-adv-x="1130" d="M18 1323v162h414v-162h-113v-498h-190v498h-111zM485 825v660h179l116 -336h4l117 336h178v-660h-170v299h-4l-84 -229h-80l-82 229h-4v-299h-170z" />
<glyph unicode="&#x25fc;" horiz-adv-x="1054" d="M0 0v1055h1055v-1055h-1055z" />
</font>
</defs>
</svg>
