<?xml version="1.0" standalone="no"?>
<!DOCTYPE svg PUBLIC "-//W3C//DTD SVG 1.1//EN" "http://www.w3.org/Graphics/SVG/1.1/DTD/svg11.dtd" >
<svg xmlns="http://www.w3.org/2000/svg">
<metadata></metadata>
<defs>
<font id="grundfos_thesans_ot7b" horiz-adv-x="1126" >
<font-face units-per-em="2048" ascent="1516" descent="-532" />
<missing-glyph horiz-adv-x="446" />
<glyph unicode="&#x2e;&#x2e;&#x2e;" horiz-adv-x="1480" d="M96 137q0 66 47 113t113 47t114 -47t48 -113t-48 -113t-114 -47t-113 47t-47 113zM575 137q0 66 47 113t113 47t113 -47t47 -113t-47 -113t-113 -47t-113 47t-47 113zM1053 137q0 66 46.5 113t112.5 47t113 -47t47 -113t-47 -113t-113 -47t-112.5 47t-46.5 113z" />
<glyph horiz-adv-x="0" />
<glyph horiz-adv-x="0" />
<glyph horiz-adv-x="682" />
<glyph unicode="&#xd;" horiz-adv-x="1024" />
<glyph horiz-adv-x="1062" d="M72 678q0 251 158.5 409t422.5 158l58 377h178l-60 -387q79 -11 136 -31l-21 -225q-74 29 -145 39l-97 -625q151 7 244 53l21 -219q-121 -49 -297 -59l-74 -477h-178l74 485q-196 23 -308 146t-112 356zM346 713q0 -260 182 -301l93 610q-124 -4 -199.5 -90t-75.5 -219z " />
<glyph unicode=" "  horiz-adv-x="446" />
<glyph unicode="&#x09;" horiz-adv-x="446" />
<glyph unicode="&#xa0;" horiz-adv-x="446" />
<glyph unicode="!" horiz-adv-x="657" d="M184 133q0 65 46.5 110.5t113.5 45.5q69 0 115.5 -45.5t46.5 -110.5q0 -66 -46.5 -111t-115.5 -45q-68 0 -114 45t-46 111zM193 1450h307l-39 -1065h-225z" />
<glyph unicode="&#x22;" horiz-adv-x="829" d="M90 1438h262l-33 -520h-196zM477 1438h262l-34 -520h-195z" />
<glyph unicode="#" horiz-adv-x="1193" d="M57 365v184h181l32 293h-164v182h183l37 358h209l-39 -358h270l39 358h209l-39 -358h162v-182h-181l-30 -293h164v-184h-185l-37 -365h-209l39 365h-270l-39 -365h-209l39 365h-162zM446 549h271l31 293h-269z" />
<glyph unicode="$" horiz-adv-x="1011" d="M94 905q0 136 89 235.5t235 127.5v207h186v-193q105 -3 209 -25l-16 -223q-125 35 -228 35q-106 0 -155 -38t-49 -99q0 -43 30.5 -75.5t79.5 -55t107.5 -44.5t117.5 -52.5t108 -70t79.5 -105t30.5 -150.5q0 -141 -90.5 -246.5t-247.5 -140.5v-250h-189v235 q-107 2 -248 27l19 238q119 -43 260 -43q102 0 160.5 37.5t58.5 115.5q0 46 -30 79.5t-78.5 56t-106.5 43.5t-116.5 50t-107 68t-78.5 104.5t-30 151.5z" />
<glyph unicode="%" horiz-adv-x="1556" d="M78 1073q0 146 91.5 240t229.5 94q143 0 223 -79.5t80 -233.5q0 -150 -91.5 -245t-229.5 -95q-147 0 -225 84.5t-78 234.5zM180 72l1026 1353l164 -118l-1026 -1352zM279 1083q0 -88 28.5 -126.5t85.5 -38.5q49 0 81 43.5t32 117.5q0 88 -28 126t-87 38 q-49 0 -80.5 -43.5t-31.5 -116.5zM854 297q0 147 91 240.5t229 93.5q144 0 224.5 -80.5t80.5 -235.5q0 -150 -92.5 -244t-229.5 -94q-147 0 -225 84.5t-78 235.5zM1053 307q0 -88 28.5 -127t87.5 -39q47 0 79 44t32 118q0 87 -28 124.5t-85 37.5q-51 0 -82.5 -42.5 t-31.5 -115.5z" />
<glyph unicode="&#x26;" horiz-adv-x="1632" d="M96 383q0 126 66.5 226.5t193.5 199.5q-95 111 -134.5 193.5t-39.5 171.5q0 143 108.5 240t299.5 97q174 0 269 -81.5t95 -219.5q0 -107 -58.5 -202t-184.5 -193q180 -180 370 -328v-2q62 95 94.5 213t28.5 240h260q3 -162 -45 -316t-141 -278q156 -118 268 -192 l-172 -199q-156 107 -280 205q-228 -181 -533 -181q-116 0 -206.5 32.5t-146 89t-84 128.5t-28.5 156zM369 416q0 -89 64.5 -152t172.5 -63q160 0 295 100q-227 185 -391 352q-141 -121 -141 -237zM440 1188q0 -89 117 -225q69 60 104 114t35 115q0 54 -32 88.5t-95 34.5 q-57 0 -93 -35.5t-36 -91.5z" />
<glyph unicode="'" horiz-adv-x="442" d="M90 1438h262l-33 -520h-196z" />
<glyph unicode="(" horiz-adv-x="626" d="M106 584q0 549 306 1028l190 -88q-237 -422 -237 -930q0 -521 243 -942l-198 -92q-163 257 -233.5 509t-70.5 515z" />
<glyph unicode=")" horiz-adv-x="626" d="M27 1522l198 90q161 -257 230 -508.5t69 -513.5q0 -553 -305 -1030l-190 88q239 420 239 932q0 513 -241 942z" />
<glyph unicode="*" horiz-adv-x="786" d="M63 1087l207 82l-207 82l93 162l174 -139l-33 221h186l-32 -221l174 139l92 -160l-207 -82l207 -84l-92 -159l-174 139l32 -221h-186l33 221l-176 -139z" />
<glyph unicode="+" d="M80 500v219h358v379h248v-379h361v-219h-361v-381h-248v381h-358z" />
<glyph unicode="," horiz-adv-x="528" d="M55 -258q69 74 98.5 131.5t24.5 100t-39 83.5q-28 33 -32.5 76.5t11.5 81.5t54.5 64t89.5 26q87 0 134 -76q57 -94 15 -235q-53 -178 -247 -348z" />
<glyph unicode="-" horiz-adv-x="684" d="M90 463v211h504v-211h-504z" />
<glyph unicode="." horiz-adv-x="528" d="M96 145q0 68 49.5 117t118.5 49t118.5 -49t49.5 -117q0 -69 -49.5 -118.5t-118.5 -49.5t-118.5 49.5t-49.5 118.5z" />
<glyph unicode="/" horiz-adv-x="948" d="M-23 -330l717 1880h258l-716 -1880h-259z" />
<glyph unicode="0" horiz-adv-x="1206" d="M74 676q0 178 44 318.5t120 228t173.5 133t209.5 45.5q512 0 512 -694q0 -179 -44 -320t-120 -228t-173.5 -132t-209.5 -45q-261 0 -386.5 175t-125.5 519zM352 692q0 -255 61 -373t187 -118q117 0 185.5 117t68.5 370q0 257 -61 375.5t-187 118.5q-117 0 -185.5 -117.5 t-68.5 -372.5z" />
<glyph unicode="1" horiz-adv-x="927" d="M80 1264l348 118h201v-1146h233v-236h-756v236h250v886l-241 -98z" />
<glyph unicode="2" horiz-adv-x="1019" d="M102 0v221l207 234q170 185 233.5 303.5t63.5 212.5q0 86 -51 139t-147 53q-125 0 -256 -78l-39 238q164 80 366 80t310 -108.5t108 -278.5q0 -138 -76.5 -287.5t-249.5 -339.5l-122 -143v-2q143 8 489 8v-252h-836z" />
<glyph unicode="3" horiz-adv-x="968" d="M86 6l29 230q80 -29 209 -29q126 0 199 58t73 149q0 88 -73 141t-220 53q-78 0 -143 -10v211q208 -6 301.5 52t93.5 157q0 75 -50 119.5t-145 44.5q-108 0 -227 -58l-20 219q147 60 317 60q192 0 296.5 -92t104.5 -240q0 -112 -59.5 -193.5t-161.5 -119.5l-2 -4 q126 -31 198.5 -118t72.5 -206q0 -200 -157.5 -325t-404.5 -125q-138 0 -231 26z" />
<glyph unicode="4" horiz-adv-x="1134" d="M35 512l504 870h352v-839h207v-240h-207v-303h-258v303h-580zM283 535q90 4 354 4v604h-2z" />
<glyph unicode="5" horiz-adv-x="944" d="M88 4l27 234q77 -27 192 -27q138 0 216.5 63.5t78.5 167.5q0 209 -338 209q-79 0 -131 -8v739h682v-249l-436 2v-275q240 1 370 -101.5t130 -289.5q0 -219 -163.5 -352t-422.5 -133q-113 0 -205 20z" />
<glyph unicode="6" horiz-adv-x="1183" d="M106 580q0 201 55 359.5t152 258.5t225.5 151.5t280.5 51.5q110 0 162 -8v-236q-77 19 -166 19q-329 0 -414 -332q-12 -54 -16 -70l2 -2q113 113 297 113q196 0 310 -113t114 -299q0 -222 -144.5 -359t-375.5 -137q-100 0 -181 32t-136.5 87t-93 132t-54.5 165t-17 187z M393 453q0 -117 57 -184.5t160 -67.5q100 0 160.5 65t60.5 170q0 108 -55.5 170t-159.5 62q-100 0 -161.5 -63t-61.5 -152z" />
<glyph unicode="7" horiz-adv-x="940" d="M45 1126v256h846v-225q-113 -250 -212 -564t-157 -593h-293q62 284 168.5 605.5t198.5 524.5q-156 -4 -551 -4z" />
<glyph unicode="8" horiz-adv-x="1140" d="M86 340q0 200 250 356q-227 129 -227 324q0 178 134.5 284.5t346.5 106.5q195 0 314.5 -96t119.5 -244q0 -107 -62 -186.5t-174 -155.5q125 -70 195 -154.5t70 -199.5q0 -127 -71 -219.5t-184 -136.5t-251 -44q-216 0 -338.5 99.5t-122.5 265.5zM360 365q0 -79 56 -125.5 t155 -46.5q90 0 148.5 44t58.5 119q0 39 -17.5 73t-53.5 63.5t-70.5 50.5t-89.5 49q-93 -60 -140 -110t-47 -117zM375 1047q0 -63 48.5 -111t151.5 -102q94 59 137.5 108.5t43.5 106.5q0 64 -48 107.5t-139 43.5q-92 0 -143 -42t-51 -111z" />
<glyph unicode="9" horiz-adv-x="1189" d="M86 907q0 215 142.5 356.5t363.5 141.5q104 0 188 -32t140.5 -87.5t94 -132.5t54 -163.5t16.5 -184.5q0 -396 -185.5 -610.5t-539.5 -214.5q-104 0 -184 14v237q91 -26 205 -26q304 0 381 293q7 20 15 54.5t11 43.5l-2 2q-41 -51 -115 -83t-169 -32q-191 0 -303.5 115 t-112.5 309zM358 942q0 -105 55.5 -167t157.5 -62q96 0 158 65.5t62 145.5q0 122 -57 189t-156 67q-97 0 -158.5 -65.5t-61.5 -172.5z" />
<glyph unicode=":" horiz-adv-x="610" d="M162 145q0 68 49.5 117t118.5 49t117.5 -49t48.5 -117q0 -69 -48.5 -118.5t-117.5 -49.5t-118.5 49.5t-49.5 118.5zM162 725q0 68 49.5 117t118.5 49t117.5 -49t48.5 -117q0 -69 -48.5 -118.5t-117.5 -49.5t-118.5 49.5t-49.5 118.5z" />
<glyph unicode=";" horiz-adv-x="610" d="M123 -258q68 74 97 131.5t24.5 100t-37.5 83.5q-28 33 -32.5 76.5t11 81.5t53.5 64t89 26q89 0 136 -77q57 -94 14 -235q-53 -177 -247 -347zM162 725q0 68 49.5 117t118.5 49t117.5 -49t48.5 -117q0 -69 -48.5 -118.5t-117.5 -49.5t-118.5 49.5t-49.5 118.5z" />
<glyph unicode="&#x3c;" d="M129 616l651 603l172 -172l-485 -429l487 -428l-172 -178z" />
<glyph unicode="=" d="M109 307v211h909v-211h-909zM109 698v211h909v-211h-909z" />
<glyph unicode="&#x3e;" d="M172 1040l172 179l653 -605l-651 -602l-172 172l485 428z" />
<glyph unicode="?" horiz-adv-x="923" d="M137 1231l33 237q164 -4 292 -39.5t206.5 -94t118.5 -131t40 -154.5q0 -61 -17 -113.5t-44.5 -88.5t-61.5 -72t-67.5 -64t-62.5 -63t-47.5 -70t-21.5 -85t15 -108h-256q-27 85 -26 146t23.5 113t56.5 89t73 73.5t72.5 66.5t55.5 69t22 80q0 92 -107.5 147.5t-296.5 61.5z M236 133q0 65 46 110.5t113 45.5t113.5 -45.5t46.5 -110.5q0 -66 -46 -111t-114 -45q-67 0 -113 45t-46 111z" />
<glyph unicode="@" horiz-adv-x="1986" d="M164 573q0 200 71 374.5t192.5 297t288.5 192.5t355 70q143 0 263 -33.5t206 -94t146 -143.5t89 -181.5t29 -208.5q0 -277 -136.5 -428.5t-356.5 -151.5q-109 0 -163.5 55t-51.5 142h-6q-37 -76 -116.5 -136.5t-172.5 -60.5q-98 0 -152.5 74.5t-54.5 218.5 q0 116 29.5 214t86.5 173t150 117.5t213 42.5q145 0 250 -41l-72 -406q-18 -101 4 -144.5t86 -43.5q102 0 165 90.5t63 272.5q0 93 -28 173.5t-86.5 147t-160.5 105t-237 38.5q-136 0 -256.5 -51t-208.5 -141t-139.5 -221.5t-51.5 -284.5q0 -264 145.5 -408.5t436.5 -144.5 q181 0 358 59l39 -204q-99 -33 -215.5 -51.5t-214.5 -18.5q-378 0 -582 198.5t-204 542.5zM797 602q0 -133 65 -133q62 0 124 92t97 268l19 91q-40 12 -90 12q-67 0 -118 -55.5t-74 -129t-23 -145.5z" />
<glyph unicode="A" horiz-adv-x="1282" d="M2 0l477 1382h314l487 -1382h-295l-94 283h-524l-97 -283h-268zM430 494h393l-141 411q-35 103 -55 191h-2q-18 -68 -54 -191z" />
<glyph unicode="B" horiz-adv-x="1187" d="M143 0v1380q214 11 459 11q223 0 343 -88.5t120 -253.5q0 -104 -55 -187.5t-154 -122.5v-4q111 -23 179.5 -108.5t68.5 -200.5q0 -84 -31 -158t-94.5 -136.5t-174.5 -99t-257 -36.5q-36 0 -171.5 2t-232.5 2zM410 217q99 -6 147 -6q127 0 194.5 56.5t67.5 150.5 q0 96 -76.5 144t-216.5 48q-87 0 -116 -2v-391zM410 811q33 -2 108 -2q133 0 198.5 51t65.5 146q0 172 -223 172q-63 0 -149 -4v-363z" />
<glyph unicode="C" horiz-adv-x="1159" d="M78 647q0 166 43.5 302t128 236t217.5 155t303 55q158 0 295 -41l-37 -246q-125 49 -270 49q-189 0 -288 -127.5t-99 -337.5q0 -467 403 -467q63 0 135.5 16t126.5 42l41 -236q-165 -63 -360 -63q-141 0 -251.5 36.5t-182.5 97.5t-119 147.5t-66.5 180t-19.5 201.5z" />
<glyph unicode="D" horiz-adv-x="1366" d="M143 2v1378q300 11 447 11q700 0 700 -676q0 -174 -55.5 -312t-156.5 -227.5t-240.5 -136.5t-309.5 -47q-93 0 -385 10zM410 229q62 -10 145 -10q99 0 180 28.5t141.5 85.5t94 149t33.5 212q0 232 -102.5 352.5t-330.5 120.5q-97 0 -161 -6v-932z" />
<glyph unicode="E" horiz-adv-x="1009" d="M143 0v1382h752v-223h-485v-340h460v-217h-460v-373h485v-229h-752z" />
<glyph unicode="F" horiz-adv-x="952" d="M143 0v1382h740v-227h-473v-354h446v-219h-446v-582h-267z" />
<glyph unicode="G" horiz-adv-x="1382" d="M74 649q0 226 86.5 394.5t261.5 264t420 95.5q201 0 391 -60l-53 -243q-157 65 -355 65q-119 0 -210 -38t-145 -105t-81 -152t-27 -186q0 -222 113.5 -343.5t327.5 -121.5q93 0 176 25v481h266v-659q-214 -86 -473 -86q-337 0 -517.5 178t-180.5 491z" />
<glyph unicode="H" horiz-adv-x="1404" d="M143 0v1382h267v-553h585v553h269v-1382h-269v600h-585v-600h-267z" />
<glyph unicode="I" horiz-adv-x="552" d="M143 0v1382h267v-1382h-267z" />
<glyph unicode="J" horiz-adv-x="686" d="M0 -2v229q55 -20 127 -20q77 0 114.5 41.5t37.5 148.5v985h266v-995q0 -89 -19.5 -159.5t-61.5 -127.5t-116 -87.5t-176 -30.5q-78 0 -172 16z" />
<glyph unicode="K" horiz-adv-x="1222" d="M143 0v1382h267v-626l446 626h328l-508 -667l528 -715h-350l-444 664v-664h-267z" />
<glyph unicode="L" horiz-adv-x="878" d="M143 0v1382h267v-1149h448v-233h-715z" />
<glyph unicode="M" horiz-adv-x="1804" d="M66 0l210 1382h314l233 -714q47 -150 76 -291h4q48 200 76 287l235 718h312l215 -1382h-277l-100 668q-25 175 -43 346h-4q-39 -189 -78 -316l-223 -698h-258l-213 649q-59 190 -90 365h-4q-13 -166 -37 -369l-80 -645h-268z" />
<glyph unicode="N" horiz-adv-x="1431" d="M143 0v1382h353l417 -743q72 -127 134 -277q-15 261 -15 672v348h256v-1382h-352l-428 762q-88 172 -123 270q14 -212 14 -657v-375h-256z" />
<glyph unicode="O" horiz-adv-x="1439" d="M68 670q0 168 53.5 308t145 232.5t214.5 143.5t262 51q310 0 469.5 -183t159.5 -509q0 -168 -53.5 -308t-145.5 -233t-215 -144t-262 -51q-310 0 -469 183.5t-159 509.5zM352 702q0 -227 92.5 -355t274.5 -128q162 0 265 122.5t103 340.5q0 226 -92.5 354.5t-273.5 128.5 q-162 0 -265.5 -123t-103.5 -340z" />
<glyph unicode="P" horiz-adv-x="1087" d="M143 0v1382q169 9 371 9q254 0 390 -112t136 -316q0 -100 -37.5 -188t-106 -152.5t-171 -102t-225.5 -37.5q-57 0 -90 4v-487h-267zM410 711q41 -6 77 -6q125 2 201 66t76 175q0 108 -64.5 168t-195.5 60q-48 0 -94 -3v-460z" />
<glyph unicode="Q" horiz-adv-x="1439" d="M68 670q0 168 53.5 308t145 232.5t214.5 143.5t262 51q310 0 469.5 -183t159.5 -509q0 -206 -76 -359t-209 -221q44 0 99.5 -15.5t117.5 -25.5q30 -5 64 -5t70 5v-227q-79 -10 -136 -10q-25 0 -46 2q-68 6 -133 25.5t-111 40.5t-114 37.5t-142 16.5h-60 q-310 0 -469 183.5t-159 509.5zM352 702q0 -227 92.5 -355t274.5 -128q161 0 264.5 123.5t103.5 339.5q0 226 -92.5 354.5t-273.5 128.5q-162 0 -265.5 -123t-103.5 -340z" />
<glyph unicode="R" horiz-adv-x="1161" d="M143 0v1382q164 9 398 9q501 0 501 -390q0 -150 -96 -255t-244 -130q78 -102 111 -151l322 -465h-330l-373 571h-22v-571h-267zM410 768q36 -4 96 -4q120 0 189 57t69 154q0 199 -250 199q-57 0 -104 -7v-399z" />
<glyph unicode="S" horiz-adv-x="1030" d="M82 989q0 188 138 302t384 114q118 0 250 -27l-25 -233q-119 39 -237 39q-113 0 -170 -44.5t-57 -121.5q0 -39 20 -70.5t54.5 -53.5t79 -41.5t93 -39.5t97.5 -42t93.5 -53.5t79 -70t54.5 -96t20 -127.5q0 -194 -148.5 -320.5t-385.5 -126.5q-184 0 -320 37l29 256 q140 -59 301 -59q102 0 167 44.5t65 135.5q0 53 -32 91.5t-83.5 63.5t-113.5 47.5t-124 53t-113.5 71t-83.5 110t-32 161.5z" />
<glyph unicode="T" horiz-adv-x="1044" d="M31 1155v227h983v-227h-359v-1155h-266v1155h-358z" />
<glyph unicode="U" horiz-adv-x="1394" d="M143 479v903h267v-886q0 -69 13 -120.5t44 -93t88.5 -62.5t140.5 -21q156 0 223.5 73t67.5 248v862h264v-845q0 -280 -147.5 -420t-425.5 -140q-91 0 -166.5 14t-130.5 39t-96.5 61.5t-68 78.5t-43.5 94t-23.5 103.5t-6.5 111.5z" />
<glyph unicode="V" horiz-adv-x="1286" d="M6 1382h291l268 -809q55 -160 80 -266h4q36 140 84 283l273 792h274l-485 -1382h-308z" />
<glyph unicode="W" horiz-adv-x="1947" d="M49 1382h285l188 -764q31 -123 51 -280h2q24 157 54 272l211 772h282l213 -768q43 -163 56 -268h2q20 137 51 264l188 772h266l-352 -1382h-327l-201 762q-27 104 -53 285h-2q-15 -142 -52 -279l-200 -768h-310z" />
<glyph unicode="X" horiz-adv-x="1286" d="M20 0l441 707l-414 675h309l281 -479l278 479h304l-408 -673l455 -709h-336l-297 508l-297 -508h-316z" />
<glyph unicode="Y" horiz-adv-x="1148" d="M6 1382h291l182 -397q48 -107 94 -229h5q33 90 110 256l174 370h283l-440 -893v-489h-267v487z" />
<glyph unicode="Z" horiz-adv-x="1099" d="M92 0v205l498 811q64 98 90 131q-98 -4 -252 -4h-319v239h892v-215l-526 -829q-39 -64 -63 -96q35 4 299 4h299v-246h-918z" />
<glyph unicode="[" horiz-adv-x="671" d="M145 -420v2011h453v-207h-207v-1593h207v-211h-453z" />
<glyph unicode="\" horiz-adv-x="980" d="M14 1550h258l717 -1880h-258z" />
<glyph unicode="]" horiz-adv-x="671" d="M74 -209h205v1593h-205v207h450v-2011h-450v211z" />
<glyph unicode="^" d="M113 782l336 600h200l350 -598l-188 -94l-268 506l-256 -506z" />
<glyph unicode="_" d="M0 -293h1126v-211h-1126v211z" />
<glyph unicode="`" horiz-adv-x="765" d="M137 1368l121 176l348 -256l-98 -141z" />
<glyph unicode="a" horiz-adv-x="1073" d="M78 270q0 118 73.5 199t203.5 118.5t311 37.5v37q0 94 -41.5 136t-141.5 42q-67 0 -152 -20t-155 -50l-43 201q172 69 385 69q116 0 196.5 -23.5t127 -71t66.5 -111t20 -152.5v-420q0 -150 8 -262h-250q0 106 10 172l-2 2q-37 -87 -124.5 -140.5t-200.5 -53.5 q-135 0 -213 81t-78 209zM330 299q0 -51 33.5 -85t89.5 -34q92 0 152.5 75t60.5 171v27q-96 0 -163.5 -11.5t-104 -33t-52.5 -48t-16 -61.5z" />
<glyph unicode="b" horiz-adv-x="1144" d="M141 29v1466h262v-438q0 -114 -16 -199h2q38 84 120 132t187 48q182 0 278.5 -125t96.5 -352q0 -263 -146.5 -422t-404.5 -159q-205 0 -379 49zM403 207q59 -19 138 -19q118 0 187 83.5t69 263.5q0 286 -174 286q-99 0 -159.5 -96.5t-60.5 -230.5v-287z" />
<glyph unicode="c" horiz-adv-x="870" d="M70 475q0 162 55 286.5t173.5 199.5t289.5 75q123 0 223 -35l-41 -225q-93 39 -190 39q-114 0 -175 -84t-61 -229q0 -295 238 -295q108 0 198 41l35 -219q-121 -47 -287 -47q-220 0 -339 120.5t-119 372.5z" />
<glyph unicode="d" horiz-adv-x="1142" d="M72 455q0 262 144 421.5t394 159.5q69 0 129 -8v467h260v-1495h-243q0 88 12 170h-4q-41 -88 -125 -140.5t-197 -52.5q-182 0 -276 127t-94 351zM346 483q0 -288 174 -288q99 0 159 98t60 235v285q-75 16 -137 16q-120 0 -188 -83t-68 -263z" />
<glyph unicode="e" horiz-adv-x="1052" d="M70 500q0 153 56.5 274.5t167.5 192.5t259 71q212 0 317 -119.5t105 -312.5q0 -91 -10 -147h-629q0 -138 67.5 -206.5t212.5 -68.5q147 0 295 60l29 -199q-176 -65 -369 -65q-501 0 -501 520zM338 633h377v12q0 94 -44 146q-47 55 -132 55q-82 0 -136.5 -57t-64.5 -156z " />
<glyph unicode="f" horiz-adv-x="724" d="M16 815v203h179v84q0 207 98.5 308t306.5 101q95 0 166 -16l-18 -215q-53 18 -127 18q-86 0 -126 -46.5t-40 -147.5v-86h237v-203h-237v-815h-260v815h-179z" />
<glyph unicode="g" horiz-adv-x="1116" d="M70 -211q0 77 45.5 146t111.5 104q-46 22 -73 63t-27 93q0 59 34 108.5t87 73.5q-72 39 -112 109.5t-40 168.5q0 78 29 147t83.5 122.5t141.5 84.5t195 31q80 0 166 -22h346v-205h-139q51 -48 51 -129q0 -168 -112.5 -267.5t-324.5 -99.5q-36 0 -79 9q-24 -10 -37 -28 t-13 -38q0 -35 33.5 -47.5t124.5 -15.5l158 -7q346 -13 346 -299q0 -169 -156 -287t-403 -118q-206 0 -321 78t-115 225zM328 -162q0 -70 59 -110.5t158 -40.5q123 0 191.5 47.5t68.5 122.5q0 58 -39.5 93t-120.5 38l-176 6h-47q-94 -69 -94 -156zM346 672q0 -83 49 -129.5 t140 -46.5q86 0 135 46t49 128q0 83 -47.5 131.5t-136.5 48.5q-87 0 -138 -50t-51 -128z" />
<glyph unicode="h" horiz-adv-x="1169" d="M141 0v1495h262v-438q0 -129 -18 -207h4q46 87 132 137.5t202 50.5q83 0 143.5 -25t94.5 -70.5t49.5 -101.5t15.5 -126v-715h-260v651q0 83 -28.5 125.5t-98.5 42.5q-98 0 -167 -97t-69 -233v-489h-262z" />
<glyph unicode="i" horiz-adv-x="544" d="M111 1327q0 66 47 113t114 47q68 0 116 -46.5t48 -113.5q0 -65 -48.5 -111.5t-115.5 -46.5t-114 46t-47 112zM141 0v1018h262v-1018h-262z" />
<glyph unicode="j" horiz-adv-x="555" d="M-129 -487l18 223q66 -25 121 -25q81 0 111.5 41.5t30.5 145.5v1120h260v-1094q0 -216 -91 -324t-305 -108q-70 0 -145 21zM117 1327q0 66 48 113t116 47t115.5 -46.5t47.5 -113.5q0 -65 -48 -111.5t-115 -46.5q-68 0 -116 46t-48 112z" />
<glyph unicode="k" horiz-adv-x="1071" d="M141 0v1495h262v-901l297 424h320l-356 -465l383 -553h-328l-316 504v-504h-262z" />
<glyph unicode="l" horiz-adv-x="544" d="M141 0v1495h262v-1495h-262z" />
<glyph unicode="m" horiz-adv-x="1773" d="M141 0v1018h248q0 -97 -12 -182l2 -2q46 95 134.5 149.5t201.5 54.5q65 0 116 -17.5t83 -47.5t51.5 -63.5t29.5 -73.5q40 83 126.5 142.5t205.5 59.5q305 0 305 -338v-700h-262v643q0 88 -26.5 132t-94.5 44q-91 0 -162 -94.5t-71 -237.5v-487h-258v645q0 84 -25.5 129 t-95.5 45q-93 0 -163.5 -96.5t-70.5 -235.5v-487h-262z" />
<glyph unicode="n" horiz-adv-x="1169" d="M141 0v1018h248q0 -108 -14 -182h2q48 93 137 147.5t209 54.5q83 0 143.5 -25t94.5 -70.5t49.5 -101.5t15.5 -126v-715h-260v651q0 83 -28.5 125.5t-98.5 42.5q-98 0 -167 -96.5t-69 -230.5v-492h-262z" />
<glyph unicode="o" horiz-adv-x="1132" d="M68 492q0 239 144.5 392.5t375.5 153.5q224 0 349.5 -127.5t125.5 -382.5q0 -240 -146 -394t-374 -154q-226 0 -350.5 125t-124.5 387zM338 518q0 -315 227 -315q101 0 164.5 80.5t63.5 230.5q0 303 -224 303q-96 0 -163.5 -76t-67.5 -223z" />
<glyph unicode="p" horiz-adv-x="1144" d="M141 -494v1512h244q0 -104 -10 -170h4q44 91 125 140.5t194 49.5q180 0 276.5 -124t96.5 -351q0 -270 -138 -423.5t-398 -153.5q-75 0 -132 8v-488h-262zM403 207q65 -19 138 -19q118 0 187 83.5t69 263.5q0 288 -174 288q-99 0 -159.5 -98.5t-60.5 -235.5v-282z" />
<glyph unicode="q" horiz-adv-x="1144" d="M74 455q0 264 146 422.5t409 158.5q187 0 372 -30v-1500h-260v461q0 115 15 197l-4 2q-40 -88 -120 -138.5t-181 -50.5q-184 0 -280.5 122t-96.5 356zM348 483q0 -288 172 -288q99 0 160 99t61 238v283q-75 14 -137 14q-120 0 -188 -83t-68 -263z" />
<glyph unicode="r" horiz-adv-x="727" d="M141 0v1018h248q0 -97 -18 -205h4q41 109 121 173q68 54 167 54q17 0 35 -2l-12 -256q-33 7 -62 7q-95 0 -150 -70q-71 -91 -71 -303v-416h-262z" />
<glyph unicode="s" horiz-adv-x="854" d="M84 715q0 143 110 234t322 91q89 0 184 -20l-12 -205q-93 27 -184 27q-74 0 -112 -28t-38 -77q0 -35 23 -59.5t60 -41t82 -31.5t90 -37t82 -51.5t60 -80.5t23 -119q0 -152 -123 -244.5t-325 -92.5q-133 0 -228 26l19 219q93 -41 217 -41q74 0 119 30t45 81q0 36 -23 61.5 t-59.5 40.5t-80.5 29.5t-88 35t-80.5 50t-59.5 81.5t-23 122z" />
<glyph unicode="t" horiz-adv-x="768" d="M12 815v203h176v313l261 70v-383h247v-203h-247v-446q0 -97 26 -132.5t94 -35.5t117 14l19 -207q-115 -28 -222 -28q-168 0 -231.5 69.5t-63.5 249.5v516h-176z" />
<glyph unicode="u" horiz-adv-x="1167" d="M141 303v715h260v-651q0 -83 28.5 -125.5t98.5 -42.5q99 0 167.5 96t68.5 231v492h262v-1018h-246q0 113 13 182h-2q-48 -93 -136.5 -147.5t-210.5 -54.5q-83 0 -143.5 25t-94.5 70.5t-49.5 101.5t-15.5 126z" />
<glyph unicode="v" horiz-adv-x="1036" d="M10 1018h283l164 -492q44 -144 65 -254h4q24 119 62 252l160 494h276l-352 -1018h-312z" />
<glyph unicode="w" horiz-adv-x="1630" d="M18 1018h287l109 -385q57 -209 80 -307h2q22 126 73 295l123 397h252l125 -385q62 -208 82 -307h4q24 124 70 295l116 397h269l-320 -1018h-284l-148 451q-37 132 -57 229h-2q-24 -113 -70 -256l-129 -424h-270z" />
<glyph unicode="x" horiz-adv-x="1081" d="M23 0l350 514l-330 504h313l197 -336l199 336h290l-319 -502l336 -516h-330l-197 342l-196 -342h-313z" />
<glyph unicode="y" horiz-adv-x="1028" d="M-37 -496l31 226q68 -21 129 -21q162 0 231 201l33 90l-377 1018h293l137 -389q40 -123 80 -281h2q36 146 99 324l120 346h281l-404 -1075q-50 -132 -102.5 -219.5t-115.5 -139t-132.5 -73t-161.5 -21.5q-75 0 -143 14z" />
<glyph unicode="z" horiz-adv-x="921" d="M92 0v186l410 600q-78 -4 -217 -4h-181v236h713v-187l-401 -593q43 2 231 2h178v-240h-733z" />
<glyph unicode="{" horiz-adv-x="741" d="M55 543v196q110 6 157.5 52.5t47.5 169.5v178q0 230 87.5 341t285.5 111h43v-207q-101 0 -136.5 -47.5t-35.5 -193.5v-176q0 -156 -49 -232t-140 -92v-4q189 -27 189 -330v-274q0 -101 16 -152.5t51.5 -71.5t104.5 -20v-211h-43q-198 0 -285.5 109t-87.5 348v276 q0 123 -49 173.5t-156 56.5z" />
<glyph unicode="|" horiz-adv-x="589" d="M186 -494v2048h209v-2048h-209z" />
<glyph unicode="}" horiz-adv-x="737" d="M72 -209q102 0 138 48.5t36 195.5v274q0 304 188 330v4q-188 26 -188 318v182q0 145 -36 193t-138 48v207h45q198 0 284 -111t86 -341v-172q0 -128 47 -175t158 -53v-196q-106 -6 -155.5 -56.5t-49.5 -173.5v-276q0 -240 -86.5 -348.5t-283.5 -108.5h-45v211z" />
<glyph unicode="~" d="M86 881v37q0 148 83.5 237.5t225.5 89.5q55 0 99 -16t71 -40t52 -51.5t42.5 -51.5t41.5 -40t51 -16q93 0 96 166h194v-37q0 -149 -83.5 -238.5t-225.5 -89.5q-65 0 -114.5 22t-78.5 53.5t-53 62.5t-51 53t-59 22q-93 0 -96 -163h-195z" />
<glyph unicode="&#xa2;" horiz-adv-x="929" d="M82 551q0 196 100 332.5t275 169.5v190h196v-176q97 -7 183 -35l-25 -221q-85 43 -197 43q-120 0 -191 -76.5t-71 -212.5q0 -127 63 -201.5t195 -74.5q109 0 209 51l19 -227q-92 -35 -185 -43v-209h-196v209q-183 23 -279 150.5t-96 330.5z" />
<glyph unicode="&#xa3;" horiz-adv-x="974" d="M59 616v201h177q-23 145 -23 207q0 187 109 285t309 98q129 0 227 -31l-45 -215q-84 31 -168 31q-79 0 -123.5 -42t-44.5 -126q0 -35 21 -207h276v-201h-252q4 -41 4 -100q0 -94 -32.5 -166t-104.5 -135q73 12 219 12h316v-227h-838v182q96 68 138 139.5t42 170.5 q0 63 -8 124h-199z" />
<glyph unicode="&#xa5;" horiz-adv-x="1230" d="M45 1382h291l182 -376q54 -110 96 -232h4q43 124 113 258l178 350h281l-381 -749h254v-166h-318v-119h318v-170h-318v-178h-264v178h-317v170h317v119h-317v166h256z" />
<glyph unicode="&#xa8;" horiz-adv-x="1118" d="M193 1327q0 60 41 100.5t100 40.5t100 -40.5t41 -100.5q0 -59 -41.5 -100t-99.5 -41t-99.5 41t-41.5 100zM606 1327q0 60 41.5 100.5t100.5 40.5t100 -40.5t41 -100.5q0 -59 -41.5 -100t-99.5 -41q-59 0 -100.5 41.5t-41.5 99.5z" />
<glyph unicode="&#xa9;" horiz-adv-x="1560" d="M78 682q0 143 55.5 272.5t149 223t223 149t272.5 55.5q190 0 351.5 -93t255.5 -254t94 -351t-94 -351.5t-255.5 -255t-351.5 -93.5q-145 0 -275 55t-223 148.5t-147.5 222.5t-54.5 272zM274 684q0 -137 67.5 -253.5t183.5 -184.5t253 -68q209 0 355.5 147.5t146.5 356.5 q0 136 -66.5 252.5t-182.5 185t-253 68.5q-209 0 -356.5 -147.5t-147.5 -356.5zM444 676q0 77 21.5 143t64 118t113.5 82t162 30t168 -31l-29 -174q-54 35 -129 35q-153 0 -153 -199q0 -178 143 -178q83 0 143 28l35 -168q-84 -40 -209 -40q-155 0 -242.5 95.5t-87.5 258.5z " />
<glyph unicode="&#xab;" horiz-adv-x="1093" d="M86 598l225 403l201 -92l-174 -309l178 -305l-211 -94zM530 598l246 393l197 -94l-189 -297l193 -293l-205 -96z" />
<glyph unicode="&#xad;" horiz-adv-x="684" d="M90 463v211h504v-211h-504z" />
<glyph unicode="&#xae;" horiz-adv-x="1155" d="M98 1085q0 197 140.5 335.5t339.5 138.5q200 0 339.5 -137t139.5 -337q0 -96 -38.5 -183.5t-102.5 -150.5t-152.5 -100t-185.5 -37q-201 0 -340.5 136.5t-139.5 334.5zM256 1087q0 -132 94.5 -227.5t227.5 -95.5q132 0 225.5 94t93.5 227q0 132 -93.5 228t-225.5 96 q-134 0 -228 -94.5t-94 -227.5zM410 860v457h190q82 0 122 -34t40 -93q0 -103 -92 -129q20 -24 35 -55l67 -146h-147l-78 174h-15v-174h-122zM532 1118h23q35 0 53.5 15.5t18.5 40.5q0 49 -62 49h-33v-105z" />
<glyph unicode="&#xb4;" horiz-adv-x="804" d="M215 1288l346 256l121 -176l-371 -221z" />
<glyph unicode="&#xb8;" horiz-adv-x="819" d="M287 -479q51 62 71 111.5t8.5 103t-59.5 114.5l217 68q148 -202 -41 -397h-196z" />
<glyph unicode="&#xbb;" horiz-adv-x="1093" d="M117 895l205 96l241 -387l-248 -393l-196 94l190 297zM578 907l210 94l220 -397l-226 -403l-202 92l176 309z" />
<glyph unicode="&#x2c6;" horiz-adv-x="872" d="M121 1266l313 278l314 -276l-103 -121l-213 166l-211 -166z" />
<glyph unicode="&#x2da;" horiz-adv-x="747" d="M113 1352q0 106 77.5 178t184.5 72q110 0 185 -71t75 -177q0 -105 -77 -177.5t-185 -72.5q-109 0 -184.5 70.5t-75.5 177.5zM266 1352q0 -44 32.5 -76.5t76.5 -32.5t75 32t31 77q0 44 -31 76t-75 32t-76.5 -32t-32.5 -76z" />
<glyph unicode="&#x2dc;" horiz-adv-x="956" d="M109 1290q92 183 249 183q46 0 85 -16.5t61.5 -36t50.5 -36t53 -16.5q64 0 115 92l125 -96q-92 -182 -250 -182q-46 0 -85.5 16t-62 36t-51 36t-53.5 16q-62 0 -113 -92z" />
<glyph unicode="&#x400;" horiz-adv-x="1009" d="M143 0v1382h752v-223h-485v-340h460v-217h-460v-373h485v-229h-752zM203 1575l59 188l424 -153l-43 -144z" />
<glyph unicode="&#x401;" horiz-adv-x="1009" d="M143 0v1382h752v-223h-485v-340h460v-217h-460v-373h485v-229h-752zM154 1608q0 57 40 96t97 39t97 -39t40 -96t-40 -96t-97 -39t-97 39t-40 96zM596 1608q0 57 39 96t96 39t97 -39t40 -96t-40 -96t-97 -39t-96 39t-39 96z" />
<glyph unicode="&#x402;" horiz-adv-x="1425" d="M31 1155v227h925v-227h-358v-293q112 39 256 39q229 0 358 -119t129 -327q0 -171 -79 -289.5t-215 -177t-324 -66.5v215q168 9 254 79t86 210q0 120 -66.5 192t-195.5 72q-103 0 -203 -39v-651h-266v1155h-301z" />
<glyph unicode="&#x403;" horiz-adv-x="878" d="M143 0v1382h715v-227h-448v-1155h-267zM315 1610l426 153l60 -188l-443 -109z" />
<glyph unicode="&#x404;" horiz-adv-x="1177" d="M78 666q0 159 43 291.5t126.5 231t216 153.5t302.5 55q166 0 299 -43l-39 -242q-133 47 -272 47q-162 0 -255.5 -92t-117.5 -252h567v-221h-567q14 -178 111 -273.5t282 -95.5q64 0 136.5 16.5t125.5 43.5l41 -238q-160 -61 -352 -61q-140 0 -251 35t-184.5 96 t-121.5 148t-69 186t-21 215z" />
<glyph unicode="&#x405;" horiz-adv-x="1030" d="M82 989q0 188 138 302t384 114q118 0 250 -27l-25 -233q-119 39 -237 39q-113 0 -170 -44.5t-57 -121.5q0 -39 20 -70.5t54.5 -53.5t79 -41.5t93 -39.5t97.5 -42t93.5 -53.5t79 -70t54.5 -96t20 -127.5q0 -194 -148.5 -320.5t-385.5 -126.5q-184 0 -320 37l29 256 q140 -59 301 -59q102 0 167 44.5t65 135.5q0 53 -32 91.5t-83.5 63.5t-113.5 47.5t-124 53t-113.5 71t-83.5 110t-32 161.5z" />
<glyph unicode="&#x406;" horiz-adv-x="552" d="M143 0v1382h267v-1382h-267z" />
<glyph unicode="&#x407;" horiz-adv-x="552" d="M-82 1608q0 57 40 96t97 39t97.5 -39t40.5 -96t-40.5 -96t-97.5 -39t-97 39t-40 96zM143 0v1382h267v-1382h-267zM360 1608q0 57 39.5 96t96.5 39t97 -39t40 -96t-40 -96t-97 -39t-96.5 39t-39.5 96z" />
<glyph unicode="&#x408;" horiz-adv-x="686" d="M0 -2v229q55 -20 127 -20q77 0 114.5 41.5t37.5 148.5v985h266v-995q0 -89 -19.5 -159.5t-61.5 -127.5t-116 -87.5t-176 -30.5q-78 0 -172 16z" />
<glyph unicode="&#x409;" horiz-adv-x="1964" d="M-8 195q46 10 75 23.5t55.5 44t41 76.5t26 124t15.5 183.5t4 258.5v477h940v-532q118 8 201 8q236 0 365.5 -109t129.5 -292q0 -228 -153 -351.5t-416 -123.5q-236 0 -393 32v1141h-408v-207q0 -189 -11 -331.5t-35.5 -247.5t-58.5 -176t-86 -116.5t-112 -68t-141 -31.5z M1149 225q71 -22 170 -22q116 0 182 59t66 158q0 215 -262 215q-70 0 -156 -12v-398z" />
<glyph unicode="&#x40a;" horiz-adv-x="2031" d="M143 0v1382h267v-553h585v553h269v-532q118 8 198 8q237 0 367.5 -109.5t130.5 -291.5q0 -228 -154 -351.5t-417 -123.5q-237 0 -394 32v586h-585v-600h-267zM1264 225q68 -22 168 -22q116 0 181.5 59t65.5 158q0 215 -262 215q-67 0 -153 -12v-398z" />
<glyph unicode="&#x40b;" horiz-adv-x="1447" d="M31 1155v227h925v-227h-358v-297q118 43 270 43q102 0 180.5 -22t129 -60t82.5 -94.5t45.5 -119.5t13.5 -140v-465h-266v430q0 127 -51 192.5t-187 65.5q-122 0 -217 -43v-645h-266v1155h-301z" />
<glyph unicode="&#x40c;" horiz-adv-x="1222" d="M143 0v1382h267v-626l446 626h328l-508 -667l528 -715h-350l-444 664v-664h-267zM494 1610l426 153l59 -188l-442 -109z" />
<glyph unicode="&#x40d;" horiz-adv-x="1382" d="M143 0v1382h267v-725q0 -142 -17 -272h4q45 109 78 172l463 825h301v-1382h-266v717q0 147 18 291h-2q-48 -109 -86 -179l-465 -829h-295zM311 1575l60 188l424 -153l-43 -144z" />
<glyph unicode="&#x40e;" horiz-adv-x="1150" d="M29 1382h295l202 -483q52 -119 82 -225l6 -12q12 34 43 126t45 132l166 462h279l-406 -1024q-83 -212 -189 -296.5t-249 -84.5q-76 0 -168 29l39 227q64 -24 125 -24q66 0 106 30t78 119zM207 1757h233q0 -139 150 -139q139 0 139 139h236q0 -133 -98 -210t-285 -77 q-185 0 -280 74.5t-95 212.5z" />
<glyph unicode="&#x40f;" horiz-adv-x="1351" d="M143 0v1382h267v-1155h532v1155h266v-1382h-415v-301h-234v301h-416z" />
<glyph unicode="&#x410;" horiz-adv-x="1282" d="M2 0l477 1382h314l487 -1382h-295l-94 283h-524l-97 -283h-268zM430 494h393l-141 411q-35 103 -55 191h-2q-18 -68 -54 -191z" />
<glyph unicode="&#x411;" horiz-adv-x="1173" d="M143 4v1378h852v-227h-585v-321h176q243 0 376.5 -100.5t133.5 -295.5q0 -94 -34.5 -174t-102.5 -142t-179.5 -97t-255.5 -35q-212 0 -381 14zM410 221q74 -8 145 -8q120 0 188 57t68 156q0 94 -64.5 147.5t-201.5 53.5h-135v-406z" />
<glyph unicode="&#x412;" horiz-adv-x="1187" d="M143 0v1380q214 11 459 11q223 0 343 -88.5t120 -253.5q0 -104 -55 -187.5t-154 -122.5v-4q111 -23 179.5 -108.5t68.5 -200.5q0 -84 -31 -158t-94.5 -136.5t-174.5 -99t-257 -36.5q-36 0 -171.5 2t-232.5 2zM410 217q99 -6 147 -6q127 0 194.5 56.5t67.5 150.5 q0 96 -76.5 144t-216.5 48q-87 0 -116 -2v-391zM410 811q33 -2 108 -2q133 0 198.5 51t65.5 146q0 172 -223 172q-63 0 -149 -4v-363z" />
<glyph unicode="&#x413;" horiz-adv-x="878" d="M143 0v1382h715v-227h-448v-1155h-267z" />
<glyph unicode="&#x414;" horiz-adv-x="1413" d="M10 227h115q71 106 100 252t29 426v477h969v-1155h147v-528h-233v301h-895v-301h-232v528zM393 227h563v930h-436v-209q0 -298 -31.5 -462t-95.5 -259z" />
<glyph unicode="&#x415;" horiz-adv-x="1009" d="M143 0v1382h752v-223h-485v-340h460v-217h-460v-373h485v-229h-752z" />
<glyph unicode="&#x416;" horiz-adv-x="1751" d="M6 0l475 711l-452 671h317l395 -626v626h267v-626l399 626h315l-454 -667l477 -715h-340l-397 664v-664h-267v664l-397 -664h-338z" />
<glyph unicode="&#x417;" horiz-adv-x="1050" d="M72 18l26 228q124 -43 295 -43q151 0 220 58.5t69 152.5q0 99 -83 142.5t-245 43.5h-133v213h86q97 0 171 18.5t122.5 63.5t48.5 113q0 82 -54 129t-187 47q-147 0 -281 -51l-23 217q176 51 359 51q231 0 346 -92t115 -250q0 -111 -61 -193.5t-165 -115.5l-2 -5 q125 -20 197 -108t72 -201q0 -89 -36.5 -169t-106 -144t-184 -101.5t-259.5 -37.5q-185 0 -307 34z" />
<glyph unicode="&#x418;" horiz-adv-x="1382" d="M143 0v1382h267v-725q0 -142 -17 -272h4q45 109 78 172l463 825h301v-1382h-266v717q0 147 18 291h-2q-48 -109 -86 -179l-465 -829h-295z" />
<glyph unicode="&#x419;" horiz-adv-x="1382" d="M143 0v1382h267v-725q0 -142 -17 -272h4q45 109 78 172l463 825h301v-1382h-266v717q0 147 18 291h-2q-48 -109 -86 -179l-465 -829h-295zM332 1757h233q0 -139 150 -139q139 0 139 139h236q0 -133 -98 -210t-285 -77q-185 0 -280 74.5t-95 212.5z" />
<glyph unicode="&#x41a;" horiz-adv-x="1222" d="M143 0v1382h267v-626l446 626h328l-508 -667l528 -715h-350l-444 664v-664h-267z" />
<glyph unicode="&#x41b;" horiz-adv-x="1292" d="M-8 195q46 10 75 23.5t55.5 44t41 76.5t26 124t15.5 183.5t4 258.5v477h940v-1382h-266v1155h-408v-207q0 -189 -11 -331.5t-35.5 -247.5t-58.5 -176t-86 -116.5t-112 -68t-141 -31.5z" />
<glyph unicode="&#x41c;" horiz-adv-x="1804" d="M66 0l210 1382h314l233 -714q47 -150 76 -291h4q48 200 76 287l235 718h312l215 -1382h-277l-100 668q-25 175 -43 346h-4q-39 -189 -78 -316l-223 -698h-258l-213 649q-59 190 -90 365h-4q-13 -166 -37 -369l-80 -645h-268z" />
<glyph unicode="&#x41d;" horiz-adv-x="1404" d="M143 0v1382h267v-553h585v553h269v-1382h-269v600h-585v-600h-267z" />
<glyph unicode="&#x41e;" horiz-adv-x="1439" d="M68 670q0 168 53.5 308t145 232.5t214.5 143.5t262 51q310 0 469.5 -183t159.5 -509q0 -168 -53.5 -308t-145.5 -233t-215 -144t-262 -51q-310 0 -469 183.5t-159 509.5zM352 702q0 -227 92.5 -355t274.5 -128q162 0 265 122.5t103 340.5q0 226 -92.5 354.5t-273.5 128.5 q-162 0 -265.5 -123t-103.5 -340z" />
<glyph unicode="&#x41f;" horiz-adv-x="1353" d="M143 0v1382h1067v-1382h-266v1155h-534v-1155h-267z" />
<glyph unicode="&#x420;" horiz-adv-x="1087" d="M143 0v1382q169 9 371 9q254 0 390 -112t136 -316q0 -100 -37.5 -188t-106 -152.5t-171 -102t-225.5 -37.5q-57 0 -90 4v-487h-267zM410 711q41 -6 77 -6q125 2 201 66t76 175q0 108 -64.5 168t-195.5 60q-48 0 -94 -3v-460z" />
<glyph unicode="&#x421;" horiz-adv-x="1146" d="M78 647q0 166 43.5 302t128 236t217.5 155t303 55q158 0 295 -41l-37 -246q-125 49 -270 49q-189 0 -288 -127.5t-99 -337.5q0 -467 403 -467q63 0 135.5 16t126.5 42l41 -236q-165 -63 -360 -63q-141 0 -251.5 36.5t-182.5 97.5t-119 147.5t-66.5 180t-19.5 201.5z" />
<glyph unicode="&#x422;" horiz-adv-x="1044" d="M31 1155v227h983v-227h-359v-1155h-266v1155h-358z" />
<glyph unicode="&#x423;" horiz-adv-x="1150" d="M29 1382h295l202 -483q52 -119 82 -225l6 -12q12 34 43 126t45 132l166 462h279l-406 -1024q-83 -212 -189 -296.5t-249 -84.5q-76 0 -168 29l39 227q64 -24 125 -24q66 0 106 30t78 119z" />
<glyph unicode="&#x424;" horiz-adv-x="1705" d="M66 680q0 280 182 459t477 207v147h256v-143q316 -14 488.5 -177.5t172.5 -467.5q0 -187 -84 -333t-232.5 -231t-344.5 -104v-152h-256v148q-331 15 -495 184t-164 463zM340 700q0 -400 385 -440v862q-177 -15 -281 -127t-104 -295zM981 264q176 18 280.5 129t104.5 299 q0 392 -385 430v-858z" />
<glyph unicode="&#x425;" horiz-adv-x="1286" d="M20 0l441 707l-414 675h309l281 -479l278 479h304l-408 -673l455 -709h-336l-297 508l-297 -508h-316z" />
<glyph unicode="&#x426;" horiz-adv-x="1413" d="M143 0v1382h267v-1155h536v1155h268v-1155h156v-528h-233v301h-994z" />
<glyph unicode="&#x427;" horiz-adv-x="1273" d="M84 954v428h268v-387q0 -145 58.5 -211.5t210.5 -66.5q133 0 245 53v612h264v-1382h-264v549q-130 -53 -288 -53q-117 0 -205 23.5t-142.5 63t-88 99.5t-46 125t-12.5 147z" />
<glyph unicode="&#x428;" horiz-adv-x="1906" d="M143 0v1382h265v-1155h413v1155h262v-1155h416v1155h264v-1382h-1620z" />
<glyph unicode="&#x429;" horiz-adv-x="1961" d="M143 0v1382h265v-1155h413v1155h262v-1155h416v1155h264v-1155h156v-528h-233v301h-1543z" />
<glyph unicode="&#x42a;" horiz-adv-x="1325" d="M31 1165v217h518v-534q85 10 201 10q237 0 366 -110t129 -297q0 -223 -153.5 -346t-413.5 -123q-253 0 -395 32v1151h-252zM549 225q68 -22 172 -22q113 0 178.5 58t65.5 153q0 221 -263 221q-85 0 -153 -14v-396z" />
<glyph unicode="&#x42b;" horiz-adv-x="1748" d="M143 14v1368h267v-532q118 8 200 8q237 0 366.5 -109t129.5 -292q0 -228 -153 -351.5t-416 -123.5q-237 0 -394 32zM410 225q72 -22 170 -22q116 0 181.5 59t65.5 158q0 215 -264 215q-67 0 -153 -12v-398zM1321 0v1382h266v-1382h-266z" />
<glyph unicode="&#x42c;" horiz-adv-x="1187" d="M143 14v1368h267v-532q118 8 200 8q237 0 366.5 -109t129.5 -292q0 -228 -153 -351.5t-416 -123.5q-237 0 -394 32zM410 225q72 -22 170 -22q116 0 181.5 59t65.5 158q0 215 -264 215q-67 0 -153 -12v-398z" />
<glyph unicode="&#x42d;" horiz-adv-x="1130" d="M63 33l46 246q122 -56 278 -56q165 0 267 103.5t110 267.5h-569v221h567q-25 170 -124.5 258t-266.5 88q-130 0 -252 -49l-41 231q160 56 344 56q161 0 285 -51t201 -144t116 -216.5t39 -274.5q0 -334 -183 -532.5t-507 -198.5q-170 0 -310 51z" />
<glyph unicode="&#x42e;" horiz-adv-x="1943" d="M143 0v1382h267v-563h186q25 185 117 319t229 200.5t305 66.5q140 0 253.5 -42.5t198 -126.5t131 -217.5t46.5 -307.5q0 -167 -53 -306.5t-144.5 -232.5t-214.5 -144t-264 -51q-292 0 -444 166t-168 459h-178v-602h-267zM856 702q0 -227 91 -355t272 -128 q70 0 134.5 27.5t118.5 82.5t86.5 148t32.5 213q0 230 -95 352.5t-273 122.5q-73 0 -138 -29.5t-116.5 -85t-82 -145.5t-30.5 -203z" />
<glyph unicode="&#x42f;" horiz-adv-x="1202" d="M47 0l356 608q-124 27 -197 118t-73 228q0 203 147.5 321t426.5 118q177 0 352 -21v-1372h-266v557h-123l-316 -557h-307zM410 975q0 -203 262 -203h121v399q-61 7 -127 7q-130 0 -193 -55.5t-63 -147.5z" />
<glyph unicode="&#x430;" horiz-adv-x="1075" d="M78 270q0 174 146.5 260t416.5 86h25v41q0 97 -41.5 140t-141.5 43q-67 0 -151 -20t-156 -50l-43 201q172 69 385 69q116 0 196.5 -23.5t127 -71t66.5 -111t20 -152.5v-420q0 -150 8 -262h-250q0 106 10 172h-2q-37 -86 -125 -139t-200 -53q-135 0 -213 81t-78 209z M330 299q0 -51 33.5 -85t89.5 -34q92 0 152.5 75t60.5 171v20h-43q-163 0 -228 -38t-65 -109z" />
<glyph unicode="&#x431;" horiz-adv-x="1148" d="M94 592v16q0 258 47.5 442t137.5 275q61 61 142 96t160 46t153.5 15.5t141.5 12.5t103 27v-226q-45 -23 -125 -32t-149.5 -10t-144 -20.5t-116.5 -62.5q-42 -42 -69 -114.5t-41 -212.5h2q38 80 123 132t207 52q90 0 164.5 -29t130.5 -87t87 -150.5t31 -212.5 q0 -255 -143 -412t-375 -157q-467 0 -467 612zM369 524q0 -159 55.5 -240t163.5 -81q100 0 160.5 81t60.5 232q0 297 -211 297q-100 0 -164.5 -83t-64.5 -206z" />
<glyph unicode="&#x432;" horiz-adv-x="1093" d="M143 14v1000q226 24 389 24q437 0 437 -264q0 -165 -166 -221v-2q96 -14 154.5 -75t58.5 -154q0 -150 -130 -246t-372 -96q-218 0 -371 34zM391 182q57 -16 146 -16q100 0 152 39.5t52 101.5q0 68 -57.5 102.5t-161.5 34.5h-131v-262zM391 604h127q95 0 146 32t51 91 q0 127 -203 127q-55 0 -121 -8v-242z" />
<glyph unicode="&#x433;" horiz-adv-x="729" d="M143 0v1018h547v-215h-287v-803h-260z" />
<glyph unicode="&#x434;" horiz-adv-x="1200" d="M29 205h96q106 160 106 469v344h797v-813h127v-488h-227v283h-672v-283h-227v488zM387 205h381v608h-293v-119q0 -340 -88 -489z" />
<glyph unicode="&#x435;" horiz-adv-x="1052" d="M70 500q0 153 56.5 274.5t167.5 192.5t259 71q212 0 317 -119.5t105 -312.5q0 -91 -10 -147h-629q0 -138 67.5 -206.5t212.5 -68.5q147 0 295 60l29 -199q-176 -65 -369 -65q-501 0 -501 520zM338 633h377q3 103 -44 158t-132 55q-82 0 -136.5 -57t-64.5 -156z" />
<glyph unicode="&#x436;" horiz-adv-x="1554" d="M29 0l360 539l-342 479h322l278 -436v436h260v-436l283 436h317l-342 -475l361 -543h-326l-293 489v-489h-260v489l-295 -489h-323z" />
<glyph unicode="&#x437;" horiz-adv-x="913" d="M63 16l39 205q132 -57 279 -57q93 0 142.5 39t49.5 102q0 129 -225 129h-176v176h174q201 0 201 123q0 56 -45.5 89.5t-143.5 33.5q-123 0 -243 -47l-31 180q155 51 317 51q109 0 190 -22t125.5 -60t65.5 -83.5t21 -98.5q0 -172 -168 -223v-2q97 -16 155 -74.5t58 -154.5 q0 -149 -128.5 -247t-357.5 -98q-165 0 -299 39z" />
<glyph unicode="&#x438;" horiz-adv-x="1198" d="M143 0v1018h260v-459q0 -127 -12 -221q24 68 88 176l297 504h279v-1018h-262v461q0 103 12 225q-25 -80 -84 -176l-301 -510h-277z" />
<glyph unicode="&#x439;" horiz-adv-x="1198" d="M143 0v1018h260v-459q0 -127 -12 -221q24 68 88 176l297 504h279v-1018h-262v461q0 103 12 225q-25 -80 -84 -176l-301 -510h-277zM221 1466h232q0 -153 151 -153q69 0 105 39t36 114h234q0 -140 -98 -221.5t-285 -81.5q-185 0 -280 78.5t-95 224.5z" />
<glyph unicode="&#x43a;" horiz-adv-x="1071" d="M141 0v1018h262v-436l304 436h317l-362 -473l385 -545h-328l-316 492v-492h-262z" />
<glyph unicode="&#x43b;" horiz-adv-x="1103" d="M-2 188q68 5 105.5 48t57 152.5t19.5 307.5v322h781v-1018h-263v799h-262v-105q0 -367 -100 -538t-311 -179z" />
<glyph unicode="&#x43c;" horiz-adv-x="1556" d="M59 0l172 1018h340l168 -539q31 -107 45 -190h2q19 99 50 196l168 533h323l170 -1018h-270l-76 526q-23 171 -27 228h-2q-18 -106 -47 -209l-166 -545h-274l-158 508q-50 191 -61 246h-2q-8 -120 -29 -244l-72 -510h-254z" />
<glyph unicode="&#x43d;" horiz-adv-x="1175" d="M143 0v1018h260v-387h369v387h260v-1018h-260v410h-369v-410h-260z" />
<glyph unicode="&#x43e;" horiz-adv-x="1134" d="M68 492q0 239 144.5 392.5t375.5 153.5q224 0 349.5 -127.5t125.5 -382.5q0 -240 -146 -394t-374 -154q-226 0 -350.5 125t-124.5 387zM338 518q0 -315 227 -315q101 0 164.5 80.5t63.5 230.5q0 303 -224 303q-96 0 -163.5 -76t-67.5 -223z" />
<glyph unicode="&#x43f;" horiz-adv-x="1167" d="M143 0v1018h881v-1018h-262v799h-359v-799h-260z" />
<glyph unicode="&#x440;" horiz-adv-x="1144" d="M141 -494v1512h244q0 -104 -10 -170h4q44 91 125 140.5t194 49.5q180 0 276.5 -124t96.5 -351q0 -270 -138 -423.5t-398 -153.5q-75 0 -132 8v-488h-262zM403 207q65 -19 138 -19q118 0 187 83.5t69 263.5q0 288 -174 288q-99 0 -159.5 -98.5t-60.5 -235.5v-282z" />
<glyph unicode="&#x441;" horiz-adv-x="878" d="M70 475q0 121 30.5 222t91 178t157 120t220.5 43q145 0 254 -45l-67 -231q-93 55 -195 55q-104 0 -161.5 -84.5t-57.5 -222.5q0 -303 238 -303q103 0 188 45l57 -211q-59 -29 -140.5 -45t-158.5 -16q-218 0 -337 121.5t-119 373.5z" />
<glyph unicode="&#x442;" horiz-adv-x="831" d="M23 813v205h788v-205h-264v-813h-262v813h-262z" />
<glyph unicode="&#x443;" horiz-adv-x="1032" d="M-35 -496l31 226q68 -21 129 -21q162 0 231 201l33 90l-377 1018h293l137 -389q40 -123 80 -281h2q36 146 99 324l120 346h281l-403 -1075q-50 -132 -102.5 -219.5t-115.5 -139t-132.5 -73t-161.5 -21.5q-76 0 -144 14z" />
<glyph unicode="&#x444;" horiz-adv-x="1488" d="M68 496q0 104 35.5 195.5t103.5 163.5t172 119.5t235 61.5v346h260v-344q269 -10 408 -142.5t139 -371.5q0 -140 -61.5 -254t-186.5 -190.5t-299 -95.5v-478h-260v474q-269 10 -407.5 142.5t-138.5 373.5zM332 514q0 -132 70.5 -215t211.5 -96v614q-126 -12 -204 -93 t-78 -210zM874 203q126 12 204.5 92t78.5 209q0 131 -71 215t-212 98v-614z" />
<glyph unicode="&#x445;" horiz-adv-x="1081" d="M23 0l350 514l-330 504h313l197 -336l199 336h290l-319 -502l336 -516h-330l-197 342l-196 -342h-313z" />
<glyph unicode="&#x446;" horiz-adv-x="1193" d="M143 0v1018h260v-813h359v813h260v-813h127v-488h-227v283h-779z" />
<glyph unicode="&#x447;" horiz-adv-x="1093" d="M76 651v367h262v-316q0 -93 36.5 -135.5t117.5 -42.5q107 0 196 47v447h262v-1018h-262v375q-103 -47 -246 -47q-102 0 -175.5 25.5t-114 71.5t-58.5 101.5t-18 124.5z" />
<glyph unicode="&#x448;" horiz-adv-x="1699" d="M143 0v1018h260v-801h320v801h258v-801h315v801h260v-1018h-1413z" />
<glyph unicode="&#x449;" horiz-adv-x="1728" d="M143 0v1018h260v-813h320v813h258v-813h315v813h260v-813h125v-488h-225v283h-1313z" />
<glyph unicode="&#x44a;" horiz-adv-x="1183" d="M23 813v205h524v-322q77 9 172 9q204 0 317 -88t113 -248q0 -170 -129.5 -278.5t-376.5 -108.5q-212 0 -356 32v799h-264zM547 203q63 -17 139 -17q91 0 141 43.5t50 114.5q0 70 -50 113t-157 43q-57 0 -123 -8v-289z" />
<glyph unicode="&#x44b;" horiz-adv-x="1579" d="M143 14v1004h260v-322q76 9 172 9q204 0 317.5 -88t113.5 -248q0 -170 -129 -278.5t-375 -108.5q-212 0 -359 32zM403 203q63 -17 140 -17q91 0 141.5 43.5t50.5 114.5q0 70 -50 113t-157 43q-59 0 -125 -8v-289zM1176 0v1018h260v-1018h-260z" />
<glyph unicode="&#x44c;" horiz-adv-x="1042" d="M143 14v1004h260v-322q76 9 172 9q204 0 317.5 -88t113.5 -248q0 -170 -129 -278.5t-375 -108.5q-212 0 -359 32zM403 203q63 -17 140 -17q91 0 141.5 43.5t50.5 114.5q0 70 -50 113t-157 43q-59 0 -125 -8v-289z" />
<glyph unicode="&#x44d;" horiz-adv-x="890" d="M68 16l41 203q97 -41 194 -41q116 0 181 66.5t73 179.5h-383v182h381q-17 114 -85 173t-175 59q-94 0 -176 -31l-41 190q109 41 252 41q239 0 366 -137t127 -391q0 -236 -138 -382t-386 -146q-133 0 -231 34z" />
<glyph unicode="&#x44e;" horiz-adv-x="1601" d="M143 0v1018h260v-400h154q32 188 165 304t335 116q224 0 349.5 -127.5t125.5 -382.5q0 -239 -146.5 -393.5t-373.5 -154.5q-210 0 -330 107.5t-133 332.5h-146v-420h-260zM807 518q0 -315 225 -315q101 0 165.5 80.5t64.5 230.5q0 303 -226 303q-96 0 -162.5 -76 t-66.5 -223z" />
<glyph unicode="&#x44f;" horiz-adv-x="1064" d="M20 0l213 336q48 78 76 108q-101 23 -163 87.5t-62 164.5q0 157 123.5 248.5t355.5 91.5q181 0 359 -24v-1012h-263v389h-104l-238 -389h-297zM356 715q0 -63 45 -101.5t142 -38.5h116v273q-70 8 -118 8q-94 0 -139.5 -38t-45.5 -103z" />
<glyph unicode="&#x450;" horiz-adv-x="1052" d="M70 500q0 153 56.5 274.5t167.5 192.5t259 71q212 0 317 -119.5t105 -312.5q0 -91 -10 -147h-629q0 -138 67.5 -206.5t212.5 -68.5q147 0 295 60l29 -199q-176 -65 -369 -65q-501 0 -501 520zM233 1368l121 176l348 -256l-98 -141zM338 633h377q3 103 -44 158t-132 55 q-82 0 -136.5 -57t-64.5 -156z" />
<glyph unicode="&#x451;" horiz-adv-x="1052" d="M70 500q0 153 56.5 274.5t167.5 192.5t259 71q212 0 317 -119.5t105 -312.5q0 -91 -10 -147h-629q0 -138 67.5 -206.5t212.5 -68.5q147 0 295 60l29 -199q-176 -65 -369 -65q-501 0 -501 520zM197 1327q0 60 41 100.5t100 40.5t100 -40.5t41 -100.5q0 -59 -41.5 -100 t-99.5 -41t-99.5 41t-41.5 100zM338 633h377q3 103 -44 158t-132 55q-82 0 -136.5 -57t-64.5 -156zM610 1327q0 60 41.5 100.5t100.5 40.5t100 -40.5t41 -100.5q0 -59 -41.5 -100t-99.5 -41q-59 0 -100.5 41.5t-41.5 99.5z" />
<glyph unicode="&#x452;" horiz-adv-x="1169" d="M0 1151v203h154v141h262v-141h241v-203h-241v-111q0 -88 -19 -192h2q39 81 126 132.5t190 51.5q125 0 196 -57t104.5 -190.5t33.5 -368.5v-39q0 -226 -16 -361.5t-46.5 -206t-85.5 -124.5q-87 -87 -268 -134l-62 205q92 27 136 68q32 32 48 73t24.5 138.5t8.5 279.5v37 q0 194 -17 295.5t-48 133.5t-88 32q-87 0 -153 -90t-66 -213v-510h-262v1151h-154z" />
<glyph unicode="&#x453;" horiz-adv-x="729" d="M143 0v1018h547v-215h-287v-803h-260zM227 1288l346 256l121 -176l-370 -221z" />
<glyph unicode="&#x454;" horiz-adv-x="878" d="M70 498q0 111 31 206.5t92 170.5t162 118t231 43q139 0 229 -35l-41 -204q-91 43 -196 43t-166.5 -63.5t-75.5 -172.5h395v-178h-395q27 -248 268 -248q94 0 180 39l41 -188q-118 -47 -266 -47q-489 0 -489 516z" />
<glyph unicode="&#x455;" horiz-adv-x="854" d="M84 715q0 143 110 234t322 91q89 0 184 -20l-12 -205q-93 27 -184 27q-74 0 -112 -28t-38 -77q0 -35 23 -59.5t60 -41t82 -31.5t90 -37t82 -51.5t60 -80.5t23 -119q0 -152 -123 -244.5t-325 -92.5q-133 0 -228 26l19 219q93 -41 217 -41q74 0 119 30t45 81q0 36 -23 61.5 t-59.5 40.5t-80.5 29.5t-88 35t-80.5 50t-59.5 81.5t-23 122z" />
<glyph unicode="&#x456;" horiz-adv-x="546" d="M111 1327q0 66 48 113t115 47q68 0 116 -46.5t48 -113.5q0 -65 -48.5 -111.5t-115.5 -46.5q-68 0 -115.5 46t-47.5 112zM143 0v1018h260v-1018h-260z" />
<glyph unicode="&#x457;" horiz-adv-x="546" d="M-57 1327q0 60 40.5 100.5t100.5 40.5q59 0 100 -40.5t41 -100.5q0 -59 -41.5 -100t-99.5 -41q-60 0 -100.5 41t-40.5 100zM143 0v1018h260v-1018h-260zM322 1327q0 60 41 100.5t100 40.5q60 0 100.5 -40.5t40.5 -100.5q0 -59 -41 -100t-100 -41t-100 41t-41 100z" />
<glyph unicode="&#x458;" horiz-adv-x="557" d="M-127 -487l18 223q66 -25 121 -25q81 0 111.5 41.5t30.5 145.5v1120h260v-1094q0 -216 -91 -324t-305 -108q-70 0 -145 21zM119 1327q0 66 48 113t116 47t115.5 -46.5t47.5 -113.5q0 -65 -48 -111.5t-115 -46.5q-68 0 -116 46t-48 112z" />
<glyph unicode="&#x459;" horiz-adv-x="1593" d="M-2 188q68 5 105.5 48t57 152.5t19.5 307.5v322h772v-322q74 9 170 9q204 0 317 -88t113 -248q0 -170 -128.5 -278.5t-374.5 -108.5q-212 0 -359 32v785h-254v-105q0 -367 -100 -538t-311 -179zM952 203q63 -17 138 -17q91 0 141.5 43.5t50.5 114.5q0 70 -50 113t-157 43 q-61 0 -123 -8v-289z" />
<glyph unicode="&#x45a;" horiz-adv-x="1667" d="M143 0v1018h260v-387h361v387h260v-322q74 9 172 9q204 0 317 -88t113 -248q0 -170 -130 -278.5t-376 -108.5q-212 0 -356 32v396h-361v-410h-260zM1024 203q63 -17 137 -17q93 0 143 43.5t50 114.5q0 70 -50 113t-157 43q-61 0 -123 -8v-289z" />
<glyph unicode="&#x45b;" horiz-adv-x="1181" d="M0 1151v203h154v141h262v-141h243v-203h-243v-119q0 -93 -19 -186l2 -2q46 87 132.5 137.5t203.5 50.5q83 0 143.5 -25t94.5 -70.5t49.5 -101.5t15.5 -126v-709h-260v645q0 84 -29 126t-98 42q-99 0 -167 -97t-68 -233v-483h-262v1151h-154z" />
<glyph unicode="&#x45c;" horiz-adv-x="1071" d="M141 0v1018h262v-436l304 436h317l-362 -473l385 -545h-328l-316 492v-492h-262zM436 1288l346 256l121 -176l-371 -221z" />
<glyph unicode="&#x45d;" horiz-adv-x="1198" d="M143 0v1018h260v-459q0 -127 -12 -221q24 68 88 176l297 504h279v-1018h-262v461q0 103 12 225q-25 -80 -84 -176l-301 -510h-277zM289 1368l121 176l348 -256l-99 -141z" />
<glyph unicode="&#x45e;" horiz-adv-x="1028" d="M-37 -496l31 226q68 -21 129 -21q162 0 231 201l33 90l-377 1018h293l137 -389q40 -123 80 -281h2q36 146 99 324l120 346h281l-404 -1075q-50 -132 -102.5 -219.5t-115.5 -139t-132.5 -73t-161.5 -21.5q-75 0 -143 14zM135 1466h232q0 -153 151 -153q69 0 105 39t36 114 h234q0 -140 -98 -221.5t-285 -81.5q-185 0 -280 78.5t-95 224.5z" />
<glyph unicode="&#x45f;" horiz-adv-x="1167" d="M143 0v1018h260v-801h359v801h262v-1018h-328v-283h-225v283h-328z" />
<glyph unicode="&#x462;" horiz-adv-x="1370" d="M31 1030v219h293v199h266v-199h420v-219h-420v-190h201q236 0 366.5 -106.5t130.5 -282.5q0 -222 -154 -341.5t-417 -119.5q-240 0 -393 14v1026h-293zM590 213q117 -6 170 -6q117 0 183.5 55.5t66.5 151.5q0 99 -64 154t-201 55h-155v-410z" />
<glyph unicode="&#x463;" horiz-adv-x="1087" d="M12 815v203h176v313l263 70v-383h245v-203h-245v-156q90 11 172 11q204 0 317 -85t113 -237q0 -161 -130 -263.5t-376 -102.5q-198 0 -359 28v805h-176zM451 188q59 -16 137 -16q92 0 142 42.5t50 111.5q0 68 -49.5 109.5t-157.5 41.5q-60 0 -122 -8v-281z" />
<glyph unicode="&#x472;" horiz-adv-x="1439" d="M68 674q0 167 53.5 305.5t145 231t214.5 143.5t262 51q140 0 254 -42.5t198.5 -126.5t130.5 -217.5t46 -307.5q0 -167 -53 -306.5t-144.5 -232.5t-214.5 -144t-264 -51q-310 0 -469 184t-159 513zM352 604q15 -184 107 -287.5t256 -103.5q65 0 125.5 24t112 70.5t87 123 t45.5 173.5h-733zM356 811h729q-22 175 -115.5 267.5t-250.5 92.5q-135 0 -237 -94t-126 -266z" />
<glyph unicode="&#x473;" horiz-adv-x="1132" d="M68 492q0 239 144.5 392.5t375.5 153.5q224 0 349.5 -127.5t125.5 -382.5q0 -240 -146 -394t-374 -154q-226 0 -350.5 125t-124.5 387zM332 430q9 -124 70 -189t165 -65q93 0 156.5 65.5t75.5 188.5h-467zM334 602h465q-9 117 -69 179.5t-163 62.5q-94 0 -157.5 -62.5 t-75.5 -179.5z" />
<glyph unicode="&#x474;" horiz-adv-x="1282" d="M6 1382h291l272 -815q57 -178 78 -268h4q19 96 62 250l112 420q34 128 64.5 203t76.5 127.5t106.5 72t154.5 19.5q25 0 50 -2.5t37 -4.5l13 -2v-225q-37 2 -76 2q-41 0 -66 -19t-50.5 -73.5t-61.5 -171.5l-266 -895h-320z" />
<glyph unicode="&#x475;" horiz-adv-x="1058" d="M10 1018h285l151 -475q52 -182 72 -310h6q11 57 58 261l67 237q22 85 46 138.5t62 93t93.5 56.5t136.5 17q32 0 90 -8v-219q-32 4 -59 4q-49 0 -72.5 -31t-54.5 -133l-199 -649h-352z" />
<glyph unicode="&#x490;" horiz-adv-x="878" d="M143 0v1382h482v248h233v-475h-448v-1155h-267z" />
<glyph unicode="&#x491;" horiz-adv-x="741" d="M143 0v1018h332v237h227v-452h-299v-803h-260z" />
<glyph unicode="&#x492;" horiz-adv-x="942" d="M20 582v221h150v579h723v-227h-457v-352h336v-221h-336v-582h-266v582h-150z" />
<glyph unicode="&#x493;" horiz-adv-x="768" d="M31 389v209h131v420h555v-215h-293v-205h209v-209h-209v-389h-262v389h-131z" />
<glyph unicode="&#x496;" horiz-adv-x="1777" d="M6 0l475 711l-452 671h317l395 -626v626h267v-626l399 626h315l-454 -667l346 -488h155v-528h-233v301h-131l-397 664v-664h-267v664l-397 -664h-338z" />
<glyph unicode="&#x497;" horiz-adv-x="1601" d="M29 0l360 539l-342 479h322l278 -436v436h260v-436l283 436h317l-342 -475l236 -338h153v-488h-227v283h-127l-293 489v-489h-260v489l-295 -489h-323z" />
<glyph unicode="&#x498;" horiz-adv-x="1050" d="M72 18l26 228q124 -43 295 -43q151 0 220 58.5t69 152.5q0 99 -83 142.5t-245 43.5h-133v213h86q97 0 171 18.5t122.5 63.5t48.5 113q0 82 -54 129t-187 47q-147 0 -281 -51l-23 217q176 51 359 51q231 0 346 -92t115 -250q0 -111 -61 -193.5t-165 -115.5l-2 -5 q125 -20 197 -108t72 -201q0 -71 -21.5 -136t-65.5 -123.5t-118.5 -103t-173.5 -65.5v-309h-234v285q-174 6 -280 34z" />
<glyph unicode="&#x499;" horiz-adv-x="911" d="M63 16l39 205q132 -57 279 -57q93 0 142.5 39t49.5 102q0 129 -225 129h-176v176h174q201 0 201 123q0 56 -45.5 89.5t-143.5 33.5q-123 0 -243 -47l-31 180q155 51 317 51q109 0 190 -22t125.5 -60t65.5 -83.5t21 -98.5q0 -172 -168 -223v-2q97 -16 155 -74.5t58 -154.5 q0 -118 -80.5 -206.5t-232.5 -119.5v-279h-228v263q-123 5 -244 36z" />
<glyph unicode="&#x49a;" horiz-adv-x="1253" d="M143 0v1382h267v-626l446 626h328l-508 -667l383 -488h160v-528h-234v301h-131l-444 664v-664h-267z" />
<glyph unicode="&#x49b;" horiz-adv-x="1071" d="M141 0v1018h262v-436l304 436h317l-362 -473l251 -340h148v-488h-227v283h-115l-316 492v-492h-262z" />
<glyph unicode="&#x49c;" horiz-adv-x="1490" d="M147 0v1382h267v-557h116v244h209v-244h45l365 557h313l-452 -657l475 -725h-340l-361 608h-45v-252h-209v252h-116v-608h-267z" />
<glyph unicode="&#x49d;" horiz-adv-x="1382" d="M141 0v1018h262v-385h89v207h204v-207h72l244 385h319l-340 -477l365 -541h-326l-262 422h-72v-215h-204v215h-89v-422h-262z" />
<glyph unicode="&#x4a0;" horiz-adv-x="1357" d="M31 1155v227h518v-626l446 626h326l-506 -667l528 -715h-352l-442 664v-664h-266v1155h-252z" />
<glyph unicode="&#x4a1;" horiz-adv-x="1150" d="M12 815v203h471v-436l303 436h318l-363 -473l385 -545h-327l-316 492v-492h-262v815h-209z" />
<glyph unicode="&#x4a2;" horiz-adv-x="1452" d="M143 0v1382h267v-553h585v553h269v-1155h155v-528h-233v301h-191v600h-585v-600h-267z" />
<glyph unicode="&#x4a3;" horiz-adv-x="1196" d="M143 0v1018h260v-387h369v387h260v-813h117v-488h-225v283h-152v410h-369v-410h-260z" />
<glyph unicode="&#x4aa;" horiz-adv-x="1146" d="M78 647q0 166 43.5 302t128 236t217.5 155t303 55q158 0 295 -41l-37 -246q-125 49 -270 49q-189 0 -288 -127.5t-99 -337.5q0 -467 403 -467q63 0 135.5 16t126.5 42l41 -236q-130 -50 -284 -59v-289h-234v301q-104 18 -186.5 61.5t-137 104t-90.5 139t-51.5 163 t-15.5 179.5z" />
<glyph unicode="&#x4ab;" horiz-adv-x="872" d="M70 475q0 121 31 222t91.5 178t156.5 120t220 43q144 0 256 -45l-69 -231q-93 55 -195 55q-103 0 -160 -84t-57 -223q0 -303 236 -303q106 0 188 45l57 -211q-84 -43 -204 -55v-269h-228v281q-323 72 -323 477z" />
<glyph unicode="&#x4ae;" horiz-adv-x="1148" d="M6 1382h291l182 -397q48 -107 94 -229h5q33 90 110 256l174 370h283l-440 -893v-489h-267v487z" />
<glyph unicode="&#x4af;" horiz-adv-x="1038" d="M10 1018h291l145 -422q43 -127 72 -258h4q20 94 74 264l147 416h283l-385 -1018v-494h-260v494z" />
<glyph unicode="&#x4b0;" horiz-adv-x="1161" d="M18 1382h291l174 -381q53 -110 97 -229h2q46 118 110 256l168 354h281l-432 -870h325v-217h-325v-295h-267v295h-323v217h323z" />
<glyph unicode="&#x4b1;" horiz-adv-x="1046" d="M10 1018h297l144 -371q47 -128 75 -244h4q25 115 80 250l146 365h280l-354 -815h270v-203h-307v-494h-260v494h-307v203h272z" />
<glyph unicode="&#x4b2;" horiz-adv-x="1320" d="M20 0l441 707l-414 675h309l281 -479l278 479h304l-408 -673l309 -482h158v-528h-234v301h-114l-297 508l-297 -508h-316z" />
<glyph unicode="&#x4b3;" horiz-adv-x="1128" d="M23 0l350 514l-330 504h313l197 -336l199 336h290l-319 -502l213 -311h145v-488h-227v283h-125l-197 342l-196 -342h-313z" />
<glyph unicode="&#x4b8;" horiz-adv-x="1320" d="M84 954v428h268v-393q0 -112 39 -175.5t139 -76.5v250h209v-262q98 6 174 45v612h265v-1382h-265v551q-60 -30 -174 -45v-232h-209v226q-104 5 -182.5 31t-128 66.5t-80.5 98t-43 119.5t-12 139z" />
<glyph unicode="&#x4b9;" horiz-adv-x="1226" d="M76 674v344h262v-307q0 -83 35 -127.5t112 -51.5v220h197v-217q69 8 139 40v443h262v-1018h-262v377q-75 -29 -139 -35v-197h-197v183q-409 11 -409 346z" />
<glyph unicode="&#x4ba;" horiz-adv-x="1306" d="M143 0v1382h267v-528q128 49 307 49q461 0 461 -438v-465h-267v428q0 125 -55 189.5t-192 64.5q-149 0 -254 -55v-627h-267z" />
<glyph unicode="&#x4bb;" horiz-adv-x="1171" d="M143 0v1495h263v-438q0 -124 -19 -207h4q46 87 132 137.5t202 50.5q83 0 143.5 -25t94.5 -70.5t49.5 -101.5t15.5 -126v-715h-260v651q0 83 -28.5 125.5t-98.5 42.5q-98 0 -166.5 -97t-68.5 -233v-489h-263z" />
<glyph unicode="&#x4d8;" horiz-adv-x="1239" d="M55 580q0 109 19 229h803q-17 174 -107 265t-244 91q-199 0 -366 -75l-51 223q205 90 444 90q138 0 249.5 -41.5t194.5 -125.5t128.5 -219.5t45.5 -314.5q0 -340 -160.5 -532.5t-439.5 -192.5q-258 0 -387 161t-129 442zM344 561q0 -342 250 -342q131 0 205.5 101 t79.5 268h-535v-27z" />
<glyph unicode="&#x4d9;" horiz-adv-x="1052" d="M70 459q0 63 10 145h627q-8 114 -78.5 175t-200.5 61q-150 0 -281 -58l-43 191q165 67 365 67q246 0 376 -129t130 -393q0 -243 -126 -390.5t-353 -147.5q-214 0 -320 129.5t-106 349.5zM328 403q0 -115 47.5 -171t132.5 -56q93 0 146 70.5t55 183.5h-381v-27z" />
<glyph unicode="&#x4e8;" horiz-adv-x="1439" d="M68 674q0 167 53.5 305.5t145 231t214.5 143.5t262 51q140 0 254 -42.5t198.5 -126.5t130.5 -217.5t46 -307.5q0 -167 -53 -306.5t-144.5 -232.5t-214.5 -144t-264 -51q-310 0 -469 184t-159 513zM352 604q15 -184 107 -287.5t256 -103.5q65 0 125.5 24t112 70.5t87 123 t45.5 173.5h-733zM356 811h729q-22 175 -115.5 267.5t-250.5 92.5q-135 0 -237 -94t-126 -266z" />
<glyph unicode="&#x4e9;" horiz-adv-x="1132" d="M68 492q0 239 144.5 392.5t375.5 153.5q224 0 349.5 -127.5t125.5 -382.5q0 -240 -146 -394t-374 -154q-226 0 -350.5 125t-124.5 387zM332 430q9 -124 70 -189t165 -65q93 0 156.5 65.5t75.5 188.5h-467zM334 602h465q-9 117 -69 179.5t-163 62.5q-94 0 -157.5 -62.5 t-75.5 -179.5z" />
<glyph unicode="&#x2000;" horiz-adv-x="881" />
<glyph unicode="&#x2001;" horiz-adv-x="1763" />
<glyph unicode="&#x2002;" horiz-adv-x="881" />
<glyph unicode="&#x2003;" horiz-adv-x="1763" />
<glyph unicode="&#x2004;" horiz-adv-x="587" />
<glyph unicode="&#x2005;" horiz-adv-x="440" />
<glyph unicode="&#x2006;" horiz-adv-x="293" />
<glyph unicode="&#x2007;" horiz-adv-x="293" />
<glyph unicode="&#x2008;" horiz-adv-x="220" />
<glyph unicode="&#x2009;" horiz-adv-x="352" />
<glyph unicode="&#x200a;" horiz-adv-x="97" />
<glyph unicode="&#x2010;" horiz-adv-x="684" d="M90 463v211h504v-211h-504z" />
<glyph unicode="&#x2011;" horiz-adv-x="684" d="M90 463v211h504v-211h-504z" />
<glyph unicode="&#x2012;" horiz-adv-x="684" d="M90 463v211h504v-211h-504z" />
<glyph unicode="&#x2013;" d="M0 496v227h1126v-227h-1126z" />
<glyph unicode="&#x2014;" horiz-adv-x="2048" d="M227 496v227h1594v-227h-1594z" />
<glyph unicode="&#x2018;" horiz-adv-x="546" d="M116 1198q53 179 249 350l106 -96q-68 -73 -97 -131.5t-24.5 -101t37.5 -82.5q29 -33 34 -76.5t-11 -81.5t-54.5 -64t-89.5 -26q-87 0 -134 76q-57 93 -16 233z" />
<glyph unicode="&#x2019;" horiz-adv-x="546" d="M72 967q69 74 98.5 132t24.5 100.5t-39 82.5q-28 33 -32.5 76.5t11.5 81.5t54.5 64t89.5 26q87 0 134 -76q58 -94 16 -235q-53 -178 -249 -349z" />
<glyph unicode="&#x201a;" horiz-adv-x="546" d="M72 -258q69 74 98.5 131.5t24.5 100t-39 83.5q-28 33 -32.5 76.5t11.5 81.5t54.5 64t89.5 26q87 0 134 -76q57 -93 16 -233q-53 -179 -249 -350z" />
<glyph unicode="&#x201c;" horiz-adv-x="993" d="M116 1198q53 179 249 350l106 -96q-68 -73 -97 -131.5t-24.5 -101t37.5 -82.5q29 -33 34 -76.5t-11 -81.5t-54.5 -64t-89.5 -26q-87 0 -134 76q-57 93 -16 233zM564 1201q53 177 247 347l109 -96q-68 -73 -97 -131.5t-24.5 -101t37.5 -82.5q28 -33 32.5 -76.5t-11 -81.5 t-53.5 -64t-89 -26q-89 0 -136 77q-57 94 -15 235z" />
<glyph unicode="&#x201d;" horiz-adv-x="993" d="M72 967q69 74 98.5 132t24.5 100.5t-39 82.5q-28 33 -32.5 76.5t11.5 81.5t54.5 64t89.5 26q87 0 134 -76q58 -94 16 -235q-53 -178 -249 -349zM520 967q68 73 97 131.5t24.5 101t-37.5 82.5q-28 33 -32.5 76.5t11 81.5t53.5 64t89 26q89 0 136 -77q57 -94 15 -235 q-53 -178 -247 -348z" />
<glyph unicode="&#x201e;" horiz-adv-x="993" d="M72 -258q69 74 98.5 131.5t24.5 100t-39 83.5q-28 33 -32.5 76.5t11.5 81.5t54.5 64t89.5 26q87 0 134 -76q57 -93 16 -233q-53 -179 -249 -350zM520 -258q68 74 97 131.5t24.5 100t-37.5 83.5q-28 33 -32.5 76.5t11 81.5t53.5 64t89 26q89 0 136 -77q57 -94 15 -235 q-53 -177 -247 -347z" />
<glyph unicode="&#x202f;" horiz-adv-x="352" />
<glyph unicode="&#x2039;" horiz-adv-x="638" d="M84 598l235 399l199 -96l-182 -301l186 -297l-207 -98z" />
<glyph unicode="&#x203a;" horiz-adv-x="638" d="M119 899l207 98l231 -393l-238 -399l-198 96l184 301z" />
<glyph unicode="&#x205f;" horiz-adv-x="440" />
<glyph unicode="&#x20ac;" horiz-adv-x="1212" d="M25 451v157h147v39q0 43 4 117h-151v158h170q50 238 209 360.5t397 122.5q94 0 185.5 -21t152.5 -53l-62 -211q-119 68 -278 68q-123 0 -204 -65.5t-110 -200.5h398v-158h-422q0 -11 -1 -35t-1 -37q0 -57 2 -84h422v-157h-402q49 -256 326 -256q64 0 141 23.5t139 62.5 l70 -199q-169 -105 -387 -105q-255 0 -403 119.5t-183 354.5h-159z" />
<glyph unicode="&#x2122;" horiz-adv-x="1411" d="M59 1225v157h459v-157h-133v-418h-186v418h-140zM535 807l92 575h223l70 -252l16 -83l14 79l70 256h225l94 -575h-194l-37 248l-10 96l-19 -88l-67 -256h-174l-68 262l-16 82l-4 -74l-39 -270h-176z" />
<glyph unicode="&#x25fc;" horiz-adv-x="1013" d="M0 0v1014h1014v-1014h-1014z" />
</font>
</defs>
</svg>
